<?xml version="1.0" encoding="utf-8"?>
<!-- Generator: Adobe Illustrator 16.0.0, SVG Export Plug-In . SVG Version: 6.00 Build 0)  -->
<!DOCTYPE svg PUBLIC "-//W3C//DTD SVG 1.0//EN" "http://www.w3.org/TR/2001/REC-SVG-20010904/DTD/svg10.dtd">
<svg version="1.0" id="Calque_1" xmlns="http://www.w3.org/2000/svg" xmlns:xlink="http://www.w3.org/1999/xlink" x="0px" y="0px"
	 width="841.89px" height="595.28px" viewBox="0 0 841.89 595.28" enable-background="new 0 0 841.89 595.28" xml:space="preserve">
<rect stroke="#FFFFFF" stroke-miterlimit="10" width="841.89" height="595.28"/>
<path stroke="#FFFFFF" stroke-miterlimit="10" d="M360.93,219.5"/>
<path stroke="#FFFFFF" stroke-miterlimit="10" d="M335.58,216.42"/>
<path stroke="#000000" stroke-width="2" stroke-miterlimit="10" d="M348.71,232.84"/>
<path stroke="#000000" stroke-width="2" stroke-miterlimit="10" d="M353.64,256.54"/>
<path stroke="#000000" stroke-width="2" stroke-miterlimit="10" d="M367.41,240.2"/>
<path fill="none" stroke="#FFFFFF" stroke-width="13" stroke-linecap="round" stroke-miterlimit="10" d="M123.47,261.71
	C143.32,196,225,147.7,287.15,196.38c62.15,48.67,63.97,109.69,37.98,147.39c-25.99,37.71-42.09,45.16-67.43,60.45
	c-25.35,15.29-31.29,46.04-36.23,55.77c-4.95,9.73-21.06,26.48-35.02,23.92c-13.97-2.56-28.76-7.01-39.34-20.22"/>
<g>
	<path fill="#F9F9F9" stroke="#000000" stroke-width="2" stroke-miterlimit="10" d="M143.81,318.54c0.15-3.56,1.2-7.63,3.14-12.2
		c1.94-4.57,4.84-8.98,8.72-13.25c3.87-4.26,8.79-8.13,14.76-11.62c5.96-3.49,13.05-5.93,21.27-7.32
		c8.21-1.39,17.55-1.47,28.01-0.23c10.46,1.24,22.12,4.34,34.98,9.3c0-0.15-0.08-1.16-0.23-3.02c-0.16-1.86-0.23-2.87-0.23-3.02
		c0-5.42-1.55-10.88-4.65-16.39c-3.1-5.5-7.05-10.5-11.85-14.99c-4.8-4.49-10.03-8.13-15.69-10.92c-5.66-2.79-11.04-4.18-16.15-4.18
		c-2.17,0-4.03,0.35-5.58,1.05c-1.55,0.7-3.02,1.47-4.42,2.32c-1.39,0.85-2.75,1.63-4.07,2.32c-1.32,0.7-2.91,1.05-4.76,1.05
		c-0.31,0-0.54-0.08-0.7-0.23c-0.16-0.15-0.39-0.31-0.7-0.46c-0.46-0.31-1.05-0.81-1.74-1.51s-1.05-1.12-1.05-1.28
		c0-3.72,0.7-6.93,2.09-9.65c1.39-2.71,3.25-4.92,5.58-6.62c2.32-1.7,5-2.98,8.02-3.83c3.02-0.85,6.24-1.28,9.65-1.28
		c8.37,0.93,16.27,3.49,23.71,7.67s14.29,9.49,20.57,15.92c6.28,6.43,11.81,13.79,16.62,22.08c4.8,8.29,8.79,16.93,11.97,25.92
		c3.17,8.99,5.35,18.09,6.51,27.31c1.16,9.22,1.2,18.01,0.12,26.38c-0.16,0-0.78-0.04-1.86-0.12c-1.09-0.08-2.21-0.15-3.37-0.23
		c-1.16-0.08-2.75-0.27-4.76-0.58c-4.34-9.76-9.18-17.66-14.53-23.71s-10.66-10.73-15.92-14.06c-5.27-3.33-10.19-5.69-14.76-7.09
		c-4.57-1.39-8.25-2.4-11.04-3.02c-3.1,0-6.78,0.23-11.04,0.7c-4.26,0.46-8.68,1.2-13.25,2.21c-4.57,1.01-9.14,2.36-13.71,4.07
		c-4.57,1.71-8.68,3.8-12.32,6.27c-3.64,2.48-6.59,5.46-8.83,8.95c-2.25,3.49-3.37,7.48-3.37,11.97c0,4.96,2.01,9.14,6.04,12.55
		c4.03,3.41,8.79,6.16,14.29,8.25c5.5,2.09,11.16,3.6,16.97,4.53s10.5,1.39,14.06,1.39c5.73,0,11.39-0.31,16.97-0.93
		c5.58-0.62,11.08-1.35,16.5-2.21c5.42-0.85,10.84-1.59,16.27-2.21c5.42-0.62,10.84-0.93,16.27-0.93c0.46,0,1.2,0,2.21,0
		c1.01,0,2.05,0.04,3.14,0.12c1.08,0.08,2.13,0.12,3.14,0.12c1.01,0,1.66,0,1.98,0c1.7,0.62,2.67,1.55,2.91,2.79
		c0.23,1.24,0.35,2.48,0.35,3.72c0,1.24-1.32,2.6-3.95,4.07c-2.64,1.47-6.01,2.95-10.11,4.42c-4.11,1.47-8.68,2.95-13.71,4.42
		c-5.04,1.47-9.92,2.75-14.64,3.83c-4.73,1.09-9.06,1.98-13.02,2.67s-6.86,1.04-8.72,1.04c-8.68,0-17.82-0.73-27.43-2.21
		c-9.61-1.47-18.48-4.1-26.61-7.9c-8.13-3.79-14.84-9.1-20.1-15.92C146.44,337.98,143.81,329.23,143.81,318.54z"/>
	<path fill="#F9F9F9" stroke="#000000" stroke-width="2" stroke-miterlimit="10" d="M355.32,364.79c0-0.31,0-0.96,0-1.97
		c0-1.01-0.04-2.09-0.12-3.25c-0.08-1.16-0.12-2.24-0.12-3.25c0-1.01,0-1.66,0-1.98c0-2.01,0.12-5,0.35-8.95s0.54-8.33,0.93-13.13
		c0.38-4.8,0.77-9.88,1.16-15.22c0.38-5.35,0.77-10.46,1.16-15.34c0.38-4.88,0.7-9.26,0.93-13.13c0.23-3.87,0.35-6.89,0.35-9.06
		c0-1.24,0-2.48,0-3.72c0-1.24-0.16-2.4-0.46-3.49c-0.31-1.08-0.89-2.09-1.74-3.02c-0.85-0.93-2.13-1.63-3.83-2.09
		c-0.93,0.78-2.4,2.4-4.42,4.88c-2.02,2.48-4.3,5.27-6.86,8.37c-2.56,3.1-5.35,6.36-8.37,9.76c-3.02,3.41-5.97,6.51-8.83,9.3
		c-2.87,2.79-5.62,5.11-8.25,6.97c-2.64,1.86-4.88,2.79-6.74,2.79c-4.96,0-7.44-2.63-7.44-7.9v-1.63c0.31-0.46,0.73-1.12,1.28-1.98
		c0.54-0.85,1.12-1.74,1.74-2.67c0.62-0.93,1.2-1.78,1.74-2.56c0.54-0.77,0.97-1.31,1.28-1.63l56.71-59.5
		c1.7-1.7,3.06-4.1,4.07-7.21c1.01-3.1,1.86-6.43,2.56-9.99c0.7-3.56,1.39-7.17,2.09-10.81c0.7-3.64,1.51-6.93,2.44-9.88
		c0.93-2.94,2.13-5.35,3.6-7.21c1.47-1.86,3.37-2.79,5.7-2.79c1.24,0,2.4,0.12,3.49,0.35c1.08,0.23,1.94,1.13,2.56,2.67
		c0,0.46,0,1.2,0,2.21c0,1.01,0.04,2.06,0.12,3.14c0.08,1.09,0.12,2.13,0.12,3.14c0,1.01,0,1.67,0,1.98c0,0.93-0.27,4.11-0.81,9.53
		c-0.54,5.43-1.28,12.28-2.21,20.57c-0.93,8.29-2.02,17.63-3.25,28.01c-1.24,10.38-2.6,20.92-4.07,31.61
		c-1.47,10.69-2.98,21.07-4.53,31.14c-1.55,10.07-3.1,19.06-4.65,26.96c-1.55,7.9-3.06,14.26-4.53,19.06
		c-1.47,4.8-2.83,7.21-4.07,7.21c-2.17,0-3.92-0.42-5.23-1.28C357.83,368.94,356.55,367.27,355.32,364.79z"/>
	<path fill="#F9F9F9" stroke="#000000" stroke-width="2" stroke-miterlimit="10" d="M456.42,364.79c0-0.31,0-0.96,0-1.97
		c0-1.01-0.04-2.09-0.12-3.25c-0.08-1.16-0.12-2.24-0.12-3.25c0-1.01,0-1.66,0-1.98c0-2.01,0.12-5,0.35-8.95s0.54-8.33,0.93-13.13
		c0.38-4.8,0.77-9.88,1.16-15.22c0.38-5.35,0.77-10.46,1.16-15.34c0.38-4.88,0.7-9.26,0.93-13.13c0.23-3.87,0.35-6.89,0.35-9.06
		c0-1.24,0-2.48,0-3.72c0-1.24-0.16-2.4-0.46-3.49c-0.31-1.08-0.89-2.09-1.74-3.02c-0.85-0.93-2.13-1.63-3.83-2.09
		c-0.93,0.78-2.4,2.4-4.42,4.88c-2.02,2.48-4.3,5.27-6.86,8.37c-2.56,3.1-5.35,6.36-8.37,9.76c-3.02,3.41-5.97,6.51-8.83,9.3
		c-2.87,2.79-5.62,5.11-8.25,6.97c-2.64,1.86-4.88,2.79-6.74,2.79c-4.96,0-7.44-2.63-7.44-7.9v-1.63c0.31-0.46,0.73-1.12,1.28-1.98
		c0.54-0.85,1.12-1.74,1.74-2.67c0.62-0.93,1.2-1.78,1.74-2.56c0.54-0.77,0.97-1.31,1.28-1.63l56.71-59.5
		c1.7-1.7,3.06-4.1,4.07-7.21c1.01-3.1,1.86-6.43,2.56-9.99c0.7-3.56,1.39-7.17,2.09-10.81c0.7-3.64,1.51-6.93,2.44-9.88
		c0.93-2.94,2.13-5.35,3.6-7.21c1.47-1.86,3.37-2.79,5.69-2.79c1.24,0,2.4,0.12,3.49,0.35c1.08,0.23,1.94,1.13,2.56,2.67
		c0,0.46,0,1.2,0,2.21c0,1.01,0.04,2.06,0.12,3.14c0.08,1.09,0.12,2.13,0.12,3.14c0,1.01,0,1.67,0,1.98c0,0.93-0.27,4.11-0.81,9.53
		c-0.54,5.43-1.28,12.28-2.21,20.57c-0.93,8.29-2.02,17.63-3.25,28.01c-1.24,10.38-2.6,20.92-4.07,31.61
		c-1.47,10.69-2.99,21.07-4.53,31.14c-1.55,10.07-3.1,19.06-4.65,26.96c-1.55,7.9-3.06,14.26-4.53,19.06
		c-1.47,4.8-2.83,7.21-4.07,7.21c-2.17,0-3.92-0.42-5.23-1.28C458.94,368.94,457.66,367.27,456.42,364.79z"/>
	<path fill="#F9F9F9" stroke="#000000" stroke-width="2" stroke-miterlimit="10" d="M506.62,287.86c0-10.69,1.59-20.95,4.76-30.8
		c3.17-9.84,7.82-18.48,13.95-25.92c6.12-7.44,13.6-13.36,22.43-17.78s18.98-6.62,30.45-6.62c6.82,0.93,12.74,2.79,17.78,5.58
		c5.03,2.79,9.18,6.32,12.43,10.58c3.25,4.26,5.61,9.14,7.09,14.64c1.47,5.5,2.13,11.35,1.98,17.55c0,7.44-2.21,14.14-6.62,20.1
		c-4.42,5.97-9.92,10.96-16.5,14.99c-6.59,4.03-13.71,7.13-21.38,9.3c-7.67,2.17-14.84,3.25-21.5,3.25c-2.48,0-5-0.04-7.55-0.12
		c-2.56-0.08-4.84-0.5-6.86-1.28c-2.02-0.77-3.64-2.01-4.88-3.72c-1.24-1.7-1.86-4.18-1.86-7.44c0-1.08,0.15-1.98,0.46-2.67
		c0.31-0.7,1.16-1.2,2.56-1.51c1.39-0.31,3.49-0.35,6.28-0.12s6.74,0.81,11.85,1.74c2.79,0,6.97-0.97,12.55-2.91
		c5.58-1.94,11.19-4.45,16.85-7.55c5.65-3.1,10.58-6.62,14.76-10.58s6.28-7.94,6.28-11.97c0-4.03-0.7-8.05-2.09-12.09
		c-1.39-4.03-3.41-7.59-6.04-10.69c-2.64-3.1-5.77-5.58-9.41-7.44c-3.64-1.86-7.71-2.63-12.2-2.32c-7.29,0.62-13.87,2.6-19.76,5.93
		c-5.89,3.33-10.92,7.59-15.11,12.78c-4.18,5.19-7.4,11.04-9.65,17.55c-2.25,6.51-3.37,13.17-3.37,19.99
		c0,5.27,0.12,10.66,0.35,16.15c0.23,5.5,1.01,10.85,2.32,16.04c1.31,5.19,3.49,10.11,6.51,14.76s7.36,8.8,13.02,12.44
		c5.65,3.64,12.82,6.66,21.5,9.06c8.68,2.4,19.44,3.91,32.31,4.53l55.32-3.72c-3.41,4.5-7.59,8.21-12.55,11.16
		c-4.96,2.95-10.27,5.31-15.92,7.09c-5.66,1.78-11.31,3.06-16.97,3.83c-5.66,0.78-10.89,1.16-15.69,1.16
		c-11.93,0-23.21-1.94-33.82-5.81c-10.62-3.87-19.91-9.41-27.89-16.62c-7.98-7.21-14.33-15.92-19.06-26.15
		C508.98,312.03,506.62,300.56,506.62,287.86z"/>
</g>
<path d="M340.93,255.5"/>
<path d="M315.58,252.42"/>
<path stroke="#FCFCFC" stroke-width="2" stroke-miterlimit="10" d="M328.71,268.84"/>
<path stroke="#FCFCFC" stroke-width="2" stroke-miterlimit="10" d="M341.84,254.98"/>
<path stroke="#FCFCFC" stroke-width="2" stroke-miterlimit="10" d="M333.64,292.54"/>
<path stroke="#FCFCFC" stroke-width="2" stroke-miterlimit="10" d="M347.41,276.2"/>
<line stroke="#000000" stroke-width="3" stroke-miterlimit="10" x1="341.15" y1="254.14" x2="327.13" y2="268.63"/>
<line stroke="#000000" stroke-width="3" stroke-miterlimit="10" x1="347.3" y1="277.77" x2="330.67" y2="297.99"/>
</svg>
