<?xml version="1.0" encoding="utf-8"?>
<!-- Generator: Adobe Illustrator 16.0.0, SVG Export Plug-In . SVG Version: 6.00 Build 0)  -->
<!DOCTYPE svg PUBLIC "-//W3C//DTD SVG 1.1//EN" "http://www.w3.org/Graphics/SVG/1.1/DTD/svg11.dtd">
<svg version="1.1" id="Calque_1" xmlns="http://www.w3.org/2000/svg" xmlns:xlink="http://www.w3.org/1999/xlink" x="0px" y="0px"
	 width="422.797px" height="436.934px" viewBox="0 0 422.797 436.934" enable-background="new 0 0 422.797 436.934"
	 xml:space="preserve">
<image display="none" overflow="visible" width="406" height="448" xlink:href="a.jpg"  transform="matrix(1 0 0 1 -34.5366 -12.5659)">
</image>
<path fill="none" stroke="#000000" stroke-width="3" stroke-linecap="round" stroke-miterlimit="10" d="M242.963,435.434
	c0,0-2.5-41.5,21.5-63c0,0,36.5-55,40.5-65.5c0,0,24-56,35.5-64c0,0,5-11.71,5-31.855v-67.145c0,0,1-30,4.5-36.5c0,0,0.5-3.5,0-10
	c0,0-3-35.5,5.5-52l12-27c0,0,1-12.5-14.5-16.5c0,0-37-10-62.5,66"/>
<path fill="none" stroke="#000000" stroke-width="3" stroke-linecap="round" stroke-miterlimit="10" d="M153.713,79.684
	c14.25-27.5,48.5-18.5,48.5-18.5c26.5,5.25,25.25,28.5,25.25,28.5c-1.25,10.5-2.25,60.764-2.25,60.764
	c1.333,6.833,1.417,32.986,1.417,32.986c-0.5,13.583,4.833,13.5,4.833,13.5c13.5,1.5,29-12.5,29-12.5c22-16.5,28-56.5,28-56.5
	c13-67-7-74.5-7-74.5c-16.5-15.5-45-6-45-6c-4.667,1-17.5,21-17.5,21"/>
<path fill="none" stroke="#000000" stroke-width="3" stroke-linecap="round" stroke-miterlimit="10" d="M205.463,205.101"/>
<path fill="none" stroke="#000000" stroke-width="3" stroke-linecap="round" stroke-miterlimit="10" d="M83.463,98.434
	c0,0,3-21,32-28c0,0,29.167-9.667,38.25,10.667l10.583,114.667c0,0,6.833,8.166,20.167,9.333h21c0,0,15.833-2,20-19.5"/>
<path fill="none" stroke="#000000" stroke-width="3" stroke-linecap="round" stroke-miterlimit="10" d="M163.797,197.046
	c0,0,4.333,20.718-9.333,35.718c0,0-7,9-23.333,5c0,0-15.333-4.667-20-13c0,0-2.333-8.999-2.667-15.666
	c0,0-0.333-8.334,4.333-24.667c0,0,7.333-13.667-7.667-31.667c0,0-21.667-50.999-21.667-52.665c0,0-12-12.667-42.667,12
	c0,0-25,25.333-31.667,58c0,0-3,20.331-7,31.664c0,0-3.333,10.667,5.333,27.667c0,0,6,8.33,6.333,28.33v29.334
	c0,0-0.667,3.995,3.667,15.662L55.13,435.434"/>
<path fill="none" stroke="#000000" stroke-linecap="round" stroke-miterlimit="10" d="M109.463,394.089
	c-1.333,0.334-45.667,22.334-59,18.334"/>
<path fill="none" stroke="#000000" stroke-linecap="round" stroke-miterlimit="10" d="M161.797,388.423
	c0,0,25.667,18.819,68.333,15.076"/>
<path fill="none" stroke="#000000" stroke-linecap="round" stroke-miterlimit="10" d="M154.463,300.097c0,0-7.333-52.259,27-81.63"
	/>
<path fill="none" stroke="#000000" stroke-linecap="round" stroke-miterlimit="10" d="M132.463,289.097
	c0,0,3.738-42.193,14.674-51.614"/>
<line fill="none" stroke="#000000" stroke-linecap="round" stroke-miterlimit="10" x1="127.13" y1="251.763" x2="139.8" y2="240.097"/>
<line fill="none" stroke="#000000" stroke-linecap="round" stroke-miterlimit="10" x1="112.463" y1="240.097" x2="122.955" y2="234.426"/>
<path fill="none" stroke="#000000" stroke-width="3" stroke-linecap="round" stroke-miterlimit="10" d="M35.13,133.764
	c0,0-2,9.667,23.333,50.333c0,0,0,14.667,0,17.667c0,0,9,20.666,19.333,25c0,0,31.167,7.814,30.5-11.519"/>
<path fill="none" stroke="#000000" stroke-linecap="round" stroke-miterlimit="10" d="M9.13,208.097c0,0,23-8.659,49-2.996"/>
<path fill="none" stroke="#000000" stroke-linecap="round" stroke-miterlimit="10" d="M18.797,161.764c0,0,18.333,10.666,32,13.333"
	/>
<path fill="none" stroke="#000000" stroke-linecap="round" stroke-miterlimit="10" d="M177.463,237.262
	c0,0,22.001-36.6,50.667-40.216"/>
<path fill="none" stroke="#000000" stroke-linecap="round" stroke-miterlimit="10" d="M173.13,73.102c0,0,15.334-7.262,29.667-4.964
	"/>
<path fill="none" stroke="#000000" stroke-linecap="round" stroke-miterlimit="10" d="M205.463,71.769
	c0,0-17.666,0.333-22.333,1.333"/>
<path fill="none" stroke="#000000" stroke-linecap="round" stroke-miterlimit="10" d="M317.796,100.436
	c0,0-11.999,6.492-23.666-3.587"/>
<path fill="none" stroke="#000000" stroke-linecap="round" stroke-miterlimit="10" d="M290.463,205.638
	c-0.333-0.206-2.667-14.273-15-24.406c0,0-3.973-1.337-3.486-9.235"/>
<path fill="none" stroke="#000000" stroke-linecap="round" stroke-miterlimit="10" d="M269.13,192.432c0,0-1.334-6-7.667-6.333"/>
<path fill="none" stroke="#000000" stroke-linecap="round" stroke-miterlimit="10" d="M233.713,196.059
	c0,0-2.25-15.125,10.375-16.125s10-0.75,10-0.75s2.5-0.875,5.375,4.875"/>
<path fill="none" stroke="#000000" stroke-linecap="round" stroke-miterlimit="10" d="M105.713,203.179c0,0-8.25,5.255-17.875,8.255
	c0,0-6.375,0.691-4.375,7.033l3.5,8.842"/>
<path fill="none" stroke="#000000" stroke-linecap="round" stroke-miterlimit="10" d="M127.13,234.809l0.833-13.75
	c0,0,0.875-2.75,6.875-3.625c0,0,10.375-3.75,14.875-3.25c0,0,4.625-0.797,6.5,10.289"/>
<path fill="none" stroke="#000000" stroke-linecap="round" stroke-miterlimit="10" d="M365.13,14.101c0,0-14.334,7.333-12.5,33"/>
<path fill="none" stroke="#000000" stroke-width="3" stroke-linecap="round" stroke-miterlimit="10" d="M422.797,192.432"/>
</svg>
