<?xml version="1.0" encoding="utf-8"?>
<!-- Generator: Adobe Illustrator 16.0.0, SVG Export Plug-In . SVG Version: 6.00 Build 0)  -->
<!DOCTYPE svg PUBLIC "-//W3C//DTD SVG 1.1//EN" "http://www.w3.org/Graphics/SVG/1.1/DTD/svg11.dtd">
<svg version="1.1" id="Calque_1" xmlns="http://www.w3.org/2000/svg" xmlns:xlink="http://www.w3.org/1999/xlink" x="0px" y="0px"
	 width="392px" height="517.438px" viewBox="0 0 392 517.438" enable-background="new 0 0 392 517.438" xml:space="preserve">
<g id="Calque_1_1_" display="none">
	
		<image display="inline" overflow="visible" enable-background="new    " width="392" height="517" xlink:href="c.jpg"  transform="matrix(1 0 0 1 2.441406e-004 7.324219e-004)">
	</image>
</g>
<g id="Calque_2">
	<path fill="none" stroke="#000000" stroke-width="3" stroke-linecap="round" stroke-miterlimit="10" d="M71.5,517.001l-27.5-90.5
		c0,0-5.5-29.501,0-43.001S87.5,162,87.5,162s2.25-11,7-19.25s5.25-8.5,8-15S110,106,110,106l13.75-54c0,0,1.878-8.028,9.25-9.5
		c7.605-1.518,65.5-22.25,65.5-22.25s11.25-3,16.5,0s41.5,12.25,41.5,12.25l12.5,4.75c0,0,10.25,5.5,7.25,15.75s-11,14.25-11,14.25
		l-11,3l-4.374,1.712L214,86c0,0-8.75,4.5-13.25,12.75s-16.75,30-16.75,30l-9.5,19c0,0-5.5,16.5-11.5,19.25"/>
	<path fill="none" stroke="#000000" stroke-width="3" stroke-linecap="round" stroke-miterlimit="10" d="M136.5,116.75
		c0,0,1.604-19,22.678-30.75S185.5,65.25,185.5,65.25s15.25-13.75,22.5-14.5c2.643-0.272,7.511-2.208,12.631-4.556
		c8.927-4.093,18.619-9.444,18.619-9.444s17.25-7.25,19.5,8.75S252,69,252,69l-1.39,2.674"/>
	<path fill="none" stroke="#000000" stroke-linecap="round" stroke-miterlimit="10" d="M235,47.5c0,0-9,4-14,0"/>
	<path fill="none" stroke="#000000" stroke-linecap="round" stroke-miterlimit="10" d="M247.5,41.5c0,0,0-1.75-1.5-4.75"/>
	<polyline fill="none" stroke="#000000" stroke-width="3" stroke-linecap="round" stroke-miterlimit="10" points="172.75,75.931 
		162,75.931 165.75,79.25 	"/>
	
		<line fill="none" stroke="#000000" stroke-linecap="round" stroke-miterlimit="10" x1="245.072" y1="29.5" x2="243.25" y2="35.111"/>
	<path fill="none" stroke="#000000" stroke-linecap="round" stroke-miterlimit="10" d="M272.375,41.5c0,0-0.625,3.777-4,6.89"/>
	<path fill="none" stroke="#000000" stroke-width="3" stroke-linecap="round" stroke-miterlimit="10" d="M287.75,75.931"/>
	<path fill="none" stroke="#000000" stroke-width="3" stroke-linecap="round" stroke-miterlimit="10" d="M294.25,44.944"/>
	<path fill="none" stroke="#000000" stroke-linecap="round" stroke-miterlimit="10" d="M266.5,35.112"/>
	<path fill="none" stroke="#000000" stroke-linecap="round" stroke-miterlimit="10" d="M269.244,26.142"/>
	<path fill="none" stroke="#000000" stroke-width="3" stroke-linecap="round" stroke-miterlimit="10" d="M296.115,44.944
		c0,0,4.601,18.3-10,21.75c-15.739,3.72-11.75,3-13,2.75s-16.098-0.609-16.098-0.609"/>
	<path fill="none" stroke="#000000" stroke-width="3" stroke-linecap="round" stroke-miterlimit="10" d="M184,128.75
		c0,0,9,6.579,4,28.913s-6.333,23.667-6.333,23.667l37,44.667c0,0,22,5,47.833-8s52.166-28,52.166-28s27-11.333,42.334-8.333
		c15.332,3,21-0.333,26,17.333s-21.088,24.441-16.334,22c5.297-2.719-53.334,29-53.334,29l-32.68,16c0,0-14.653,9.664-23.319,19.33
		c0,0-11.999,7-13.666,8.333s-39.334,47-39.334,47s-25,27.995-34,31.329s-6.333,20-6.333,21s-1.333,67.331,24,121.331"/>
	<path fill="none" stroke="#000000" stroke-linecap="round" stroke-miterlimit="10" d="M116.333,384.312
		c0,0,17.012,8.788,38.492-11.261c1.432-1.338,2.884-2.803,4.353-4.406"/>
	<path fill="none" stroke="#000000" stroke-linecap="round" stroke-miterlimit="10" d="M164.333,377.437
		c0,0-3.997-5.365-11.332-2.745"/>
	<path fill="none" stroke="#000000" stroke-linecap="round" stroke-miterlimit="10" d="M145,342.98c0,0,13.667-9.668,18.667-26.334
		s3.964-23.666,3.964-23.666l0.089-21.667l1.947-47.333c0,0,3.667-24.667,7-29.333s3.333-35.333,0-46.667"/>
</g>
<path fill="none" stroke="#000000" stroke-width="3" stroke-linecap="round" stroke-miterlimit="10" d="M134.25,41.5
	c0,0,8-15.281,10.75-18.781c0,0,8.105-5.5,14.178-6l77.072-9.25c0,0,7-0.75,11.25,3.75c0,0,26.364,25.226,48.614,33.726"/>
<path fill="none" stroke="#000000" stroke-linecap="round" stroke-miterlimit="10" d="M266.5,29.5c0,0-0.5,3.881,0,6.8"/>
<path fill="none" stroke="#000000" stroke-linecap="round" stroke-miterlimit="10" d="M294.25,44.944c0,0-1.916,2.774-3.916,6.274
	c0,0-0.708,0.834-2.667,0.417c0,0-5.083-2.583-6.125-2.625"/>
</svg>
