<?xml version="1.0" encoding="utf-8"?>
<!-- Generator: Adobe Illustrator 16.0.0, SVG Export Plug-In . SVG Version: 6.00 Build 0)  -->
<!DOCTYPE svg PUBLIC "-//W3C//DTD SVG 1.1//EN" "http://www.w3.org/Graphics/SVG/1.1/DTD/svg11.dtd">
<svg version="1.1" id="Calque_1" xmlns="http://www.w3.org/2000/svg" xmlns:xlink="http://www.w3.org/1999/xlink" x="0px" y="0px"
	 width="270px" height="546.617px" viewBox="0 0 270 546.617" enable-background="new 0 0 270 546.617" xml:space="preserve">
<g id="Calque_1_1_" display="none">
	
		<image display="inline" overflow="visible" enable-background="new    " width="270" height="546" xlink:href="d.jpg"  transform="matrix(1 0 0 1 4.882813e-004 7.324219e-004)">
	</image>
</g>
<g id="Calque_2">
	<path fill="none" stroke="#000000" stroke-width="3" stroke-linecap="round" stroke-miterlimit="10" d="M27.25,546.001
		c0,0-16.25-36-15.75-82.5C12,417,11.489,376,11.489,376s5.261-68.25,6.261-70s3.984-32.578,6.25-41
		c2.408-8.952,3.833-16.025,3.833-16.025s4.5-16.265,23.311-29.852"/>
	<path fill="none" stroke="#000000" stroke-width="3" stroke-linecap="round" stroke-miterlimit="10" d="M49.5,221
		c0,0,4.489-5.7,6.75-10c2.356-4.48,26.5-39.75,26.5-39.75s6-12.75,24.25-10.25s61.25,23.25,61.25,23.25s10,6.75,14,14.5
		s28.25,38.75,28.25,38.75s1.553,2.41,2.503,5.669c1.103,3.782,1.392,8.706-2.503,12.331c-7.25,6.75-15.75,4.25-19.75,4.25
		s-8.146-1.543-8.146-1.543"/>
	<path fill="none" stroke="#000000" stroke-linecap="round" stroke-miterlimit="10" d="M198.75,247.25
		c0,0,12.006,2.338,14.253-4.081"/>
	<path fill="none" stroke="#000000" stroke-linecap="round" stroke-miterlimit="10" d="M193.5,245.417L185,228.75
		c0,0-2.5-16,8.5-12.5"/>
	<path fill="none" stroke="#000000" stroke-width="3" stroke-linecap="round" stroke-miterlimit="10" d="M234.5,231.75l-12.25-23
		c-9.375-38.441-18.417-38.608-18.417-38.608S160.25,149.75,149.5,144s-27,0-27,0L106,160.676"/>
	<path fill="none" stroke="#000000" stroke-linecap="round" stroke-miterlimit="10" d="M219.75,239.25c0,0,4.379,0.583,14.129-8.667
		"/>
	<path fill="none" stroke="#000000" stroke-linecap="round" stroke-miterlimit="10" d="M216.75,235.566c0,0-8.25-12.066-4.75-24.066
		s12.049,0.628,11.148-1.061"/>
	<path fill="none" stroke="#000000" stroke-width="3" stroke-linecap="round" stroke-miterlimit="10" d="M139.75,141.444L142,47.25
		c0,0-1.5-24.5-3.75-29.75s-13.563-13.129-15.5-13.25c-0.899-0.056-9.125-3.504-14,7l-1.083,21.254c0,0-2.417,10.496-3.167,20.246
		s-1.25,18-1.25,18s-11.387,51.818-12.75,55.5c-1.167,3.154-1.766,38.428-1.766,38.428"/>
	<path fill="none" stroke="#000000" stroke-width="3" stroke-linecap="round" stroke-miterlimit="10" d="M60,234.92"/>
	<path fill="none" stroke="#000000" stroke-width="3" stroke-linecap="round" stroke-miterlimit="10" d="M62,234.92
		c0,0-2.544-17.531,24.667-22.92c19.625-4.358,19.333-3.667,19.333-3.667h25.611c0,0,13.584,2.492,25.722,15.333
		c12.917,13.667,21,11.515,25.667,15.59c0,0,11.375,7.368,0,17.993"/>
	<path fill="none" stroke="#000000" stroke-width="3" stroke-linecap="round" stroke-miterlimit="10" d="M166.75,262.875
		c0,0,10.77,0.767,16.697-6.055"/>
	<path fill="none" stroke="#000000" stroke-width="3" stroke-linecap="round" stroke-miterlimit="10" d="M166.75,262.875
		c0,0-10.75,0.5-19.375-5.625s-18.875-8.625-18.875-8.625s-12.25-3.125-18.375,2.25s-15.25,11-15.25,11s-6.625,2.5-7.5,2.5"/>
	<path fill="none" stroke="#000000" stroke-linecap="round" stroke-miterlimit="10" d="M94.75,262.901c0,0-19.5,37.599-46.25,37.099
		"/>
	<path fill="none" stroke="#000000" stroke-linecap="round" stroke-miterlimit="10" d="M42.75,341c0,0,18.25,7,53.5-35.75"/>
	<path fill="none" stroke="#000000" stroke-linecap="round" stroke-miterlimit="10" d="M179.75,308.5c0,0-4.875-11.75,0.625-22.75"
		/>
	<path fill="none" stroke="#000000" stroke-linecap="round" stroke-miterlimit="10" d="M214.75,307c0,0-9.682-2.507-13.182-19.257"
		/>
	<path fill="none" stroke="#000000" stroke-linecap="round" stroke-miterlimit="10" d="M197.5,271.5c-3-8.25,5.75,5.25,4,16.75"/>
	<path fill="none" stroke="#000000" stroke-width="3" stroke-linecap="round" stroke-miterlimit="10" d="M180.375,285.75H160.5
		c-4.5-2.024-8.63-25.89-8.63-25.89"/>
	<path fill="none" stroke="#000000" stroke-width="3" stroke-linecap="round" stroke-miterlimit="10" d="M203.25,260.203
		c0,0-12.375,21.422-22.875,25.922"/>
	<path fill="none" stroke="#000000" stroke-linecap="round" stroke-miterlimit="10" d="M159.813,226.156
		c0,0-8.563,8.678,10.438,19.261"/>
	<path fill="none" stroke="#000000" stroke-linecap="round" stroke-miterlimit="10" d="M184.756,240.73c0,0-4.951,0.963-6.229,6.991
		"/>
	<path fill="none" stroke="#000000" stroke-linecap="round" stroke-miterlimit="10" d="M132.908,249.984
		c0,0-1.786,14.88-7.912,21.016c-6.126,6.137-6.996,27-12.663,36S106,349,106,349"/>
	<path fill="none" stroke="#000000" stroke-width="3" stroke-linecap="round" stroke-miterlimit="10" d="M213.003,251.854
		l22.331-19.144c0,0,22-6.246,28.333,2.856c6.333,9.101,2.595,15.482,0,21.684c-5.167,9.059-8.5,16.059-8.5,16.059
		s-3.833,6.333-6.167,14.435c-0.531,2.127-3.333,6.591-3.333,6.591l-22.452,31.333c0,0-8.047,16.668-12.881,20.834
		S196.166,361.667,195,364.334s-13.833,31.167-13.833,31.167s-10.499,21.515-13.833,24.515S149,443.863,149,443.863
		s-17.166,21.524-3.666,55.524S160,546.001,160,546.001"/>
	<path fill="none" stroke="#000000" stroke-linecap="round" stroke-miterlimit="10" d="M119.454,426.333c0,0-3.121,49.666-59.788,49
		"/>
	<path fill="none" stroke="#000000" stroke-linecap="round" stroke-miterlimit="10" d="M117.667,394c0,0-3,26.999,29.667,48.333"/>
</g>
</svg>
