<?xml version="1.0" encoding="utf-8"?>
<!-- Generator: Adobe Illustrator 16.0.0, SVG Export Plug-In . SVG Version: 6.00 Build 0)  -->
<!DOCTYPE svg PUBLIC "-//W3C//DTD SVG 1.1//EN" "http://www.w3.org/Graphics/SVG/1.1/DTD/svg11.dtd">
<svg version="1.1" id="Calque_1" xmlns="http://www.w3.org/2000/svg" xmlns:xlink="http://www.w3.org/1999/xlink" x="0px" y="0px"
	 width="469.166px" height="535px" viewBox="0 0 469.166 535" enable-background="new 0 0 469.166 535" xml:space="preserve">
<g id="Calque_1_1_" display="none">
	
		<image display="inline" overflow="visible" enable-background="new    " width="364" height="535" xlink:href="e.jpg"  transform="matrix(1 0 0 1 50.5002 2.441406e-004)">
	</image>
</g>
<g id="Calque_2">
	<path fill="none" stroke="#000000" stroke-width="3" stroke-linecap="round" stroke-miterlimit="10" d="M194.011,468.332v-55.5
		c0,0-11-48-21.5-59s-35.5-88.5-41-113s-8-75.5,0-90s0.5-62.5,0.5-62.5s-1-20.5,17.5-26c0,0,18.5-6.5,20.5,0s13,46.5,13,46.5
		s4,13-7.5,17.5s-22.5-4.5-23.5-9.5c-0.533-2.668-3.01-7.158-5.989-11.237c-2.604-3.564-5.594-6.814-8.011-8.263"/>
	<path fill="none" stroke="#000000" stroke-width="3" stroke-linecap="round" stroke-miterlimit="10" d="M-0.989,116.833"/>
	<path fill="none" stroke="#000000" stroke-linecap="round" stroke-miterlimit="10" d="M146.558,106.348
		c0,0-7.713,2.317-11.38-1.683"/>
	<path fill="none" stroke="#000000" stroke-linecap="round" stroke-miterlimit="10" d="M158.511,114.333
		c0,0,11.333,5.333,20.667-2.667"/>
	<path fill="none" stroke="#000000" stroke-linecap="round" stroke-miterlimit="10" d="M156.511,111.666V99.333
		c0,0-0.333-10.333,8.333-10.333s6.613,3.374,7.333,5.667c0.713,2.272,1.333,11.175,1.333,11.175"/>
	<path fill="none" stroke="#000000" stroke-width="3" stroke-linecap="round" stroke-miterlimit="10" d="M166.511,59.443
		c0,0-3.667-26.773,19-29.773s20.333,2,20.333,2s0.625,31.288,6,44.333c0,0,7.061,11.768,13.667,19c0,0,11,16.664-6,29
		c-11.525,8.363-24.107,10.661-35.828-10.132"/>
	<path fill="none" stroke="#000000" stroke-linecap="round" stroke-miterlimit="10" d="M194.011,119.67
		c0,0,15.834,7.327,27.167-8.003"/>
	<path fill="none" stroke="#000000" stroke-linecap="round" stroke-miterlimit="10" d="M194.011,113.871
		c0,0-5.22-21.201,2.641-26.868s14.193-0.667,15.193,0s6,10.327,6,13.33"/>
	<path fill="none" stroke="#000000" stroke-width="3" stroke-linecap="round" stroke-miterlimit="10" d="M227.011,99.099
		l14.834,24.903c0,0,12.999,12.067,31.666-10.132c0,0,4.666-3.201,3-17.534s-3.239-13.85-8.666-34.333
		c-6.834-25.796-2.001-30.333-3.334-34.667s-7.666-19.667-26.666-20s-21.5,3.417-30.25,21.375"/>
	<path fill="none" stroke="#000000" stroke-width="3" stroke-linecap="round" stroke-miterlimit="10" d="M265.678,26.333
		c38.501-25.333,55.999,16.5,55.999,16.5s0.459,1.891,1.127,4.958c0.088,0.405,0.18,0.832,0.273,1.275
		c2.023,9.485,5.432,27.565,4.6,38.267c-1.166,15,8.834,59.662,12.5,74.995"/>
	<path fill="none" stroke="#000000" stroke-width="3" stroke-linecap="round" stroke-miterlimit="10" d="M321.177,48.997
		c0,0-0.083,10.447,4,41.261c0.071,32.936-14.708,37.659-14.708,37.659s-7.626,6.829-23.625-14.045
		c-16-20.874-8.416-11.145-8.416-11.145"/>
	<path fill="none" stroke="#000000" stroke-linecap="round" stroke-miterlimit="10" d="M143.844,138.663
		c0,0,15.896-2.096,22.447-8.882"/>
	<path fill="none" stroke="#000000" stroke-linecap="round" stroke-miterlimit="10" d="M265.678,98.663l-5.917-9.205l-3.588-2.476
		c0,0-20.138-4.427-13.94,18.681c3.903,14.556,3.909,13.648,3.909,13.648c1.692,0.557,16.869,1.032,22.702-9.441"/>
	<path fill="none" stroke="#000000" stroke-linecap="round" stroke-miterlimit="10" d="M318.511,108.666
		c0,0,0.018,21.75-17.536,11.997l-1.298-1.83l-7.275-14.315l-0.891-1.676c0,0-0.062-1.107,0.065-2.698
		c0.459-5.791,3.415-17.986,20.935-6.48c0,0,3.332,3.689,3.666,9.179"/>
	<path fill="none" stroke="#000000" stroke-linecap="round" stroke-miterlimit="10" d="M210.844,218.333c0,0-4.666-10.667,40-35.333
		s27.802-18,75.566-30.667"/>
	<path fill="none" stroke="#000000" stroke-linecap="round" stroke-miterlimit="10" d="M242.233,285c0,0-7.42-61.334,49.263-110"/>
	<path fill="none" stroke="#000000" stroke-linecap="round" stroke-miterlimit="10" d="M192.313,363c0,0,15.975,7.332,49.92-33.334"
		/>
	<path fill="none" stroke="#000000" stroke-linecap="round" stroke-miterlimit="10" d="M254.947,329.666
		c0,0,19.232,27.182,59.898,16.924"/>
	<path fill="none" stroke="#000000" stroke-linecap="round" stroke-miterlimit="10" d="M340.177,191c0,0,14.668-16-9.332-22.667"/>
	<path fill="none" stroke="#000000" stroke-linecap="round" stroke-miterlimit="10" d="M318.529,191c0,0-16.667-0.172-17.554-16"/>
	<path fill="none" stroke="#000000" stroke-linecap="round" stroke-miterlimit="10" d="M133.261,195.083c0,0,4-12,40.25-10.5
		s58-22.254,58-22.254s24.5-14.496,29.5-14.496"/>
	<path fill="none" stroke="#000000" stroke-width="3" stroke-miterlimit="10" d="M368.073,149.012c0,0-16.508,14.979-67.098,24.57"
		/>
	<path fill="none" stroke="#000000" stroke-width="3" stroke-linecap="round" stroke-miterlimit="10" d="M367.261,211
		c0,0-9.25,12-32.166,1.667c-0.938-0.422-1.832-0.819-2.687-1.19c-20.015-8.721-17.632-3.932-22.658-6.81
		c-5.239-3-22.975-12.774-8.775-31.083c0,0,43.286-7,66.286-24s41.25,28.749,43.75,99.249c0,0,4,20.5-26,34
		s-49.916,46.834-49.916,46.834s-17.584,10.166-11.084,57.166s2.084,64.705,11.084,76.705"/>
	<path fill="none" stroke="#000000" stroke-width="3" stroke-linecap="round" stroke-miterlimit="10" d="M468.177,325"/>
	<path fill="none" stroke="#000000" stroke-width="3" stroke-linecap="round" stroke-miterlimit="10" d="M341.843,230"/>
	<path fill="none" stroke="#000000" stroke-linecap="round" stroke-miterlimit="10" d="M329.902,210.404
		c0,0,8.275,5.93,11.941,19.596c3.668,13.666,10.415,11.333,11.541,13"/>
	<path fill="none" stroke="#000000" stroke-linecap="round" stroke-miterlimit="10" d="M348.843,218.333c0,0-0.998,8,8.334,11.667"
		/>
	<path fill="none" stroke="#000000" stroke-width="3" stroke-linecap="round" stroke-miterlimit="10" d="M201.389,180.641"/>
	<path fill="none" stroke="#000000" stroke-width="3" stroke-linecap="round" stroke-miterlimit="10" d="M291.494,249.666"/>
	<path fill="none" stroke="#000000" stroke-width="3" stroke-linecap="round" stroke-miterlimit="10" d="M332.408,211.476
		c-20.015-8.721-15.992-3.726-22.658-6.81"/>
</g>
</svg>
