<?xml version="1.0" encoding="utf-8"?>
<!-- Generator: Adobe Illustrator 16.0.0, SVG Export Plug-In . SVG Version: 6.00 Build 0)  -->
<!DOCTYPE svg PUBLIC "-//W3C//DTD SVG 1.1//EN" "http://www.w3.org/Graphics/SVG/1.1/DTD/svg11.dtd">
<svg version="1.1" id="Calque_1" xmlns="http://www.w3.org/2000/svg" xmlns:xlink="http://www.w3.org/1999/xlink" x="0px" y="0px"
	 width="459.846px" height="276.602px" viewBox="0 0 459.846 276.602" enable-background="new 0 0 459.846 276.602"
	 xml:space="preserve">
<image display="none" overflow="visible" enable-background="new    " width="577" height="526" xlink:href="g.jpg"  transform="matrix(1 0 0 1 -6.8098 -9.7239)">
</image>
<path fill="none" stroke="#000000" stroke-width="3" stroke-linecap="round" stroke-miterlimit="10" d="M458.845,267.268
	c0,0-19.995-50.996-28.661-75.996s-29-49.667-29-49.667S277.19,19.275,263.857,7.608s-26.333-4.333-26.333-4.333l-23.333,8.667
	c-60.333,26.667-207.667,15-207.667,15s-8.606,6.269-4.333,13.67c15.076,26.118,51.835,28.83,51.835,28.83l138.833,4.833
	l8.831-9.071"/>
<path fill="none" stroke="#000000" stroke-width="3" stroke-linecap="round" stroke-miterlimit="10" d="M343.178,275.601
	c0,0-17-42-21-47.333"/>
<path fill="none" stroke="#000000" stroke-width="3" stroke-linecap="round" stroke-miterlimit="10" d="M334.845,234.602
	c0,0-4-9.667-33-11"/>
<path fill="none" stroke="#000000" stroke-width="3" stroke-linecap="round" stroke-miterlimit="10" d="M302.107,223.649
	c-18.333,1-40.262-14.048-40.262-14.048s-13.655-11.952-35.53-11.952s-27.75,0-27.75,0s-40.875,4.672-64.25,13.022L87.44,224.525
	c0,0-20,9.875-20.5-20.125s42.5-41.625,43.5-42.375s23.25-9.5,52.875-13.625s46.375-15.375,48.75-19.125
	c0,0,3.25-2.875,3.875-14.125s3.5-20.125,6.5-23.375s9.25-19.875,9.25-19.875s1.71-3.455,3.361-6.696
	c1.44-2.83,2.839-5.496,3.014-5.554"/>
<path fill="none" stroke="#000000" stroke-width="3" stroke-linecap="round" stroke-miterlimit="10" d="M66.94,206.15"/>
<path fill="none" stroke="#000000" stroke-linecap="round" stroke-miterlimit="10" d="M231.19,50.9c0,0,4.348,5.983,3.861,14.304"/>
<path fill="none" stroke="#000000" stroke-linecap="round" stroke-miterlimit="10" d="M216.94,75.65c0,0,7.382-3.046,10.628,6.415"
	/>
<path fill="none" stroke="#000000" stroke-linecap="round" stroke-miterlimit="10" d="M217.318,104.427
	c0,0-25.878-13.402-41.378,18.098"/>
<path fill="none" stroke="#000000" stroke-linecap="round" stroke-miterlimit="10" d="M183.079,111.642
	c-0.065,0.833,0.563-5.42-2.139-8.617c-0.066-0.079-0.185-0.093-0.275-0.14c-14.618-7.527-25.975-20.82-25.975-20.82"/>
<path fill="none" stroke="#000000" stroke-linecap="round" stroke-miterlimit="10" d="M197.857,82.775c0,0-2,16.5-21.917,16.333"/>
<line fill="none" stroke="#000000" stroke-linecap="round" stroke-miterlimit="10" x1="197.857" y1="79.525" x2="193.103" y2="74.025"/>
<path fill="none" stroke="#000000" stroke-linecap="round" stroke-miterlimit="10" d="M35.315,29.337c0,0,0.938,4.25-17.563,3.813"
	/>
<line fill="none" stroke="#000000" stroke-linecap="round" stroke-miterlimit="10" x1="14.877" y1="33.65" x2="10.502" y2="27.9"/>
<path fill="none" stroke="#000000" stroke-linecap="round" stroke-miterlimit="10" d="M104.19,192.941c0,0,16.723,4.667,5.528,25"/>
<path fill="none" stroke="#000000" stroke-linecap="round" stroke-miterlimit="10" d="M81.856,197.941c0,0-13.667,10.987-3,25.66"/>
<path fill="none" stroke="#000000" stroke-width="3" stroke-linecap="round" stroke-miterlimit="10" d="M117.523,88.941
	l13.333,23.118c8.333,27.785,23.833,36.908,23.833,36.908v0.792"/>
<path fill="none" stroke="#000000" stroke-width="3" stroke-linecap="round" stroke-miterlimit="10" d="M116.423,71.525
	c0,0-7.566,1.688,1.101,17.416"/>
<path fill="none" stroke="#000000" stroke-linecap="round" stroke-miterlimit="10" d="M156.94,198.9c0,0,2.25-4.125-3.375-15.25"/>
<path fill="none" stroke="#000000" stroke-width="3" stroke-linecap="round" stroke-miterlimit="10" d="M-244.81,128.275"/>
<path fill="none" stroke="#000000" stroke-width="3" stroke-linecap="round" stroke-miterlimit="10" d="M-189.696-76.118"/>
<path fill="none" stroke="#000000" stroke-width="3" stroke-linecap="round" stroke-miterlimit="10" d="M0-127.725"/>
</svg>
