<?xml version="1.0" encoding="utf-8"?>
<!-- Generator: Adobe Illustrator 16.0.0, SVG Export Plug-In . SVG Version: 6.00 Build 0)  -->
<!DOCTYPE svg PUBLIC "-//W3C//DTD SVG 1.1//EN" "http://www.w3.org/Graphics/SVG/1.1/DTD/svg11.dtd">
<svg version="1.1" id="Calque_1" xmlns="http://www.w3.org/2000/svg" xmlns:xlink="http://www.w3.org/1999/xlink" x="0px" y="0px"
	 width="167.843px" height="139.97px" viewBox="0 0 167.843 139.97" enable-background="new 0 0 167.843 139.97"
	 xml:space="preserve">
<image display="none" overflow="visible" width="596" height="498" xlink:href="h.jpg"  transform="matrix(0.2813 0 0 0.2813 -0.7817 -1.0928)">
</image>
<path fill="none" stroke="#000000" stroke-width="2" stroke-linecap="round" stroke-miterlimit="10" d="M166.843,109.907
	c0,0-31.875-55.5-37.375-69c0,0-2.25-10.25-35.75-27.5c0,0-10.25-5.875-25.625-7.875L45.968,1.657c0,0-2.187-0.523-6.292-0.625
	H20.616c0,0-7.085-0.648-7.793,3.893c0,0-1.977,4.624,5.148,5.291S34.179,12.8,34.179,12.8l16.164,3.857"/>
<path fill="none" stroke="#000000" stroke-width="2" stroke-linecap="round" stroke-miterlimit="10" d="M93.468,15.074
	c0,0-13.833,4.333-30.5,3.833c0,0-0.75,0-3.083-1s-5.667-3.75-5.667-3.75s-2.438-2.188-3.688,1.344c0,0,0.521,8.49,5.897,12.375
	c0.044,0.032,0.089,0.063,0.134,0.094c0,0,3.823,5.146,13.781,5.146h14.125"/>
<path fill="none" stroke="#000000" stroke-linecap="round" stroke-miterlimit="10" d="M89.707,27.574c0,0-0.072,3.083-5.155,5.167"
	/>
<path fill="none" stroke="#000000" stroke-width="2" stroke-linecap="round" stroke-miterlimit="10" d="M56.719,33.116
	L11.053,19.658c0,0-2.918-0.709-5.459-0.875c0,0-5.338-1.548-4.505-5.048s1.46-4.876,2.833-5.055
	C5.677,8.45,11.586,8.178,13.961,8.97"/>
<path fill="none" stroke="#000000" stroke-width="2" stroke-linecap="round" stroke-miterlimit="10" d="M57.093,33.595
	c0,0-4.813,2.938-5.125,7.688s4.938,7.25,7.125,7.688"/>
<path fill="none" stroke="#000000" stroke-width="3" stroke-linecap="round" stroke-miterlimit="10" d="M57.281,33.116
	c0,0,4.724-0.492,6.938-0.375"/>
<path fill="none" stroke="#000000" stroke-width="2" stroke-linecap="round" stroke-miterlimit="10" d="M129.593,138.97
	c0,0-16-49.938-25-61.438l-3.291-4.708"/>
<path fill="none" stroke="#000000" stroke-linecap="round" stroke-miterlimit="10" d="M114.468,63.741c0,0-6.832,8.416-13.166,8.75"
	/>
<line fill="none" stroke="#000000" stroke-width="2" stroke-linecap="round" stroke-miterlimit="10" x1="100.718" y1="72.49" x2="98.552" y2="70.074"/>
<path fill="none" stroke="#000000" stroke-width="2" stroke-linecap="round" stroke-miterlimit="10" d="M104.385,65.157
	c0,0,0.183,3.585-6.484,4.335c0,0-6.516,1.249-12.766-1.751c0,0-3.834,0.5-4.417-1.917"/>
<path fill="none" stroke="#000000" stroke-width="2" stroke-linecap="round" stroke-miterlimit="10" d="M80.718,66.574
	c0,0-5,1.25-10.667-2.167c0,0-6-1.57-7.667-4.237c0,0-4.417-5.583-2.042-11.583"/>
<path fill="none" stroke="#000000" stroke-width="2" stroke-linecap="round" stroke-miterlimit="10" d="M66.125,58.345
	c0,0,5.594,0.281,8.625-1.438c0,0,3.221-0.73,4.313-0.813c10.33-0.776,12.719-6.531,12.719-6.531
	c1.031-3.969-2.396-3.741-2.396-3.741l-8.667,0.015c-2.917-0.167-9.417,1.151-9.417,1.151l-7.896,0.015
	c-1.479-0.167-3.063,1.083-3.063,1.083"/>
<path fill="none" stroke="#000000" stroke-linecap="round" stroke-miterlimit="10" d="M28.86,9.657c0,0-0.517-3.25,1.108-4.375"/>
<path fill="none" stroke="#000000" stroke-linecap="round" stroke-miterlimit="10" d="M42.468,12.657c0,0-1.5-2.375,1-7.375"/>
<path fill="none" stroke="#000000" stroke-linecap="round" stroke-miterlimit="10" d="M35.718,17.032c0,0-1.375,3.25-1.375,7.125"/>
<path fill="none" stroke="#000000" stroke-linecap="round" stroke-miterlimit="10" d="M65.343,8.513c0,0-4.528,5.394-5.702,8.519"/>
<path fill="none" stroke="#000000" stroke-linecap="round" stroke-miterlimit="10" d="M78.218,11.157c0,0,1,3.25,0.875,5.875"/>
<path fill="none" stroke="#000000" stroke-linecap="round" stroke-miterlimit="10" d="M116.343,50.032c0,0,2.25-1.5,3.875,0.875"/>
<path fill="none" stroke="#000000" stroke-linecap="round" stroke-miterlimit="10" d="M112.968,49.565
	c0,0-12.125,3.592-22.375-4.783"/>
<path fill="none" stroke="#000000" stroke-linecap="round" stroke-miterlimit="10" d="M100.718,28.282c0,0-5.988,3.5-8.744,3.75
	c0,0-1.881,0.375-3.881,1.563"/>
<path fill="none" stroke="#000000" stroke-width="2" stroke-linecap="round" stroke-miterlimit="10" d="M91.974,39.945
	c0,0-0.422-4.392-7.506-6.83"/>
<path fill="none" stroke="#000000" stroke-width="2" stroke-linecap="round" stroke-miterlimit="10" d="M88.968,44.782
	c0,0,3.512-1.049,3.006-4.837"/>
<path fill="none" stroke="#000000" stroke-linecap="round" stroke-miterlimit="10" d="M90.496,42.364c0,0-2.152,1.707-5.027,0
	c0,0-0.334-4.957-0.917-5.832c0,0,0.562-1.522,2.177-1.011"/>
<path fill="none" stroke="#000000" stroke-linecap="round" stroke-miterlimit="10" d="M89.707,50.907c0,0-2.488,0.75-4.238,0
	c0,0-1.209-3.625-0.917-4s0.292-0.375,0.292-0.375l2.263-0.706"/>
<path fill="none" stroke="#000000" stroke-linecap="round" stroke-miterlimit="10" d="M74.843,63.741c0,0,2.5-2.708,2.25-6.583"/>
<path fill="none" stroke="#000000" stroke-linecap="round" stroke-miterlimit="10" d="M71.218,58.362c0,0-0.5,2.795-2.5,3.17"/>
<path fill="none" stroke="#000000" stroke-linecap="round" stroke-miterlimit="10" d="M54.218,20.595c0,0-0.167-4.604-1.667-6.104"
	/>
<path fill="none" stroke="#000000" stroke-linecap="round" stroke-miterlimit="10" d="M56.385,21.574c0,0,6.76,2.736,5.417-1.75"/>
</svg>
