<?xml version="1.0" encoding="utf-8"?>
<!-- Generator: Adobe Illustrator 16.0.0, SVG Export Plug-In . SVG Version: 6.00 Build 0)  -->
<!DOCTYPE svg PUBLIC "-//W3C//DTD SVG 1.1//EN" "http://www.w3.org/Graphics/SVG/1.1/DTD/svg11.dtd">
<svg version="1.1" id="Calque_1" xmlns="http://www.w3.org/2000/svg" xmlns:xlink="http://www.w3.org/1999/xlink" x="0px" y="0px"
	 width="251.025px" height="529.691px" viewBox="0 0 251.025 529.691" enable-background="new 0 0 251.025 529.691"
	 xml:space="preserve">
<g id="Calque_1_1_">
	
		<image display="none" overflow="visible" enable-background="new    " width="261" height="546" xlink:href="i.jpg"  transform="matrix(1 0 0 1 -6.8372 -17.3098)">
	</image>
	<path fill="none" stroke="#000000" stroke-width="3" stroke-linecap="round" stroke-miterlimit="10" d="M183.537,108.931
		c0,0,35.626-36.573,58.292,10.76c0,0,4.21,9.224,0.916,24.583c-3.414,15.921-1.474,6.261-3.416,20.07c0,0-1.668,9.24-4.834,15.324
		s-2.916,11.493-9.583,20.659"/>
	<path fill="none" stroke="#000000" stroke-linecap="round" stroke-miterlimit="10" d="M45.167,179.024
		c0,0,12.316-0.335,16.992-10.335"/>
	<path fill="none" stroke="#000000" stroke-width="3" stroke-linecap="round" stroke-miterlimit="10" d="M143.329,218.698
		l9.833,43.993c0,0.625,2.334,14.174-13.662,18.664c-24.634,6.915-31.667-20.666-31.667-20.666L79.5,159.022"/>
	
		<line fill="none" stroke="#000000" stroke-linecap="round" stroke-miterlimit="10" x1="164.996" y1="245.698" x2="151.768" y2="256.453"/>
	<path fill="none" stroke="#000000" stroke-linecap="round" stroke-miterlimit="10" d="M146.329,188.358
		c0,0,12.141-16.673,4.736-29.92"/>
	<path fill="none" stroke="#000000" stroke-linecap="round" stroke-miterlimit="10" d="M118.329,180.858
		c0,0-11.792-17.286-1.146-32.228"/>
	<path fill="none" stroke="#000000" stroke-linecap="round" stroke-miterlimit="10" d="M73.829,184.858c0,0,5.5-2.832,15.333,8.834"
		/>
	<path fill="none" stroke="#000000" stroke-linecap="round" stroke-miterlimit="10" d="M33.829,239.516c0,0,30.167,2,40-2
		c12.567-5.112,24.333-7.333,24.333-7.333"/>
	<path fill="none" stroke="#000000" stroke-linecap="round" stroke-miterlimit="10" d="M103.829,290.691
		c0,0-1.396-14.347,4.635-28.007"/>
	<path fill="none" stroke="#000000" stroke-linecap="round" stroke-miterlimit="10" d="M171.829,256.453
		c0,0-1.228-12.326-13.447-32.377"/>
	<path fill="none" stroke="#000000" stroke-linecap="round" stroke-miterlimit="10" d="M122.162,361.691
		c0,0-16.334-39.668-3.833-81.667"/>
	<path fill="none" stroke="#000000" stroke-linecap="round" stroke-miterlimit="10" d="M128.829,394.353
		c0,0,26.334,26.999,60,18.666"/>
	<path fill="none" stroke="#000000" stroke-linecap="round" stroke-miterlimit="10" d="M117.89,406.353
		c0,0-19.396,15.859-57.063,8.263"/>
	<path fill="none" stroke="#000000" stroke-linecap="round" stroke-miterlimit="10" d="M149.894,269.358
		c-12.103,13-25.921,5-25.921,5"/>
	<path fill="none" stroke="#000000" stroke-linecap="round" stroke-miterlimit="10" d="M149.894,269.358
		c0.602-0.166-0.857-30.685-12.961-34.259c-19.563-5.777-12.96,33.425-12.96,33.425"/>
	<path fill="none" stroke="#000000" stroke-width="3" stroke-linecap="round" stroke-miterlimit="10" d="M210.829,528.691
		c0,0-18.667-119.329-1.667-149.995"/>
	<path fill="none" stroke="#000000" stroke-width="3" stroke-linecap="round" stroke-miterlimit="10" d="M209.162,377.361
		c0,0,24.899-59.508,33-82.666c8.863-25.337,3.101-56.85-4.833-62.492c-5.514-7.431-6.213-17.526-19-45.999
		c-12.5-27.833-48-23-50.5-23.513s-31.5-7.32-42.667-13.487s-41,15.833-13.833,45.667s62.333,32.327,62.333,32.327"/>
	<path fill="none" stroke="#000000" stroke-width="3" stroke-linecap="round" stroke-miterlimit="10" d="M237.329,232.203
		c-7.566-9.607-6.213-17.526-19-45.999"/>
</g>
<g id="Calque_2">
	<path fill="none" stroke="#000000" stroke-width="3" stroke-linecap="round" stroke-miterlimit="10" d="M60.662,528.691
		c0,0-4-77.5-22-112.5s-26-98-29-108s-17.893-74.239,0-99.5c8.5-12,17-124,17-124l4.169-60c0,0-0.835-26.167,17.831-23.5
		s15.655,16.775,16.5,18.333c0.938,1.729,3,56.325,3,56.325l1.333,59.822"/>
	<path fill="none" stroke="#000000" stroke-width="3" stroke-linecap="round" stroke-miterlimit="10" d="M65.829,179.024
		c0,0-17.333-27.666,23.333-61.333"/>
	<path fill="none" stroke="#000000" stroke-width="3" stroke-linecap="round" stroke-miterlimit="10" d="M89.162,117.691
		c0,0,19.525-8.662,30.164-2.065c1.716,1.064,3.201,2.5,4.336,4.398c8.167,13.667,6.167,28.333,6.167,28.333"/>
	<path fill="none" stroke="#000000" stroke-width="3" stroke-linecap="round" stroke-miterlimit="10" d="M183.495,162.691
		c0,0,6.393-39.221,3-49.744c0,0-28-45.077-65.667,0"/>
</g>
</svg>
