<?xml version="1.0" encoding="utf-8"?>
<!-- Generator: Adobe Illustrator 16.0.0, SVG Export Plug-In . SVG Version: 6.00 Build 0)  -->
<!DOCTYPE svg PUBLIC "-//W3C//DTD SVG 1.1//EN" "http://www.w3.org/Graphics/SVG/1.1/DTD/svg11.dtd">
<svg version="1.1" id="Calque_1" xmlns="http://www.w3.org/2000/svg" xmlns:xlink="http://www.w3.org/1999/xlink" x="0px" y="0px"
	 width="146.521px" height="154.063px" viewBox="0 0 146.521 154.063" enable-background="new 0 0 146.521 154.063"
	 xml:space="preserve">
<g id="Calque_1_1_" display="none">
</g>
<g id="Calque_2">
	<path fill="none" stroke="#000000" stroke-linecap="round" stroke-miterlimit="10" d="M90.75,71.009c0,0-1.917-1.838-9.5-2.336
		c-13.651-0.896-22.667,1.5-22.667,1.5c-9.583,0.583-8.333,6.167-8.25,6.472s2,4.278,2.083,7.695s2.667,11.569,2.667,11.569
		s5.375,17.275,5.875,22.716c0.5,5.438,4.938,5.188,4.938,5.188l15.438,5.354c30,10.167,41.167,24.396,41.167,24.396"/>
	<path fill="none" stroke="#000000" stroke-linecap="round" stroke-miterlimit="10" d="M66.833,106.835
		c0,0-14.397-36.785-3.366-37.572"/>
	<path fill="none" stroke="#000000" stroke-linecap="round" stroke-miterlimit="10" d="M79.667,98.502c0,0,18.166-36.333,18-56.5
		c0,0,9-9.503,10,15.582c0,0-3.5,20.188-3.833,23.168c0,0-1.604,4.116-2,9.92"/>
	<path fill="none" stroke="#000000" stroke-linecap="round" stroke-miterlimit="10" d="M104.167,100.576
		c0,0-2.428-6.881-2.333-10.076"/>
	<path fill="none" stroke="#000000" stroke-width="0.5" stroke-linecap="round" stroke-miterlimit="10" d="M71.896,116.438
		c0,0,0.25,3.063,4.5,3.063"/>
	<path fill="none" stroke="#000000" stroke-width="0.5" stroke-linecap="round" stroke-miterlimit="10" d="M86.677,111.5
		c0,0,0.844,5.313,4.778,1.313"/>
	<path fill="none" stroke="#000000" stroke-width="0.5" stroke-linecap="round" stroke-miterlimit="10" d="M119.833,100.576
		c0,0-5.207-3.92-15.604-5.038"/>
	<path fill="none" stroke="#000000" stroke-width="0.5" stroke-linecap="round" stroke-miterlimit="10" d="M126.5,106.835
		c0,0,14.75-1.585,7.5,18.665"/>
	<path fill="none" stroke="#000000" stroke-width="0.5" stroke-linecap="round" stroke-miterlimit="10" d="M103.032,46.833
		c0,0-2.365,5.75-5.698,4.167"/>
	<path fill="none" stroke="#000000" stroke-width="0.5" stroke-linecap="round" stroke-miterlimit="10" d="M98.521,41.813
		c0,0-0.281,0.781,3.219,1"/>
	<path fill="none" stroke="#000000" stroke-width="0.5" stroke-linecap="round" stroke-miterlimit="10" d="M102.708,45.438
		c0,0,0.188-2.469-0.969-2.75"/>
	<path fill="none" stroke="#000000" stroke-linecap="round" stroke-miterlimit="10" d="M104.668,74.558
		c0,0,17.834,11.347,28.917,29.013c0,0,6.623,17.741,12.438,25.616"/>
	<path fill="none" stroke="#000000" stroke-width="3" stroke-linecap="round" stroke-miterlimit="10" d="M133.585,103.903"/>
	<path fill="none" stroke="#000000" stroke-width="0.5" stroke-linecap="round" stroke-miterlimit="10" d="M77.167,76.645
		c0,0,3.625,1.139,3.583,9.059"/>
	<path fill="none" stroke="#000000" stroke-width="0.5" stroke-linecap="round" stroke-miterlimit="10" d="M78.958,84.493
		c0,0,1.25,3,5.375,2.708"/>
	<path fill="none" stroke="#000000" stroke-width="0.5" stroke-linecap="round" stroke-miterlimit="10" d="M81.208,84.326
		c0,0,1.167-0.333,4.25,0.542"/>
	<path fill="none" stroke="#000000" stroke-linecap="round" stroke-miterlimit="10" d="M73.292,67.958c0,0,0.458-7.314,6.375-7.25
		c3.263,0.036,4.083,0,4.083,0s3.596-0.463,5.208,0C90.584,61.175,93,64.375,93,64.375"/>
	<path opacity="0.49" fill="#BFBFBF" stroke="#000000" stroke-miterlimit="10" enable-background="new    " d="M15.167,0H31
		l0.167,70.462c0,0,1.5,9.188,12.333,9.138c10.833-0.055,12-4.467,12.333-4.62c0.333-0.149,1.958-2.587,2.063-3.804
		c0.104-1.217,0-17.771,0-17.771h-9.148l16.919-23.104l17.667,23.104l-9.066,0.424l-0.601,18.869c0,0-4.5,16.592-23.5,19.176
		S21.5,84.573,18.333,80.006c-3.167-4.569-2.667-10.606-3-11.544C15,67.524,15.167,0,15.167,0z"/>
	<path fill="none" stroke="#000000" stroke-width="3" stroke-linecap="round" stroke-miterlimit="10" d="M59.306,98.057"/>
	<path fill="none" stroke="#AFAFAF" stroke-width="3" stroke-linecap="round" stroke-miterlimit="10" d="M0,42.813"/>
</g>
</svg>
