<?xml version="1.0" encoding="utf-8"?>
<!-- Generator: Adobe Illustrator 16.0.0, SVG Export Plug-In . SVG Version: 6.00 Build 0)  -->
<!DOCTYPE svg PUBLIC "-//W3C//DTD SVG 1.1//EN" "http://www.w3.org/Graphics/SVG/1.1/DTD/svg11.dtd">
<svg version="1.1" id="Calque_1" xmlns="http://www.w3.org/2000/svg" xmlns:xlink="http://www.w3.org/1999/xlink" x="0px" y="0px"
	 width="306px" height="521.654px" viewBox="0 0 306 521.654" enable-background="new 0 0 306 521.654" xml:space="preserve">
<g id="Calque_1_1_" display="none">
	
		<image display="inline" overflow="visible" enable-background="new    " width="306" height="521" xlink:href="k.jpg"  transform="matrix(1 0 0 1 2.441406e-004 7.324219e-004)">
	</image>
</g>
<g id="Calque_2">
	<path fill="none" stroke="#000000" stroke-width="3" stroke-linecap="round" stroke-miterlimit="10" d="M175,521.001l-43-88.666
		c0,0-39-52.668-52-66.001s-26.667-50.672-26.667-50.672C50.243,307.76,50,295.665,50,295.665c-4-6.666-6.333-22-6.333-22
		s-11-24.999,2-35.999s14-8,16.667-6S73.667,243,80.667,246c0,0,12.667,14,13.667,16.333S105.667,274,105.667,274
		s5,20.332-14.667,19.666c0,0-1.804,0.549-5.256-0.329c-0.352-0.089-0.72-0.192-1.104-0.313c-3.637-1.143-8.785-3.788-15.306-9.689
		c-14-12.667-14-11.333-19-14"/>
	<path fill="none" stroke="#000000" stroke-width="3" stroke-linecap="round" stroke-miterlimit="10" d="M62.667,309"/>
	<path fill="none" stroke="#000000" stroke-linecap="round" stroke-miterlimit="10" d="M83.333,294.666
		c0,0-13.042,3.22-20.667,14.334"/>
	<path fill="none" stroke="#000000" stroke-linecap="round" stroke-miterlimit="10" d="M65.993,280.341
		c0,0-5.993,5.448-12.993,4.992"/>
	<path fill="none" stroke="#000000" stroke-linecap="round" stroke-miterlimit="10" d="M132,271.666c0,0,10-10.334,10.667-25"/>
	<path fill="none" stroke="#000000" stroke-linecap="round" stroke-miterlimit="10" d="M123.333,256c0,0,13-4.333,10.333-32"/>
	<path fill="none" stroke="#000000" stroke-linecap="round" stroke-miterlimit="10" d="M152.81,234.666
		c0,0-9.143,4.035-6.477,48.186"/>
	<path fill="none" stroke="#000000" stroke-linecap="round" stroke-miterlimit="10" d="M166,175.669c0,0,6.666-2,25.333,4.333"/>
	<path fill="none" stroke="#000000" stroke-width="3" stroke-linecap="round" stroke-miterlimit="10" d="M62.333,231.666
		c0,0-6.667-29.663,16.333-34.996s27.986,12.667,28.494,13.333c0.507,0.666,5.173,0,10.84,32.667l19.333,40.182
		c0,0,13.989,13.813,11.995,26.148c-1.995,12.336-25,12.572-25.995,12.67c-1.416,0.14-9.812-2.736-20.905-31.534"/>
	<path fill="none" stroke="#000000" stroke-linecap="round" stroke-miterlimit="10" d="M123.333,314.67c0,0,18.606,2.307,18-12.837"
		/>
	<path fill="none" stroke="#000000" stroke-linecap="round" stroke-miterlimit="10" d="M87.667,285.36c0,0,2.667-9.356,13.333-9.023
		"/>
	<path fill="none" stroke="#000000" stroke-linecap="round" stroke-miterlimit="10" d="M121,309c0,0-10.333-20.996,2.333-21.663
		s13.666,9.662,14,10.831"/>
	<path fill="none" stroke="#000000" stroke-linecap="round" stroke-miterlimit="10" d="M83.333,282.851c0,0-8.333-7.182-6-17.182
		s18.333,5.659,18.333,5.996"/>
	<path fill="none" stroke="#000000" stroke-linecap="round" stroke-miterlimit="10" d="M134.027,162.673c0,0-15.359-1-18.693-17.333
		"/>
	<path fill="none" stroke="#000000" stroke-width="3" stroke-linecap="round" stroke-miterlimit="10" d="M92,195.684
		c0,0-32.667-45.673-41-66.006c0,0-18.667-40.667-37.667-60.333s-2.333-28.333,0-30.333S28.667,28.01,44,49.344s31,41,31,41
		l22,29.333c0,0,7.684,10.562,10.16,21"/>
	<path fill="none" stroke="#000000" stroke-linecap="round" stroke-miterlimit="10" d="M142.667,317.069
		c0,0-2.619,23.99,33.523,58.292"/>
	<path fill="none" stroke="#000000" stroke-linecap="round" stroke-miterlimit="10" d="M172.667,394.328
		c0,0-13.334,19.332-37,26.666"/>
	<path fill="none" stroke="#000000" stroke-width="3" stroke-linecap="round" stroke-miterlimit="10" d="M299,521.001l-45-110.666
		c0,0-16.333-70.343-15.333-82.009s-6.668-33.664-2.334-60.997c0,0-5.667-17.663-10-24.33s0.334-4.659-19.333-24.33
		c-0.482-0.481-0.981-1.303-1.49-2.396C200.287,205.052,194,165.01,194,165.01l-2.667-42.333c0,0-9.333-71.333-9.333-73.333
		s-0.667-38.667-19.333-39.333s-16.821,16.667-16.821,16.667s-1.846,24,1.82,58s-1.82,86.667-1.82,86.667"/>
	<path fill="none" stroke="#000000" stroke-width="3" stroke-linecap="round" stroke-miterlimit="10" d="M205.51,216.272
		C194.831,204.385,166,184.667,166,184.667C136.667,173.333,117.028,140,117.028,140S98,130,101,170c0,0,1.015,20.667,31.341,43.333
		c0,0,16.474,13,27.065,30c0,0,6.61,3.666,9.277,15.833"/>
	<path fill="none" stroke="#000000" stroke-linecap="round" stroke-miterlimit="10" d="M163.333,265.495c0,0,3.333-12.154,9-3.158"
		/>
</g>
</svg>
