<?xml version="1.0" encoding="utf-8"?>
<!-- Generator: Adobe Illustrator 16.0.0, SVG Export Plug-In . SVG Version: 6.00 Build 0)  -->
<!DOCTYPE svg PUBLIC "-//W3C//DTD SVG 1.1//EN" "http://www.w3.org/Graphics/SVG/1.1/DTD/svg11.dtd">
<svg version="1.1" id="Calque_1" xmlns="http://www.w3.org/2000/svg" xmlns:xlink="http://www.w3.org/1999/xlink" x="0px" y="0px"
	 width="453.152px" height="522.547px" viewBox="0 0 453.152 522.547" enable-background="new 0 0 453.152 522.547"
	 xml:space="preserve">
<image display="none" overflow="visible" enable-background="new    " width="472" height="529" xlink:href="l.jpg"  transform="matrix(1 0 0 1 -16.2141 -7.5129)">
</image>
<path fill="none" stroke="#000000" stroke-width="3" stroke-linecap="round" stroke-miterlimit="10" d="M318.119,521.487l-23-81
	c0,0-5.001-33.666-65-49.333c0,0-23.333-1.334-46-21.667s-36.667-15.667-38.667-16.667"/>
<path fill="none" stroke="#000000" stroke-width="3" stroke-linecap="round" stroke-miterlimit="10" d="M209.461,109.169
	c-10-22.667-16.667-60-16.667-60l-1.667-29.333c2-15.333-6.667-17-6.667-17c-11.333-4-18.667,6.332-23.333,31.665s4,79.997,4,79.997
	c1.667,7.667,13.338,68.328,13.338,68.328c-2.994,16.333-0.005,49.667-0.005,49.667c0.667,69.667-60.333,63.995-60.333,63.995
	s-13.667,1-61,3s-53.667,22-53.667,22c-7.667,22.333,17.333,27.833,17.333,27.833l53.991-1.5l50.167-1
	c0.523,0.131,3.079,0.397,7.666,1.526c0.647,0.158,7.614,3.188,11.105,3.859c4.06,0.78,1.729,0.613,1.728,0.613"/>
<path fill="none" stroke="#000000" stroke-width="3" stroke-linecap="round" stroke-miterlimit="10" d="M209.027,108.169
	c0,0,2.541,10.08,5.073,20.825c3.335,14.155,7.404,31.199,8.36,34.175c3,9.333,9.333,24.996,9.333,24.996"/>
<path fill="none" stroke="#000000" stroke-width="3" stroke-linecap="round" stroke-miterlimit="10" d="M269.461,191.498
	c0,0-5.334,0.671-9.667-42.831c0,0-8.05-30.392-28-29.836c0,0-15.055,5.326-17.693,10.163"/>
<path fill="none" stroke="#000000" stroke-width="3" stroke-linecap="round" stroke-miterlimit="10" d="M301.79,240.162
	c0,0-8.666-2.667-11-53.667s-20.988-40.333-21.328-40.667c-0.339-0.334-9.667,2.838-9.667,2.838"/>
<path fill="none" stroke="#000000" stroke-linecap="round" stroke-miterlimit="10" d="M299.79,201.828c0,0-5.636-0.199-7.65,3.734"
	/>
<path fill="none" stroke="#000000" stroke-width="3" stroke-linecap="round" stroke-miterlimit="10" d="M451.456,521.487
	c0,0-51.17-82-64.17-135c0,0-19-37-30-48c0,0-17-37.5-24.5-45.5s-17.334-27-14.667-46c0,0,8.667-30.322,3.167-45.161
	c0,0-0.295-14.339-29.146-8.089"/>
<path fill="none" stroke="#000000" stroke-linecap="round" stroke-miterlimit="10" d="M11.952,318.154c0,0-10.167,8.167,0,25.167"/>
<path fill="none" stroke="#000000" stroke-linecap="round" stroke-miterlimit="10" d="M16.786,344.488c0,0,22.5,1.666,25-3.667
	s1.167-20.167-3.833-24.667h0.833l-15.333,1"/>
<path fill="none" stroke="#000000" stroke-linecap="round" stroke-miterlimit="10" d="M188.911,6.926c0,0-5.188-1.313-9.063,4.313"
	/>
<path fill="none" stroke="#000000" stroke-linecap="round" stroke-miterlimit="10" d="M191.223,32.112
	c0,0-11.438-3.875-9.313-15.313"/>
<path fill="none" stroke="#000000" stroke-width="3" stroke-linecap="round" stroke-miterlimit="10" d="M75.788,253.486"/>
</svg>
