<?xml version="1.0" encoding="utf-8"?>
<!-- Generator: Adobe Illustrator 16.0.0, SVG Export Plug-In . SVG Version: 6.00 Build 0)  -->
<!DOCTYPE svg PUBLIC "-//W3C//DTD SVG 1.1//EN" "http://www.w3.org/Graphics/SVG/1.1/DTD/svg11.dtd">
<svg version="1.1" id="Calque_1" xmlns="http://www.w3.org/2000/svg" xmlns:xlink="http://www.w3.org/1999/xlink" x="0px" y="0px"
	 width="242.9px" height="513.521px" viewBox="0 0 242.9 513.521" enable-background="new 0 0 242.9 513.521" xml:space="preserve">
<path fill="none" stroke="#000000" stroke-width="3" stroke-linecap="round" stroke-miterlimit="10" d="M241.401,512.021
	c0,0-56-120.5-45.5-185c0,0,24.001-72.667,24.667-102.333s-3.333-53.999-1-57.999"/>
<path fill="none" stroke="#000000" stroke-width="3" stroke-linecap="round" stroke-miterlimit="10" d="M210.903,162.693
	c0,0,21,10,26-9.333l-2.333-43.333c0,0-2.999-12-4.333-14.667c0,0-22.668-57-38.334-65.333c0,0-13-3-22-2.333"/>
<path fill="none" stroke="#000000" stroke-width="3" stroke-linecap="round" stroke-miterlimit="10" d="M117.237,18.36
	c0,0,17.667-20.333,46,5.333s38.667,29.667,51,55.667c0,0,2.853,5.82,3.76,17.077c0.906,11.257,0.563,21.673,6.906,43.923
	c6.344,22.25-25.961,22.667-30.313,20.667"/>
<path fill="none" stroke="#000000" stroke-linecap="round" stroke-miterlimit="10" d="M197.237,142.027c0,0,10.666,6.333,23.333,0"
	/>
<path fill="none" stroke="#000000" stroke-linecap="round" stroke-miterlimit="10" d="M222.237,158.027
	c0,0,11.666,0.667,11.666-3.667"/>
<path fill="none" stroke="#000000" stroke-linecap="round" stroke-miterlimit="10" d="M232.237,144.843c0,0,1.334-19.814-10-21.481"
	/>
<path fill="none" stroke="#000000" stroke-linecap="round" stroke-miterlimit="10" d="M197.237,121.027c0,0,2.999-19.026,20.76-4"/>
<path fill="none" stroke="#000000" stroke-linecap="round" stroke-miterlimit="10" d="M189.237,179.027
	c0,0-8.001,4.334-3.334,24.667"/>
<path fill="none" stroke="#000000" stroke-linecap="round" stroke-miterlimit="10" d="M76.237,78.027c0,0-9-13.667-14.667-18.667"/>
<path fill="none" stroke="#000000" stroke-linecap="round" stroke-miterlimit="10" d="M81.237,82.027c0,0,24.333,6,22-7.333"/>
<path fill="none" stroke="#000000" stroke-linecap="round" stroke-miterlimit="10" d="M103.395,161.79
	c0,0-24.825-1.354-38.491-3.726"/>
<line fill="none" stroke="#000000" stroke-linecap="round" stroke-miterlimit="10" x1="100.903" y1="181.36" x2="100.903" y2="200.694"/>
<path fill="none" stroke="#000000" stroke-width="3" stroke-linecap="round" stroke-miterlimit="10" d="M36.903,114.361
	c0,0,23.333,5.667,59-6.333s42.333-2,59,10s43.289,18.368,35.813,53.351c0,0,0.229,22.314,3.875,32.315
	c0.192,0.531,0.219,0.971,0.112,1.334c-0.093,0.317,0,0,0,0"/>
<path fill="none" stroke="#000000" stroke-width="3" stroke-linecap="round" stroke-miterlimit="10" d="M194.702,205.028
	c-6.866,21.341-35.135,1.332-35.135,1.332s-6.917-0.004-8.417-39.672c0,0-38.079-17.082-44.915-8.625c0,0-0.946,2.929-3.357,6.879
	v0.001c-4.142,6.787-12.598,16.589-27.977,19.749"/>
<path fill="none" stroke="#000000" stroke-linecap="round" stroke-miterlimit="10" d="M147.401,254.771c0,0-11.079-35-30.165-61.5
	s-13.074-25.066-14.357-28.326"/>
<path fill="none" stroke="#000000" stroke-width="3" stroke-linecap="round" stroke-miterlimit="10" d="M74.903,112.271
	c0,0-29.002-30.25-19.752-48.5c0,0,4.754-12.821,19.752-4.411s32.498,14.922,36.248,18.667s12.5,10.425,18,24.584"/>
<path fill="none" stroke="#000000" stroke-linecap="round" stroke-miterlimit="10" d="M60.151,48.021c0,0,2.75,4.96,6.25,8.479"/>
<path fill="none" stroke="#000000" stroke-width="3" stroke-linecap="round" stroke-miterlimit="10" d="M177.846,132.667
	c0,0,15.555-6.396-3.695-44.396c0,0-6.5-30-26.75-44.5s-28.25-22.75-28.25-22.75S86.146,3.771,84.149,2.771
	S61.151-5.079,49.401,27.596l-26.5,70.175c0,0-3.5,11.25-10.75,16.25s-9.809,19.11-9.5,37.25c0.3,17.656,1.25,23,1.25,23
	s10.75,56.25,14,65.25s9.25,44.5,17.75,65.75c10.281,25.702,21.113,76.364,21.924,79.614c1.681,6.729,2.875,12.958,4.75,18.75
	c1.551,4.79,11.125,34.209,12.576,40.636c1.542,6.833,11.75,67.75,11.75,67.75"/>
<path fill="none" stroke="#000000" stroke-linecap="round" stroke-miterlimit="10" d="M96.068,350.355c0,0,38.834,4.506,60-53.333"
	/>
<path fill="none" stroke="#000000" stroke-linecap="round" stroke-miterlimit="10" d="M181.734,121.027c0,0-6,1.495-8.5-1.172"/>
<path fill="none" stroke="#000000" stroke-linecap="round" stroke-miterlimit="10" d="M171.481,117.854
	c0,0-15.413-19.368-3.08-31.603"/>
<line fill="none" stroke="#000000" stroke-linecap="round" stroke-miterlimit="10" x1="169.903" y1="86.254" x2="176.734" y2="96.437"/>
<line fill="none" stroke="#000000" stroke-linecap="round" stroke-miterlimit="10" x1="193.7" y1="204.51" x2="186.839" y2="205.169"/>
</svg>
