<?xml version="1.0" encoding="utf-8"?>
<!-- Generator: Adobe Illustrator 16.0.0, SVG Export Plug-In . SVG Version: 6.00 Build 0)  -->
<!DOCTYPE svg PUBLIC "-//W3C//DTD SVG 1.1//EN" "http://www.w3.org/Graphics/SVG/1.1/DTD/svg11.dtd">
<svg version="1.1" id="Calque_1" xmlns="http://www.w3.org/2000/svg" xmlns:xlink="http://www.w3.org/1999/xlink" x="0px" y="0px"
	 width="274.033px" height="513.531px" viewBox="0 0 274.033 513.531" enable-background="new 0 0 274.033 513.531"
	 xml:space="preserve">
<image display="none" overflow="visible" width="278" height="546" xlink:href="n.jpg"  transform="matrix(1 0 0 1 -5.4297 -32.6011)">
</image>
<path fill="none" stroke="#000000" stroke-width="3" stroke-linecap="round" stroke-miterlimit="10" d="M272.57,500.399
	c0,0-31-137.5-30-159s-1.323-72.806,9.5-117c0,0,11-59.5,0.5-81.5s-10.023-16.5-10.023-16.5"/>
<path fill="none" stroke="#000000" stroke-linecap="round" stroke-miterlimit="10" d="M187.07,46.399c0,0,25-24,51.5-5
	s4.5,72,8,55.5"/>
<path fill="none" stroke="#000000" stroke-width="3" stroke-linecap="round" stroke-miterlimit="10" d="M187.07,48.399
	c0,0,21.906-26.579,49.203-8.54s7.797,56.318,8.297,60.179s-6.5,31.361-4.5,43.361s-13,53.5-23.5,53.5s-35,12-35-30l3.5-44.833
	c0,0,1.833-12.329,3.833-19.829s0.5-43-0.5-46.5S187.07,48.399,187.07,48.399z"/>
<path fill="none" stroke="#000000" stroke-width="3" stroke-linecap="round" stroke-miterlimit="10" d="M187.07,48.399
	c0,0,0.5-58-47.5-45c0,0-4.5,0-12.5,10.5s-24,28.5-24,28.5"/>
<path fill="none" stroke="#000000" stroke-width="3" stroke-linecap="round" stroke-miterlimit="10" d="M116.57,45.899V67.06
	c0,0,5,38.839,6.5,40.839s4.5,23,6.5,25s15.5,34.5,15.5,34.5s14.5,27.5,36.5-5.5"/>
<path fill="none" stroke="#000000" stroke-width="3" stroke-linecap="round" stroke-miterlimit="10" d="M116.57,54.899l-30-25
	c0,0-30-10.5-20.5,30.5c0,0,7,17,10,21.5l0.688,1.375"/>
<path fill="none" stroke="#000000" stroke-width="3" stroke-linecap="round" stroke-miterlimit="10" d="M101.57,513.399
	c0,0,10-113-28.5-171.5c0,0-21-37.5-26.5-42.5s-23.5-49.5-23.5-49.5l-10.5-27.5c0,0-6.5-15.5-9.5-16c0,0-3-3.042-0.708-8.875
	s7.833-37.625,7.833-37.625s0.375-15.75,13-25.75s32.75-30.75,32.75-30.75s12-21.625,26.25-20.375c0,0,29.408-5.37,44.559,40.336"/>
<path fill="none" stroke="#000000" stroke-width="3" stroke-linecap="round" stroke-miterlimit="10" d="M49.07,116.034
	c0,0-1,6.865,10.5,8.615c0,0,3.5,1,7.5,8.75s38.5,67.25,38.5,67.25s5.5,10.25,11,13.75c6.271,3.991,0.563,11.5,0.563,11.5
	c-14.063,14.145-26.313,6.5-26.313,6.5s-3,0.5-34.5-32.5s-32-29.25-32-29.25"/>
<path fill="none" stroke="#000000" stroke-width="3" stroke-linecap="round" stroke-miterlimit="10" d="M147.568,171.044
	c0,0,3.502,11.854,20.002,23.604"/>
<path fill="none" stroke="#000000" stroke-width="3" stroke-linecap="round" stroke-miterlimit="10" d="M167.57,195.649
	c0,0,18.5,15.75,14,47.75c0,0-13.75,19.5-32.5,11.25c0,0-5.25-3.5-15.5-18.75s-14.872-19.417-14.872-19.417"/>
<path fill="none" stroke="#000000" stroke-linecap="round" stroke-miterlimit="10" d="M188.903,331.399
	c0,0-12.499,7.667-38.416-11.333"/>
<path fill="none" stroke="#000000" stroke-linecap="round" stroke-miterlimit="10" d="M108.57,343.732
	c0,0,26.032,4.611,45.683-21.027"/>
<path fill="none" stroke="#000000" stroke-linecap="round" stroke-miterlimit="10" d="M126.754,228.065
	c0,0,0.813,30.667,20.814,63.667"/>
<path fill="none" stroke="#000000" stroke-linecap="round" stroke-miterlimit="10" d="M110.68,231.066c0,0,7.891,19.667,4.224,49"/>
<path fill="none" stroke="#000000" stroke-linecap="round" stroke-miterlimit="10" d="M20.237,184.399c0,0,7,3.333,19.333,0"/>
<path fill="none" stroke="#000000" stroke-linecap="round" stroke-miterlimit="10" d="M24.32,200.399c0,0,15.985,7.833,26.951-5.75"
	/>
<path fill="none" stroke="#000000" stroke-linecap="round" stroke-miterlimit="10" d="M133.38,187.732
	c0,0-10.199,4.333-17.504,13.333"/>
<line fill="none" stroke="#000000" stroke-linecap="round" stroke-miterlimit="10" x1="91.904" y1="187.732" x2="86.904" y2="195.649"/>
<path fill="none" stroke="#000000" stroke-linecap="round" stroke-miterlimit="10" d="M141.57,105.737c0,0,19.667,3,26,0"/>
<path fill="none" stroke="#000000" stroke-linecap="round" stroke-miterlimit="10" d="M214.903,125.788c0,0-6,4.717-27.833,0"/>
<path fill="none" stroke="#000000" stroke-linecap="round" stroke-miterlimit="10" d="M110.68,65.071c0,0,3.483-4.521,2.598-9.087"
	/>
<path fill="none" stroke="#000000" stroke-linecap="round" stroke-miterlimit="10" d="M99.57,67.06c0,0-24.667-16.322-18.333-36.322
	"/>
<path fill="none" stroke="#000000" stroke-linecap="round" stroke-miterlimit="10" d="M174.57,236.398
	c0,0-10.338,18.001-27.002,12.667"/>
<path fill="none" stroke="#000000" stroke-linecap="round" stroke-miterlimit="10" d="M187.07,185.88
	c0,0,13.833,19.104,27.833,5.811"/>
<path fill="none" stroke="#000000" stroke-linecap="round" stroke-miterlimit="10" d="M188.903,180.065c0,0,0-28.667,19.667-22.333
	c0,0,13.097,0.002,10.882,30.001"/>
<path fill="none" stroke="#000000" stroke-linecap="round" stroke-miterlimit="10" d="M173.237,231.066
	c0,0-19.485-36.334-36.076-17.001c0,0-3.924,15.332,7.076,30.666"/>
<path fill="none" stroke="#000000" stroke-linecap="round" stroke-miterlimit="10" d="M152.237,172.275c0,0,10,7.457,21-5.543"/>
<path fill="none" stroke="#000000" stroke-linecap="round" stroke-miterlimit="10" d="M142.903,156.818v-12.086
	c0,0,1.332-11,14.666-9.333s18.808,20.119,15.668,29.667"/>
<path fill="none" stroke="#000000" stroke-linecap="round" stroke-miterlimit="10" d="M110.68,215.731c0,0-22.11-5.333-11.11,13.667
	"/>
<path fill="none" stroke="#000000" stroke-linecap="round" stroke-miterlimit="10" d="M103.591,229.398l-1.271,1.668
	c0,0,7.25,0.208,12.75-7.917"/>
</svg>
