<?xml version="1.0" encoding="utf-8"?>
<!-- Generator: Adobe Illustrator 16.0.0, SVG Export Plug-In . SVG Version: 6.00 Build 0)  -->
<!DOCTYPE svg PUBLIC "-//W3C//DTD SVG 1.1//EN" "http://www.w3.org/Graphics/SVG/1.1/DTD/svg11.dtd">
<svg version="1.1" id="Calque_1" xmlns="http://www.w3.org/2000/svg" xmlns:xlink="http://www.w3.org/1999/xlink" x="0px" y="0px"
	 width="388.55px" height="519.365px" viewBox="0 0 388.55 519.365" enable-background="new 0 0 388.55 519.365"
	 xml:space="preserve">
<image display="none" overflow="visible" width="394" height="523" xlink:href="o.jpg"  transform="matrix(1 0 0 1 1.0503 -5.1348)">
</image>
<path fill="none" stroke="#000000" stroke-width="3" stroke-linecap="round" stroke-miterlimit="10" d="M387.05,517.865l-49-145
	c0,0-83.912-209.905-88.412-281.901c0,0-0.921-13.427-25.921-21.427s-46-26-49.333-29.333L114.05,5.537c0,0-8.333-11.667-31,4.667
	S26.058,58.538,26.058,58.538s-11,7.666-4.333,30.333c0,0,2.042,38.667-2.146,48.333"/>
<path fill="none" stroke="#000000" stroke-width="3" stroke-linecap="round" stroke-miterlimit="10" d="M44.391,149.867
	l17.333-13.333c11.667-8,10.667-11.333,10.667-11.333l12-25.333c7.333,4,26,0,26,0c6,14,18.667,22,18.667,22
	c-3.667,22.667,14,46.333,14,46.333"/>
<path fill="none" stroke="#000000" stroke-width="2" stroke-linecap="round" stroke-miterlimit="10" d="M154.391,110.2
	c0,0-22,3.667-51.333-28.333l-2.333-2c0,0-20.667,18.333-30,20c0,0-7-1.667-7-7"/>
<line fill="none" stroke="#000000" stroke-width="2" stroke-linecap="round" stroke-miterlimit="10" x1="100.724" y1="68.867" x2="100.724" y2="79.867"/>
<path fill="none" stroke="#000000" stroke-width="3" stroke-linecap="round" stroke-miterlimit="10" d="M69.391,99.867
	c0,0-4.647,29.858-10.824,39.096"/>
<path fill="none" stroke="#000000" stroke-linecap="round" stroke-miterlimit="10" d="M151.724,135.867c0,0,7,13,10.333,14"/>
<path fill="none" stroke="#000000" stroke-width="3" stroke-linecap="round" stroke-miterlimit="10" d="M183.391,138.962
	c0,0-7-4.096-29,22.238c0,0-3,4.667-11.333,7c0,0-19.667,18-23.333,26.667"/>
<path fill="none" stroke="#000000" stroke-linecap="round" stroke-miterlimit="10" d="M23.058,142.867"/>
<path fill="none" stroke="#000000" stroke-linecap="round" stroke-miterlimit="10" d="M85.391,26.202"/>
<path fill="none" stroke="#000000" stroke-width="3" stroke-linecap="round" stroke-miterlimit="10" d="M196.391,68.867
	c1.333,0.335-61-27.332-80-41.332s-28.333-3.667-28.333-3.667L38.391,70.202c-10,6-13,24.896-13,24.896l-2.333,50.77
	c3,6.667,16.667,6,16.667,6c16.667-6.333,20.333,8,20.333,8c5.667,12.333,12,14.667,12,14.667
	c22,20.667,47.667,21.667,47.667,21.667"/>
<path fill="none" stroke="#000000" stroke-linecap="round" stroke-miterlimit="10" d="M27.724,142.867
	c0,0,5.972-24.427-3.347-25.714"/>
<line fill="none" stroke="#000000" stroke-linecap="round" stroke-miterlimit="10" x1="26.993" y1="144.865" x2="23.058" y2="145.867"/>
<path fill="none" stroke="#000000" stroke-linecap="round" stroke-miterlimit="10" d="M131.724,117.152c0,0,3.008-7.806,0-10.955"/>
<path fill="none" stroke="#000000" stroke-width="3" stroke-linecap="round" stroke-miterlimit="10" d="M23.058,138.732
	c0,0-5-4.857-17.667,7.135c-9.304,8.808,1,23.992,1,23.992c1.91,2.007,5.667,8.257,5.667,8.257c5.899,9.667,77,88.404,80.667,90.071
	s22.667,17.332,44.333,39.332s42.667,31.666,42.667,31.666c33.201,10.681,33.326,35.556,33.326,35.556
	c8.368,26.3,12.341,58.783,12.341,58.783l3.333,84.342"/>
<path fill="none" stroke="#000000" stroke-linecap="round" stroke-miterlimit="10" d="M21.724,155.196c0,0-8.667,9.342-9.667,13.004
	"/>
<path fill="none" stroke="#000000" stroke-linecap="round" stroke-miterlimit="10" d="M21.724,152.196c0,0-6.929-10.36-11.798-10.18
	"/>
<path fill="none" stroke="#000000" stroke-linecap="round" stroke-miterlimit="10" d="M9.926,166.799c0,0-4.976,0.73-8.422-11.604"
	/>
<path fill="none" stroke="#000000" stroke-width="3" stroke-linecap="round" stroke-miterlimit="10" d="M9.926,183.865"/>
</svg>
