<?xml version="1.0" encoding="utf-8"?>
<!-- Generator: Adobe Illustrator 16.0.0, SVG Export Plug-In . SVG Version: 6.00 Build 0)  -->
<!DOCTYPE svg PUBLIC "-//W3C//DTD SVG 1.1//EN" "http://www.w3.org/Graphics/SVG/1.1/DTD/svg11.dtd">
<svg version="1.1" id="Calque_1" xmlns="http://www.w3.org/2000/svg" xmlns:xlink="http://www.w3.org/1999/xlink" x="0px" y="0px"
	 width="145.214px" height="77.504px" viewBox="0 0 145.214 77.504" enable-background="new 0 0 145.214 77.504"
	 xml:space="preserve">
<path fill="none" stroke="#000000" stroke-linecap="round" stroke-miterlimit="10" d="M143.714,76.004l-1.668-33.041
	c0,0-1.332-29.667-29-34c-27.666-4.334-29-4.5-29-4.5s-7.5-1.667-9.5-2.667c0,0-3-0.667-6.333,0L52.047,4.63L13.38,6.796L7.88,6.63
	c0,0-5,1-6,3.5s-0.167,5.167,4.167,6.5s4.833,1.167,5.5,1.167s8.833-0.167,8.833-0.167s1.667-0.333,2.5-0.167s8,1.833,13.667,1.333
	c0,0,4.833,2.833,17.833,0h2.5"/>
<path fill="none" stroke="#000000" stroke-linecap="round" stroke-miterlimit="10" d="M81.88,15.463c0,0,0.668,5.333-16.5,9
	l-5.833,1.667c0,0-1,0-2.333,0s-9.167,0-9.167,0s-10,0.667-11.833,6.333c0,0-2,2.5,2,5.333c4,2.833,3.333,3.167,16.5,3.5
	c13.167,0.334,21-1,22.333-1.334c1.334-0.332,17,14.502,35.5,2.834"/>
<path fill="none" stroke="#000000" stroke-linecap="round" stroke-miterlimit="10" d="M104.214,76.004
	c0,0,0.998-14.575-1.334-28.726"/>
<path fill="none" stroke="#000000" stroke-width="0.5" stroke-linecap="round" stroke-miterlimit="10" d="M119.88,38.753
	c1.056-2.302-5.509,9.89-16.228,11.71"/>
<line fill="none" stroke="#000000" stroke-linecap="round" stroke-miterlimit="10" x1="48.995" y1="19.726" x2="45.96" y2="26.406"/>
<line fill="none" stroke="#000000" stroke-linecap="round" stroke-miterlimit="10" x1="54.669" y1="18.938" x2="59.047" y2="26.13"/>
<path fill="none" stroke="#000000" stroke-width="0.5" stroke-linecap="round" stroke-miterlimit="10" d="M66.599,24.192
	c0,0-1.282-3.395,0-5.729"/>
<path fill="none" stroke="#000000" stroke-linecap="round" stroke-miterlimit="10" d="M56.387,41.331c0,0,5.151,4.985,10.422,6.359
	c4.162,1.085,8.397-0.081,10.237-7.729"/>
<path fill="none" stroke="#000000" stroke-linecap="round" stroke-miterlimit="10" d="M82.046,44c0,0-5.112,9.478-14.667,4.037"/>
<path fill="none" stroke="#000000" stroke-linecap="round" stroke-miterlimit="10" d="M54.713,41.297c0,0-5.305,10.998-7.236,12.166
	c-0.975,1.173-2.264,5.5-2.264,5.5c-7.431,11.557-7.439,9.979-11.667,11.334c-4.335,1.389-2.333-4.168-2.333-4.168
	c2-11,8.326-27.376,8.326-27.376"/>
<path fill="none" stroke="#000000" stroke-width="0.5" stroke-linecap="round" stroke-miterlimit="10" d="M44.047,51.629
	c1.624,0,0.405-2.122,3.431,1.834"/>
<polyline fill="none" stroke="#000000" stroke-width="0.5" stroke-linecap="round" stroke-miterlimit="10" points="1.88,10.13 
	11.88,8.296 11.88,6.751 "/>
<line fill="none" stroke="#000000" stroke-width="0.5" stroke-linecap="round" stroke-miterlimit="10" x1="36.547" y1="18.796" x2="36.547" y2="16.13"/>
<line fill="none" stroke="#000000" stroke-width="0.5" stroke-linecap="round" stroke-miterlimit="10" x1="53.713" y1="16.13" x2="53.713" y2="18.938"/>
<line fill="none" stroke="#000000" stroke-width="0.5" stroke-linecap="round" stroke-miterlimit="10" x1="20.88" y1="14.812" x2="21.157" y2="17.463"/>
<path fill="none" stroke="#000000" stroke-width="0.5" stroke-linecap="round" stroke-miterlimit="10" d="M59.047,30.463
	c0,0-0.167,3,0,4.167"/>
<path fill="none" stroke="#000000" stroke-width="0.5" stroke-linecap="round" stroke-miterlimit="10" d="M37.88,31.371
	c6.333-4.926,11.114-2.408,11.114-2.408v8.5c0,0-6.096,0.706-10.929-1.127"/>
</svg>
