<?xml version="1.0" encoding="utf-8"?>
<!-- Generator: Adobe Illustrator 16.0.0, SVG Export Plug-In . SVG Version: 6.00 Build 0)  -->
<!DOCTYPE svg PUBLIC "-//W3C//DTD SVG 1.1//EN" "http://www.w3.org/Graphics/SVG/1.1/DTD/svg11.dtd">
<svg version="1.1" id="Calque_1" xmlns="http://www.w3.org/2000/svg" xmlns:xlink="http://www.w3.org/1999/xlink" x="0px" y="0px"
	 width="482.241px" height="385.67px" viewBox="0 0 482.241 385.67" enable-background="new 0 0 482.241 385.67"
	 xml:space="preserve">
<image display="none" overflow="visible" width="484" height="395" xlink:href="q.jpg"  transform="matrix(1 0 0 1 -3.2593 -7.1055)">
</image>
<path fill="none" stroke="#000000" stroke-width="3" stroke-linecap="round" stroke-miterlimit="10" d="M27.991,165.395
	l-1.75,111.25c-11.25,0.25-12.5-8.75-14.5-10.5s-5-48.75-4.75-57.5s2.25-34.75,2.25-34.75c-2-6-5-53-5-53c-1-25,26-32,26-32
	c8-2,27.5-13.5,27.5-13.5c45.5-32,102.673-58.497,102.673-58.497c91.667-36.667,142.667,3.667,142.667,3.667l177.66,96.333"/>
<path fill="none" stroke="#000000" stroke-width="3" stroke-linecap="round" stroke-miterlimit="10" d="M25.741,277.895
	c0,0-6.469,44.3-23.75,91c0,0-4.5,16,13.75,15.25s39.5-37.75,47.75-59.25s21.5-64.25,24.5-95.25c0,0,4.5-31.25,4-33.75
	c0,0-0.027-5.314,2.973-7.314"/>
<path fill="none" stroke="#000000" stroke-width="3" stroke-linecap="round" stroke-miterlimit="10" d="M94.241,189.395
	c0,0,22-22.5,0-54.75"/>
<path fill="none" stroke="#000000" stroke-width="3" stroke-linecap="round" stroke-miterlimit="10" d="M480.741,328.395
	c0,0-207-167.5-231-186"/>
<path fill="none" stroke="#000000" stroke-width="3" stroke-linecap="round" stroke-miterlimit="10" d="M275.741,89.395
	c0,0-10.5,17.5-20.5,45.25c0,0-13.5,21.25-27.5,39.25c0,0-9,5-14.5,32c0,0-12.5,31.5-13.5,39.5l-6.5,48.5c0,0-4.5,14-5.5,17"/>
<path fill="none" stroke="#000000" stroke-width="3" stroke-linecap="round" stroke-miterlimit="10" d="M188.741,307.895l-5,52.5
	c0,0-1.5,26.5-35.5,0c0,0-27.5-39-13-92.5c0,0,12.5-50.5,9.5-67.75l-13.722-38.125"/>
<path fill="none" stroke="#000000" stroke-width="3" stroke-linecap="round" stroke-miterlimit="10" d="M83.241,267.096
	c0,0,54-2.201,38-42.701c0,0-6.5-4.5-3.5-24.25s1.5-16.75,1.5-16.75"/>
<line fill="none" stroke="#000000" stroke-width="3" stroke-linecap="round" stroke-miterlimit="10" x1="143.638" y1="225.164" x2="126.741" y2="235.395"/>
<path fill="none" stroke="#000000" stroke-width="2" stroke-linecap="round" stroke-miterlimit="10" d="M144.741,200.145
	c0,0-16-12.576-27-16.913l-13.722-22.837"/>
<path fill="none" stroke="#000000" stroke-width="2" stroke-linecap="round" stroke-miterlimit="10" d="M117.741,200.145
	c0,0-8.5,1.5-7.5-19.875"/>
<path fill="none" stroke="#000000" stroke-width="2" stroke-linecap="round" stroke-miterlimit="10" d="M89.368,219.775
	c0,0,11.837,11.119,14.355,15.619"/>
<path fill="none" stroke="#000000" stroke-width="2" stroke-linecap="round" stroke-miterlimit="10" d="M30.241,264.395
	c0,0,2.5-5,11-3"/>
<line fill="none" stroke="#000000" stroke-width="2" stroke-linecap="round" stroke-miterlimit="10" x1="32.726" y1="257.217" x2="43.726" y2="254.217"/>
<path fill="none" stroke="#000000" stroke-width="2" stroke-linecap="round" stroke-miterlimit="10" d="M17.074,353.225
	c0,0,1.666-10.667-3.667-13.667"/>
<path fill="none" stroke="#000000" stroke-width="2" stroke-linecap="round" stroke-miterlimit="10" d="M15.364,361.225
	c0,0-10.678,3.666-11.15,13.333"/>
<path fill="none" stroke="#000000" stroke-width="2" stroke-linecap="round" stroke-miterlimit="10" d="M161.407,347.892
	c0,0,2.879,19.254,21.106,17.46"/>
<path fill="none" stroke="#000000" stroke-width="2" stroke-linecap="round" stroke-miterlimit="10" d="M166.407,326.225
	c0,0,4.333-12.667,18.333,0"/>
<path fill="none" stroke="#000000" stroke-width="2" stroke-linecap="round" stroke-miterlimit="10" d="M171.96,278.225
	c0,0,7.326-0.817,10.553-1.575"/>
<path fill="none" stroke="#000000" stroke-width="2" stroke-linecap="round" stroke-miterlimit="10" d="M171.96,267.096
	c0,0,10.78,2.13,12.78,4.796"/>
</svg>
