<?xml version="1.0" encoding="utf-8"?>
<!-- Generator: Adobe Illustrator 16.0.0, SVG Export Plug-In . SVG Version: 6.00 Build 0)  -->
<!DOCTYPE svg PUBLIC "-//W3C//DTD SVG 1.1//EN" "http://www.w3.org/Graphics/SVG/1.1/DTD/svg11.dtd">
<svg version="1.1" id="Calque_1" xmlns="http://www.w3.org/2000/svg" xmlns:xlink="http://www.w3.org/1999/xlink" x="0px" y="0px"
	 width="251.634px" height="526.265px" viewBox="0 0 251.634 526.265" enable-background="new 0 0 251.634 526.265"
	 xml:space="preserve">
<image display="none" overflow="visible" width="260" height="546" xlink:href="r.jpg"  transform="matrix(1 0 0 1 -3.8657 -21.2349)">
</image>
<path fill="none" stroke="#000000" stroke-width="3" stroke-linecap="round" stroke-miterlimit="10" d="M250.134,524.765
	l-28.25-124.5c0,0-3.25-20.833,0-29.5l3.25-109.667c0,0,1-19.329-19-59.662c0,0-28.666-63.663-61.333-94.663
	s-24.333-26.996-24.333-26.996"/>
<path fill="none" stroke="#000000" stroke-width="3" stroke-linecap="round" stroke-miterlimit="10" d="M78.468,36.777L50.134,8.444
	c0,0-11.333-10-24-6S15.801,15.5,15.801,19.139s4.667,13.306,6.667,15.306s51,60,51,60c0,0,2.437,3.675,5.666,8.579
	c6.096,9.259,15.014,22.896,15.667,24.421c1,2.333,23.667,39,52.667,21"/>
<line fill="none" stroke="#000000" stroke-width="3" stroke-linecap="round" stroke-miterlimit="10" x1="78.134" y1="118.109" x2="78.134" y2="104.776"/>
<line fill="none" stroke="#000000" stroke-width="3" stroke-linecap="round" stroke-miterlimit="10" x1="133.801" y1="90.776" x2="133.801" y2="71.109"/>
<path fill="none" stroke="#000000" stroke-width="3" stroke-linecap="round" stroke-miterlimit="10" d="M107.137,524.765
	c0,0-5.333-78.994-32-109.327s-43.667-80.671-45.333-81.005s-10-25.669-16.333-76.002S2.804,201.769,2.804,201.769
	s-7.344-42.999,12.828-50.999c0,0,10.838-5,17.172,0s21,10.667,23.667,17.667s3.667,16,4,24.333s4.666,18,6.333,22"/>
<path fill="none" stroke="#000000" stroke-width="3" stroke-linecap="round" stroke-miterlimit="10" d="M19.804,192.437
	c0,0,3.333,17.333,17,32.667c0,0,7.333,13.667,21.333,10c0,0,15.047-3.679,9.333-19"/>
<path fill="none" stroke="#000000" stroke-width="3" stroke-linecap="round" stroke-miterlimit="10" d="M56.137,235.104"/>
<path fill="none" stroke="#000000" stroke-width="3" stroke-linecap="round" stroke-miterlimit="10" d="M80.137,37.443
	c0,0,5.667-21.333,33-19c0,0,6.661,0.667,12.997,11.667c0,0,8.337,8,10.67,32c0,0-2,19-32.333,21c0,0-3.667-0.656-9.667-5.662
	S81.137,47.443,80.137,38.777"/>
<path fill="none" stroke="#000000" stroke-width="3" stroke-linecap="round" stroke-miterlimit="10" d="M107.137,192.437
	c0,0-8.333-31.997-15.333-50.331c0,0-5.667-19.994-21.667-30.664c0,0-16.333-8.336-33.667,8.997c0,0-7.108,3.685-5.554,29.176"/>
<path fill="none" stroke="#000000" stroke-width="3" stroke-linecap="round" stroke-miterlimit="10" d="M170.137,279.771
	c0,0-15.007-15-22.67-31l-8.997-9.333"/>
<path fill="none" stroke="#000000" stroke-width="3" stroke-linecap="round" stroke-miterlimit="10" d="M140.47,235.729
	c0,0-1.334,8.376-48.667,5.709c0,0-14.11-3-22.888-14.667"/>
<path fill="none" stroke="#000000" stroke-width="3" stroke-linecap="round" stroke-miterlimit="10" d="M68.765,214.083
	c0,0-4.967-11.978,9.369-14.645c0,0,23.669-0.667,60.336-21.667c0,0,11.334-10,24.667,7.333c0,0,29.475,36.509,42.667,41.667
	c0,0,10.329,5.812,14.333,15.19"/>
<path fill="none" stroke="#000000" stroke-linecap="round" stroke-miterlimit="10" d="M119.517,357.765c0,0,13.617,32.333,40.951,47
	"/>
<path fill="none" stroke="#000000" stroke-linecap="round" stroke-miterlimit="10" d="M131.467,325.436c0,0-7.199-53.667,12.567-77"
	/>
<path fill="none" stroke="#000000" stroke-linecap="round" stroke-miterlimit="10" d="M188.801,189.105
	c0,0-6.206-0.358-15.937,7.488"/>
<path fill="none" stroke="#000000" stroke-linecap="round" stroke-miterlimit="10" d="M79.803,226.771
	c0,0-14.806-6.728-9.236-23.863"/>
<path fill="none" stroke="#000000" stroke-linecap="round" stroke-miterlimit="10" d="M18.47,224.774c0,0,4.321-7.881,11.327-8.94"
	/>
<path fill="none" stroke="#000000" stroke-linecap="round" stroke-miterlimit="10" d="M5.803,189.103c0,0,5.001,2.671,14,10.671"/>
<path fill="none" stroke="#000000" stroke-linecap="round" stroke-miterlimit="10" d="M93.47,224.774
	c0,0,22.112-5.005,11.223-30.336"/>
<path fill="none" stroke="#000000" stroke-linecap="round" stroke-miterlimit="10" d="M95.803,148.548c0,0,5.903-3.515,6.785-10.478
	"/>
<path fill="none" stroke="#000000" stroke-linecap="round" stroke-miterlimit="10" d="M108.471,59.115c0,0,8-11.333,23-3"/>
<path fill="none" stroke="#000000" stroke-linecap="round" stroke-miterlimit="10" d="M100.589,50.688
	c0,0,4.543-25.572,25.545-2.905"/>
<path fill="none" stroke="#000000" stroke-linecap="round" stroke-miterlimit="10" d="M56.137,230.445c0,0,2.714,1.437,10-3.674"/>
<path fill="none" stroke="#000000" stroke-linecap="round" stroke-miterlimit="10" d="M66.137,222.778
	c0,0-2.637-18.203-11.818-18.333c0,0-7.182-0.333-6.182,9.167c0,0,1.333,9.486,4.667,13.16"/>
<path fill="none" stroke="#000000" stroke-linecap="round" stroke-miterlimit="10" d="M35.47,263.775c0,0,3.593-5.344,32.463-15.339
	c0,0,7.871-2.668,12.204-8.998"/>
</svg>
