<?xml version="1.0" encoding="utf-8"?>
<!-- Generator: Adobe Illustrator 16.0.0, SVG Export Plug-In . SVG Version: 6.00 Build 0)  -->
<!DOCTYPE svg PUBLIC "-//W3C//DTD SVG 1.1//EN" "http://www.w3.org/Graphics/SVG/1.1/DTD/svg11.dtd">
<svg version="1.1" id="Calque_1" xmlns="http://www.w3.org/2000/svg" xmlns:xlink="http://www.w3.org/1999/xlink" x="0px" y="0px"
	 width="296.5px" height="456.381px" viewBox="0 0 296.5 456.381" enable-background="new 0 0 296.5 456.381" xml:space="preserve">
<image display="none" overflow="visible" width="312" height="464" xlink:href="s.jpg"  transform="matrix(1 0 0 1 -12.1733 -9.1187)">
</image>
<path fill="none" stroke="#000000" stroke-width="3" stroke-linecap="round" stroke-miterlimit="10" d="M285.827,454.881
	c0,0-50.667-116-30-196l36-98c0,0,13.333-23.333-14.667-50c0,0-14.121-31.667-25.166-45l-0.893-1.195l-15.274-20.47
	c0,0-6.333-17.665-33.333,0s-27.666,20.666-47.333,25.999s-29.334,11.333-30,15.333s-7,21.667,20,26.667
	c0,0,12.333,4.333,16.333,6.667c0,0,42.667,14.333,56-22"/>
<path fill="none" stroke="#000000" stroke-width="3" stroke-linecap="round" stroke-miterlimit="10" d="M250.834,62.548v-18
	c0,0-0.667-13.333-20.667-28.333c0,0-27-23-49,10.333v29.333"/>
<path fill="none" stroke="#000000" stroke-width="3" stroke-linecap="round" stroke-miterlimit="10" d="M49.834,30.882
	C2.5,9.882,1.5,73.548,1.5,73.548s3.333,68,3,83s4.667,44.993,17.333,83.993S64.5,325.204,64.5,325.204s47,66.354,47,129.678"/>
<path fill="none" stroke="#000000" stroke-linecap="round" stroke-miterlimit="10" d="M4.834,73.548c0,0,16.333,10,17.333,17.667"/>
<path fill="none" stroke="#000000" stroke-width="3" stroke-linecap="round" stroke-miterlimit="10" d="M22.167,82.382
	c0,0-6.333,26.5,25.667,52.167c0,0,7.667,10.333,24.667,0c0,0,10-3,0-25.667c0,0-4.333-18.333-3.333-31c0,0,3.333-8-5-18l-13-18.333
	c0,0-6.333-3.831,2-14.916c0,0,13.333-28.751,35.667-24.751c0,0,19-2.667,23.333,19.333c0,0,16.659-20.702,31.659-17.369h17.008
	c0,0,17.333,6.369,20.333,19.702"/>
<path fill="none" stroke="#000000" stroke-width="3" stroke-linecap="round" stroke-miterlimit="10" d="M111.5,23.548
	c0,0,1.667,54,5.333,61.333c0,0,3.667,8,3.667,27c0,0,1,11.333,5.333,18.667c0,0,5,21.333-20.667,22.333"/>
<path fill="none" stroke="#000000" stroke-width="3" stroke-linecap="round" stroke-miterlimit="10" d="M103.834,152.882
	c0,0-21.912,2.722-27.333-19.806"/>
<path fill="none" stroke="#000000" stroke-width="3" stroke-linecap="round" stroke-miterlimit="10" d="M164.5,121.882
	c0,0-15.666,11.194-25,8.667c0,0-15.786,1-17.333-24.333"/>
<path fill="none" stroke="#000000" stroke-width="3" stroke-linecap="round" stroke-miterlimit="10" d="M191.027,120.553
	c0,0-1.859,5.33,12.141,4.663"/>
<path fill="none" stroke="#000000" stroke-width="3" stroke-linecap="round" stroke-miterlimit="10" d="M199.5,118.568
	c0,0,9.667,17.036,17.667,14.508"/>
<path fill="none" stroke="#000000" stroke-linecap="round" stroke-miterlimit="10" d="M192.834,128.546c0,0-42.667,18.667-41.667,64
	"/>
<path fill="none" stroke="#000000" stroke-linecap="round" stroke-miterlimit="10" d="M134.834,187.543c0,0-29.667,69,46.333,102"/>
<path fill="none" stroke="#000000" stroke-linecap="round" stroke-miterlimit="10" d="M212.5,311.209c0,0-26,3.667-56,4
	c0,0-29.333,4.333-46.667,17c0,0-11,7.001-20.667,5.667"/>
<path fill="none" stroke="#000000" stroke-linecap="round" stroke-miterlimit="10" d="M159.834,93.551c0,0,25.999-9.461,6.666-23.23
	"/>
<path fill="none" stroke="#000000" stroke-linecap="round" stroke-miterlimit="10" d="M97.5,133.332
	c0,0,15.333-20.448,22.333,11.552"/>
<line fill="none" stroke="#000000" stroke-linecap="round" stroke-miterlimit="10" x1="95.5" y1="149.884" x2="91.834" y2="135.89"/>
<line fill="none" stroke="#000000" stroke-linecap="round" stroke-miterlimit="10" x1="73.167" y1="128.546" x2="67.834" y2="111.218"/>
<path fill="none" stroke="#000000" stroke-linecap="round" stroke-miterlimit="10" d="M67.834,106.215
	c0,0-19.333-1.665-17.333,10.335l4,16.781"/>
<path fill="none" stroke="#000000" stroke-linecap="round" stroke-miterlimit="10" d="M225.834,164.882c0,0-6.334-9.668-13.334-12
	c0,0-4.39,2.503-4.166-19.55"/>
</svg>
