<?xml version="1.0" encoding="utf-8"?>
<!-- Generator: Adobe Illustrator 16.0.0, SVG Export Plug-In . SVG Version: 6.00 Build 0)  -->
<!DOCTYPE svg PUBLIC "-//W3C//DTD SVG 1.1//EN" "http://www.w3.org/Graphics/SVG/1.1/DTD/svg11.dtd">
<svg version="1.1" id="Calque_1" xmlns="http://www.w3.org/2000/svg" xmlns:xlink="http://www.w3.org/1999/xlink" x="0px" y="0px"
	 width="307.556px" height="496.349px" viewBox="0 0 307.556 496.349" enable-background="new 0 0 307.556 496.349"
	 xml:space="preserve">
<image display="none" overflow="visible" width="307" height="500" xlink:href="t.jpg"  transform="matrix(1 0 0 1 -0.9443 -5.1509)">
</image>
<path fill="none" stroke="#000000" stroke-width="3" stroke-linecap="round" stroke-miterlimit="10" d="M306.056,494.849
	c0,0-42.334-74.667-29-194c0,0-2.666-28.667,8.667-60c0,0,5.333-18-0.667-26c0,0-4-10.667-1.333-14c0,0,1.334-24-19.333-40.667
	c0,0-13.334,2.002-16.667-119.331c0,0,4.667-43.669-48-39.002c0,0-19.501,3.5-26.334,36.5s5.788,58.573,5,61.987
	c0,0,5.667,39.326,24.667,44.326c0,0,25.333,2.666,30-22.167c0,0,8.833-47.495-1.167-67.995"/>
<path fill="none" stroke="#000000" stroke-width="3" stroke-linecap="round" stroke-miterlimit="10" d="M139.724,44.516
	c0,0-3.666-22.667,15-30.667c0,0,12.333-3,14.333,0l6,11.667"/>
<path fill="none" stroke="#000000" stroke-width="3" stroke-linecap="round" stroke-miterlimit="10" d="M83.391,79.182
	c0,0-7.667-36,29-40c0,0,22-7.487,42,18.667c0,0,8,5.333,8.667,17.667c0,0-2.666,22.333,14.667,52.333c0,0,26,36.663,6,51.997
	c0,0-3.334,11-33,9c0,0-3-2.333-5.333-5.333l-8.386-16.333c0,0-4.947-8-10.614-10.333c0,0-4-2.333-9-12l-28-60
	c0,0-2.334-7-14.667-5.333c0,0-21,2-30.333,15.667c0,0-5.333,8.333-5,26.667"/>
<path fill="none" stroke="#000000" stroke-width="3" stroke-linecap="round" stroke-miterlimit="10" d="M146.466,184.798
	l6.09,14.218c6.666,12.333-9.167,29.667-9.167,29.667c-16.833,12.833-29.5,2.5-29.5,2.5L98.306,214.17
	c-13.667-13.833-13-34.326-13-34.326c-1.333-12.333-4.915-14-4.915-14c-6.667-5.667-41.015-42-41.015-42s-17.57-10.246-33.32,12.754
	c0,0-10.25,25,0,60l10.461,35.762l0.289,0.988c0,0,3.75,35.75,5.75,44.75c0,0,18,61,25.75,73c0,0,57,88,58.75,92.5
	c0,0,21,34.5,21.75,51.25"/>
<path fill="none" stroke="#000000" stroke-width="3" stroke-linecap="round" stroke-miterlimit="10" d="M33.556,193.349
	c0,0,14,28.25,43,38c0,0,4.75,1,13.75-4.5c0,0,8.5-3.5,6.75-11.25"/>
<path fill="none" stroke="#000000" stroke-linecap="round" stroke-miterlimit="10" d="M159.212,381.532c0,0-5.5,37.333-44.167,50.5"
	/>
<path fill="none" stroke="#000000" stroke-linecap="round" stroke-miterlimit="10" d="M167.556,368.349c0,0,44,35.5,86,27"/>
<path fill="none" stroke="#000000" stroke-linecap="round" stroke-miterlimit="10" d="M101.556,298.849c0,0,8.83-48.621,27-61.5"/>
<path fill="none" stroke="#000000" stroke-linecap="round" stroke-miterlimit="10" d="M22.181,210.599c0,0,2.125-7,16.25-6.375"/>
<path fill="none" stroke="#000000" stroke-linecap="round" stroke-miterlimit="10" d="M32.556,257.099c0,0,4.375-9.46,14.625-12.605
	c0,0,14.737-5.02,18.244-7.145l11.131-4.375"/>
<line fill="none" stroke="#000000" stroke-linecap="round" stroke-miterlimit="10" x1="57.931" y1="187.599" x2="69.681" y2="187.599"/>
<path fill="none" stroke="#000000" stroke-linecap="round" stroke-miterlimit="10" d="M57.931,184.349c0,0,10.75-3.125,12.5-6.75"/>
<path fill="none" stroke="#000000" stroke-linecap="round" stroke-miterlimit="10" d="M77.847,226.599
	c0,0,12.834,0.875,16.584-7.375"/>
<path fill="none" stroke="#000000" stroke-linecap="round" stroke-miterlimit="10" d="M76.556,223.599
	c0,0-6.668-13.079,1.291-19.415c0,0,3.709-3.915,10.959,0"/>
<path fill="none" stroke="#000000" stroke-linecap="round" stroke-miterlimit="10" d="M104.389,187.599c0,0,8.667,0,12.667-6.625"/>
<line fill="none" stroke="#000000" stroke-linecap="round" stroke-miterlimit="10" x1="101.556" y1="192.349" x2="123.556" y2="184.287"/>
<path fill="none" stroke="#000000" stroke-linecap="round" stroke-miterlimit="10" d="M132.389,141.189
	c0,0,17.667,2.833,25.167-6.833"/>
<line fill="none" stroke="#000000" stroke-linecap="round" stroke-miterlimit="10" x1="132.389" y1="146.522" x2="144.973" y2="141.576"/>
<path fill="none" stroke="#000000" stroke-linecap="round" stroke-miterlimit="10" d="M148.389,213.022
	c0,0-7.167,19.164-24.833,16.83"/>
<path fill="none" stroke="#000000" stroke-linecap="round" stroke-miterlimit="10" d="M148.389,208.852c0,0-6.167-11-7.667-12.667
	c0,0-2-2.833-9.833,0c0,0-10.167,4.167-12.833,9.5c0,0-3.667,4.666,1.5,18.833"/>
<path fill="none" stroke="#000000" stroke-linecap="round" stroke-miterlimit="10" d="M159.042,184.349
	c0,0,12.834,8.004,23.334-9.496c0,0,2.334-8.5-3.5-18.833c0,0-2-2.853-8.656-2.324c0,0-8.817-0.842-17.664,10.824
	c0,0-2.871,5.773,1.638,15.167"/>
<path fill="none" stroke="#000000" stroke-linecap="round" stroke-miterlimit="10" d="M167.246,40.187
	c0,0-8.333-17.459,3.238-23.563"/>
<path fill="none" stroke="#000000" stroke-linecap="round" stroke-miterlimit="10" d="M241.723,40.187c0,0,2.667,10.333-5.333,21"/>
<path fill="none" stroke="#000000" stroke-linecap="round" stroke-miterlimit="10" d="M245.39,113.639c0,0-3,2.881-9,1.881"/>
<path fill="none" stroke="#000000" stroke-linecap="round" stroke-miterlimit="10" d="M226.056,126.52c0,0-15,19.333-31.333,3.333"
	/>
<path fill="none" stroke="#000000" stroke-linecap="round" stroke-miterlimit="10" d="M223.723,117.52c0,0,1.667-9.667-7.333-21
	c0,0-11.667-6.667-21.667,6.667"/>
<path fill="none" stroke="#000000" stroke-linecap="round" stroke-miterlimit="10" d="M194.723,101.52c0,0-3.203,12.289,0,21.667"/>
<path fill="none" stroke="#000000" stroke-linecap="round" stroke-miterlimit="10" d="M210.39,169.903c0,0-6.429-6.07-17.091-4.392"
	/>
<path fill="none" stroke="#000000" stroke-linecap="round" stroke-miterlimit="10" d="M186.056,180.974
	c10.333,21.13,26.667,17.204,26.667,17.204"/>
<path fill="none" stroke="#000000" stroke-linecap="round" stroke-miterlimit="10" d="M205.723,204.185"/>
<path fill="none" stroke="#000000" stroke-linecap="round" stroke-miterlimit="10" d="M206.556,204.185c0,0-9-1.251-21.25-22.752"/>
<path fill="none" stroke="#000000" stroke-linecap="round" stroke-miterlimit="10" d="M185.306,198.466c0,0,2.907-5.397,8.432-4.478
	"/>
<line fill="none" stroke="#000000" stroke-linecap="round" stroke-miterlimit="10" x1="192.389" y1="203.5" x2="195.931" y2="197.25"/>
<path fill="none" stroke="#000000" stroke-linecap="round" stroke-miterlimit="10" d="M164.343,344.849
	c0,0-38.787-100.522,3.213-155.761"/>
</svg>
