<?xml version="1.0" encoding="utf-8"?>
<!-- Generator: Adobe Illustrator 16.0.0, SVG Export Plug-In . SVG Version: 6.00 Build 0)  -->
<!DOCTYPE svg PUBLIC "-//W3C//DTD SVG 1.1//EN" "http://www.w3.org/Graphics/SVG/1.1/DTD/svg11.dtd">
<svg version="1.1" id="Calque_1" xmlns="http://www.w3.org/2000/svg" xmlns:xlink="http://www.w3.org/1999/xlink" x="0px" y="0px"
	 width="235.04px" height="525.66px" viewBox="0 0 235.04 525.66" enable-background="new 0 0 235.04 525.66" xml:space="preserve">
<image display="none" overflow="visible" width="244" height="546" xlink:href="u.jpg"  transform="matrix(1 0 0 1 -6.793 -21.8398)">
</image>
<path fill="none" stroke="#000000" stroke-width="3" stroke-linecap="round" stroke-miterlimit="10" d="M233.54,524.16
	c0,0-22.667-64.333-15-106.333s6.708-96,6.708-96s6.625-26.006-11.708-37.672s-33.666-23.999-48.333-43.999
	c0,0-5.333-11.332-26-16.999s-42.667-14.997-58.667-26.664c0,0-7.667-6.333-13.333,12s15,33,18,37s19.333,21,36.333,21.667
	c0,0,6.334,3.333,10.334,11s26,32,26,32"/>
<path fill="none" stroke="#000000" stroke-width="3" stroke-linecap="round" stroke-miterlimit="10" d="M41.541,212.162
	c0,0-6.667-39,20-43.667"/>
<path fill="none" stroke="#000000" stroke-width="3" stroke-linecap="round" stroke-miterlimit="10" d="M61.541,168.495
	c0,0,17.297-6.45,27.697,9.52c0.347,0.533,0.687,1.091,1.017,1.675c0.326,0.576,0.644,1.178,0.953,1.806
	c10,20.333,9.333,22.009,9,24.333"/>
<path fill="none" stroke="#000000" stroke-width="3" stroke-linecap="round" stroke-miterlimit="10" d="M91.207,176.832
	c0,0,0.667-87.333,1.333-99.667S86.207,24.166,85.207,20.5s0.971-17.332,15.152-18.666s19.514,1,23.181,13s10.666,66.664,11,74.332
	s2.334,115.001,2.334,115.001"/>
<path fill="none" stroke="#000000" stroke-width="3" stroke-linecap="round" stroke-miterlimit="10" d="M143.54,205.829
	c0,0-6.1-11.013-6.666-21.329"/>
<path fill="none" stroke="#000000" stroke-width="3" stroke-linecap="round" stroke-miterlimit="10" d="M206.874,277.492
	c0,0-9-16.666-7.667-43.667c0,0-6.667-34.657-7.667-38.662c0,0-5.332-76.333-5.666-81.333s-15-72.998-19.667-76.665
	s-5.667-19.999-26-15.666c0,0-10.533,0.742-10.333,15.667"/>
<path fill="none" stroke="#000000" stroke-width="3" stroke-linecap="round" stroke-miterlimit="10" d="M110.931,266.91
	c0,0,16.776,28.75-3.224,37.25s-29.5-6.5-30.75-10.75s-15.417-35.25-15.417-35.25s-4.833-29.5-4.083-29.5s-1.25-11.663-27-22.832
	c0,0-13.75-4.168-21.75,7.832s-5.75,17.75-7,27s3.5,32.5,5,38.25s2,34,3,41s18.5,82,25.75,91.75s35.5,55.75,35.5,55.75
	s21.25,37.75,21,56.75"/>
<path fill="none" stroke="#000000" stroke-width="3" stroke-linecap="round" stroke-miterlimit="10" d="M133.207,422.494
	c0-1.667-35.384-81.854,11.642-127.26"/>
<path fill="none" stroke="#000000" stroke-width="2" stroke-linecap="round" stroke-miterlimit="10" d="M129.871,208.496
	c0,0,6.337-6.667,22.67,0"/>
<path fill="none" stroke="#000000" stroke-width="2" stroke-linecap="round" stroke-miterlimit="10" d="M80.95,212.162
	c0,0-5.712-5.117-3.561-16.725"/>
<path fill="none" stroke="#000000" stroke-width="2" stroke-linecap="round" stroke-miterlimit="10" d="M90.541,221.497
	c0,0,7.667,7.333,18-5.667"/>
<path fill="none" stroke="#000000" stroke-width="2" stroke-linecap="round" stroke-miterlimit="10" d="M110.931,203.8
	c0,0-3.843-1.031-10.571,0"/>
<path fill="none" stroke="#000000" stroke-linecap="round" stroke-miterlimit="10" d="M88.207,295.234c0,0,12,12.262,24.667-1.404"
	/>
<path fill="none" stroke="#000000" stroke-linecap="round" stroke-miterlimit="10" d="M86.541,293.83c0,0-6.794-30.394,6.667-30.666
	c0,0,11.78-6,17.724,25"/>
<path fill="none" stroke="#000000" stroke-linecap="round" stroke-miterlimit="10" d="M56.874,278.264c0,0-9.275-12.724-3-20.767
	c0,0,1.498-1.952,5.634,1.667"/>
<path fill="none" stroke="#000000" stroke-linecap="round" stroke-miterlimit="10" d="M59.508,285.164c0,0,2.366-4,10.699-3"/>
<line fill="none" stroke="#000000" stroke-linecap="round" stroke-miterlimit="10" x1="23.541" y1="280.164" x2="33.541" y2="271.497"/>
<path fill="none" stroke="#000000" stroke-linecap="round" stroke-miterlimit="10" d="M3.541,246.164c0,0,15.667,5.667,20,9.333"/>
<path fill="none" stroke="#000000" stroke-width="2" stroke-linecap="round" stroke-miterlimit="10" d="M20.874,246.164
	c0,0,16.3,49,43.983,44.667c0,0,3.35-0.999,7.35-5.666"/>
<path fill="none" stroke="#000000" stroke-width="2" stroke-linecap="round" stroke-miterlimit="10" d="M120.436,298.497
	c0,0,8.909-12.371,12.207-13.333"/>
<path fill="none" stroke="#000000" stroke-width="2" stroke-linecap="round" stroke-miterlimit="10" d="M59.508,300.291
	c0,0-9.634,12.206-23.967,14.206"/>
<path fill="none" stroke="#000000" stroke-width="2" stroke-linecap="round" stroke-miterlimit="10" d="M14.874,327.83"/>
<path fill="none" stroke="#000000" stroke-width="2" stroke-linecap="round" stroke-miterlimit="10" d="M35.541,314.497
	c0,0-14.667,1.48-20.667,13.333"/>
<path fill="none" stroke="#000000" stroke-width="2" stroke-miterlimit="10" d="M195.874,464.159c0,0-29.333,10-54.333-2.333
	c0,0-10.334-5.509-28.667,3.079c-18.333,8.588-25.097,9.254-28.048,7.921"/>
<path fill="none" stroke="#000000" stroke-width="2" stroke-miterlimit="10" d="M92.207,439.159"/>
</svg>
