<?xml version="1.0" encoding="utf-8"?>
<!-- Generator: Adobe Illustrator 16.0.0, SVG Export Plug-In . SVG Version: 6.00 Build 0)  -->
<!DOCTYPE svg PUBLIC "-//W3C//DTD SVG 1.1//EN" "http://www.w3.org/Graphics/SVG/1.1/DTD/svg11.dtd">
<svg version="1.1" id="Calque_1" xmlns="http://www.w3.org/2000/svg" xmlns:xlink="http://www.w3.org/1999/xlink" x="0px" y="0px"
	 width="244.241px" height="521.037px" viewBox="0 0 244.241 521.037" enable-background="new 0 0 244.241 521.037"
	 xml:space="preserve">
<image display="none" overflow="visible" width="249" height="526" xlink:href="v.jpg"  transform="matrix(1 0 0 1 -3.7593 -6.4629)">
</image>
<path fill="none" stroke="#000000" stroke-width="3" stroke-linecap="round" stroke-miterlimit="10" d="M242.741,519.537
	c0,0-26.5-70.5-25-148.5c0,0,2-73.5-18-107c0,0-5-29-2.5-54.5c0,0,9.5-49,14.5-63.5l13-110.5c0,0,0-18.5-14-21c0,0-14-4.5-23,18
	c0,0-3,21.5-4.5,26l-34,129c0,0-8,19-26,1.5c0,0-2.88-5.5-2.19-7.5c0,0-14.31-91.5-37.31-129l-18.5-42c0,0-5.5-13.5-27-7.5
	c0,0-15,8.5-9,25.5c0,0,14.5,29,17.5,45.5c0,0,23,93,23,94.5"/>
<path fill="none" stroke="#000000" stroke-width="3" stroke-linecap="round" stroke-miterlimit="10" d="M95.241,218.037
	c0,0-10-49.5-33.5-51.5c0,0-19.5,4-23.5,8.5c0,0-14,18,0,36.5"/>
<path fill="none" stroke="#000000" stroke-width="3" stroke-linecap="round" stroke-miterlimit="10" d="M103.741,519.537
	c0,0-11.5-36.5-32.5-67c0,0-43-63.5-52.5-101.5c0,0-16-83-16-112.5c0,0-8.5-27,19-33.5c0,0,20.76,2.5,30.88,22"/>
<path fill="none" stroke="#000000" stroke-width="3" stroke-linecap="round" stroke-miterlimit="10" d="M201.241,313.537
	c0,0,7-8,2.5-24c0,0-24-29-31-33c0,0-29.5-29-33-30.5c0,0-14.88-3.5-18.69-3.5c0,0-43.533-5.5-57.421-9.5c0,0-10.129,0-11.009,11.5
	c0,0-6.603,15.5,11.009,26l37.111,24c0,0,9,3,16,2.5c0,0,11.5,10,16.5,18.5c0,0,14.5,26,22.5,31"/>
<path fill="none" stroke="#000000" stroke-width="3" stroke-linecap="round" stroke-miterlimit="10" d="M116.074,278.037
	c0,0,4.833,12-11.667,17c0,0-14.834,3.833-21.667,0c0,0-3.167-1.166-7-11.666s0-0.834,0-0.834l-15.333-32.5"/>
<path fill="none" stroke="#000000" stroke-width="3" stroke-linecap="round" stroke-miterlimit="10" d="M72.908,280.037
	c0,0-0.333,8.334-17.333,7.834"/>
<path fill="none" stroke="#000000" stroke-width="3" stroke-linecap="round" stroke-miterlimit="10" d="M55.574,287.371
	c0,0-4.667-0.333-9.667-5.5l-15.994-16.496c0,0-6.5-5.719-8.5-9.193c0,0-3.167-3.475-6.5-4.641c0,0-7.5-3.166-8.5-5.333"/>
<path fill="none" stroke="#000000" stroke-linecap="round" stroke-miterlimit="10" d="M57.491,71.787c0,0,21-9.75,23.75-10"/>
<path fill="none" stroke="#000000" stroke-linecap="round" stroke-miterlimit="10" d="M71.741,130.037c0,0,13.75,1.5,28-5.5"/>
<path fill="none" stroke="#000000" stroke-linecap="round" stroke-miterlimit="10" d="M182.741,74.037c0,0,28.75,1.5,31.25,8.25"/>
<path fill="none" stroke="#000000" stroke-linecap="round" stroke-miterlimit="10" d="M203.741,132.979c0,0-12.5,1.077-21-2.808"/>
<path fill="none" stroke="#000000" stroke-linecap="round" stroke-miterlimit="10" d="M165.991,192.287
	c0,0-13.629-1.401-20.439,0.549"/>
<path fill="none" stroke="#000000" stroke-linecap="round" stroke-miterlimit="10" d="M125.741,192.836c0,0-10.5-1.299-18,1.701"/>
<path fill="none" stroke="#000000" stroke-linecap="round" stroke-miterlimit="10" d="M40.991,188.037c0,0,13.25-11,24.5-9"/>
<path fill="none" stroke="#000000" stroke-linecap="round" stroke-miterlimit="10" d="M88.571,251.037c0,0,6.92,1,8.92-9v-11.75"/>
<path fill="none" stroke="#000000" stroke-linecap="round" stroke-miterlimit="10" d="M97.491,230.287"/>
<path fill="none" stroke="#000000" stroke-linecap="round" stroke-miterlimit="10" d="M97.491,230.287c0,0,0-3.071-4.46-8"/>
<path fill="none" stroke="#000000" stroke-linecap="round" stroke-miterlimit="10" d="M63.629,244.037c0,0-12.889-16.25-2.139-27.75
	"/>
<path fill="none" stroke="#000000" stroke-linecap="round" stroke-miterlimit="10" d="M15.491,276.037
	c0,0,14.926,4.117,20.213-4.691"/>
<path fill="none" stroke="#000000" stroke-linecap="round" stroke-miterlimit="10" d="M29.241,323.037c0,0,6.689-8.5,27.97-15.25"/>
<path fill="none" stroke="#000000" stroke-linecap="round" stroke-miterlimit="10" d="M57.21,306.287c0,0,14.53-3.75,22.28-12.25"/>
<path fill="none" stroke="#000000" stroke-linecap="round" stroke-miterlimit="10" d="M57.21,280.037c0,0,9.864-4,15.697-2"/>
<path fill="none" stroke="#000000" stroke-linecap="round" stroke-miterlimit="10" d="M60.408,252.537
	c0,0-15.917-6.037-13.667,7.981c0,0,0.167,12.208,8.833,18.238"/>
<path fill="none" stroke="#000000" stroke-linecap="round" stroke-miterlimit="10" d="M81.241,269.787c0,0,1.176,14.187,7.33,20.5
	c0,0,6.42,2.5,11.67,1.25c0,0,6.25,0,9.25-5.5c0,0,0.75-4.869,0-8.56"/>
<path fill="none" stroke="#000000" stroke-linecap="round" stroke-miterlimit="10" d="M178.741,251.065c0,0-7-2.936-12.75-1.107"/>
<path fill="none" stroke="#000000" stroke-linecap="round" stroke-miterlimit="10" d="M130.491,294.037
	c0,0-14.79,11.821-13.783,55.996c0.008,0.332,0.017,0.667,0.026,1.004c0,0-2.075,33.75,6.841,57l11.708,34.25"/>
<path fill="none" stroke="#000000" stroke-linecap="round" stroke-miterlimit="10" d="M196.241,442.287c0,0-12.75,7.5-35.25,7.5
	c0,0-20.424-0.25-35.087,10c0,0-3.663,7.5-31.163,7.25"/>
<path fill="none" stroke="#000000" stroke-linecap="round" stroke-miterlimit="10" d="M79.491,343.787c0,0,10.5-4.25,18-22.5
	c0,0,4.75-21.25,25.5-36.25"/>
</svg>
