<?xml version="1.0" encoding="utf-8"?>
<!-- Generator: Adobe Illustrator 16.0.0, SVG Export Plug-In . SVG Version: 6.00 Build 0)  -->
<!DOCTYPE svg PUBLIC "-//W3C//DTD SVG 1.1//EN" "http://www.w3.org/Graphics/SVG/1.1/DTD/svg11.dtd">
<svg version="1.1" id="Calque_1" xmlns="http://www.w3.org/2000/svg" xmlns:xlink="http://www.w3.org/1999/xlink" x="0px" y="0px"
	 width="286.313px" height="536.826px" viewBox="0 0 286.313 536.826" enable-background="new 0 0 286.313 536.826"
	 xml:space="preserve">
<image display="none" overflow="visible" width="299" height="546" xlink:href="w.jpg"  transform="matrix(1 0 0 1 -7.8535 -10.6738)">
</image>
<path fill="none" stroke="#000000" stroke-width="3" stroke-linecap="round" stroke-miterlimit="10" d="M284.813,535.326
	c0,0-31.333-73.667-35.333-155c0,0,0.666-77.332-19.334-125.332c0,0-8.667-15.333-6-61.333c0,0,2-46.585,5.5-55.835
	c0,0,7.25-33.75,5.75-61.5l-2.25-53.75c0,0,1-9-12.5-12.75c0,0-16.5-4.5-20,17l-15.5,93.5l-7,35c0,0-0.75,17.5-1.5,23.25
	c0,0-2,11-12,12.5c0,0-5.75,3.5-6.25-14.75c0,0-1.75-52.75-6.75-68.75l-25-93.25c0,0-5.75-19-26-10.75c0,0-15.75,0.5-11,23.25
	c0,0,10.5,40.75,12.75,68c0,0,2.92,45.752,7.801,66.664c0.066,0.283,0.132,0.562,0.199,0.836c0,0,5.25,25.5,5,31"/>
<path fill="none" stroke="#000000" stroke-linecap="round" stroke-miterlimit="10" d="M127.646,191.076
	c0,0-7.39-2.016-20.243,10.061c-2.828,2.657-5.921,5.996-9.257,10.189"/>
<path fill="none" stroke="#000000" stroke-width="3" stroke-linecap="round" stroke-miterlimit="10" d="M106.396,201.138
	c0,0-24.5-54.812-33.5-64.812c0,0-25.75-43.5-32.25-60.25c0,0-8.5-29-21.75-26c0,0-23.75-2.25-15.75,29.25c0,0,12.75,37,21.5,49
	c0,0,11.5,26,20.25,49.25c0,0,15.5,32,17.5,33.75"/>
<path fill="none" stroke="#000000" stroke-width="3" stroke-linecap="round" stroke-miterlimit="10" d="M91.646,226.326
	c0,0-18.25-29.25-36.5-9.75c0,0-16.5,11.75-11.75,58.25c0,0,2.75,46.5,18.25,77.5c0,0,14,45.75,39.75,72.5c0,0,35.25,40,42.5,110.5"
	/>
<path fill="none" stroke="#000000" stroke-width="3" stroke-linecap="round" stroke-miterlimit="10" d="M230.48,283.656
	c0,0,8.334-8.333-32-24.333c0,0-28.334-17.667-42.334-27.333c0,0-5.667-8-28.5-6c0,0-41.167,2.667-55.5,1.667
	c0,0-8.368,0.333-8.333,8c0,0-4,10.667,5.333,20.667c0,0,12.667,12.333,32,16c0,0,18,8,37.333,1"/>
<path fill="none" stroke="#000000" stroke-linecap="round" stroke-miterlimit="10" d="M223.146,349.988c0,0-21.667-4.334-49-38.667"
	/>
<line fill="none" stroke="#000000" stroke-linecap="round" stroke-miterlimit="10" x1="201.48" y1="240.321" x2="176.854" y2="245.631"/>
<line fill="none" stroke="#000000" stroke-linecap="round" stroke-miterlimit="10" x1="49.813" y1="274.654" x2="67.48" y2="266.321"/>
<path fill="none" stroke="#000000" stroke-linecap="round" stroke-miterlimit="10" d="M49.813,250.988c0,0,4.333-3.816,21,17.425
	l11.667,12.908c0,0,12.333,7.667,21.333-5.333"/>
<path fill="none" stroke="#000000" stroke-linecap="round" stroke-miterlimit="10" d="M106.396,283.656
	c0,0-4.916,10.664-29.583,16.998c0,0-17.333,4.001-25,12.334"/>
<path fill="none" stroke="#000000" stroke-linecap="round" stroke-miterlimit="10" d="M124.48,58.664c0,0-12.667,4-21,4"/>
<path fill="none" stroke="#000000" stroke-linecap="round" stroke-miterlimit="10" d="M127.646,119.33
	c0,0-10.833,2.667-13.667,3.667"/>
<path fill="none" stroke="#000000" stroke-linecap="round" stroke-miterlimit="10" d="M218.813,76.997
	c0,0-10.333-5.334-17.333-1.667"/>
<path fill="none" stroke="#000000" stroke-linecap="round" stroke-miterlimit="10" d="M208.813,133.33c0,0-10.626,4-19.646-4.333"/>
<line fill="none" stroke="#000000" stroke-linecap="round" stroke-miterlimit="10" x1="32.48" y1="117.33" x2="42.538" y2="115.664"/>
<line fill="none" stroke="#000000" stroke-linecap="round" stroke-miterlimit="10" x1="57.48" y1="172.997" x2="66.48" y2="167.664"/>
<path fill="none" stroke="#000000" stroke-linecap="round" stroke-miterlimit="10" d="M174.813,194.33c-2-0.667-7.667-8.667-23,0"/>
<line fill="none" stroke="#000000" stroke-linecap="round" stroke-miterlimit="10" x1="183.146" y1="185.663" x2="176.854" y2="181.329"/>
<path fill="none" stroke="#000000" stroke-linecap="round" stroke-miterlimit="10" d="M76.813,250.721c0,0-11.926-7.356-8.63-22.043
	"/>
<path fill="none" stroke="#000000" stroke-linecap="round" stroke-miterlimit="10" d="M82.48,250.721h14.333
	c0,0,10.833-2.064,9.583-21.064"/>
<path fill="none" stroke="#000000" stroke-width="3" stroke-linecap="round" stroke-miterlimit="10" d="M167.813,304.986
	c0,0-19.334-26.667-33.667-28.667"/>
<path fill="none" stroke="#000000" stroke-linecap="round" stroke-miterlimit="10" d="M167.813,400.986c0,0-37.333-35-14.333-109"/>
</svg>
