<?xml version="1.0" encoding="utf-8"?>
<!-- Generator: Adobe Illustrator 16.0.0, SVG Export Plug-In . SVG Version: 6.00 Build 0)  -->
<!DOCTYPE svg PUBLIC "-//W3C//DTD SVG 1.1//EN" "http://www.w3.org/Graphics/SVG/1.1/DTD/svg11.dtd">
<svg version="1.1" id="Calque_1" xmlns="http://www.w3.org/2000/svg" xmlns:xlink="http://www.w3.org/1999/xlink" x="0px" y="0px"
	 width="361.457px" height="518.013px" viewBox="0 0 361.457 518.013" enable-background="new 0 0 361.457 518.013"
	 xml:space="preserve">
<image display="none" overflow="visible" width="374" height="523" xlink:href="x.jpg"  transform="matrix(1 0 0 1 -6.0435 -6.4868)">
</image>
<path fill="none" stroke="#000000" stroke-width="3" stroke-linecap="round" stroke-miterlimit="10" d="M359.957,516.513
	c0,0-85.999-101-105.333-228.333c0,0-14.667-106.666-14.667-109.999c0,0-1.999-18.666-9.333-33.999c0,0-20-50-28-105.333
	c0,0-2.624-20-21.312-22.667L109.957,1.516c0,0-7.333-0.667-16.667,6.667L56.623,40.849c0,0-12.667,10.667-6.667,20.667
	c0,0,2.667,12.667,23.333,8.667c0,0,24-2,44.667-18.667c0,0,8.667-6,11.333-22.667"/>
<path fill="none" stroke="#000000" stroke-width="3" stroke-linecap="round" stroke-miterlimit="10" d="M167.29,52.849
	c0,0-8.667,8.667-20.667,12.667c0,0-9.213,2.027-31.273-11.986"/>
<path fill="none" stroke="#000000" stroke-width="3" stroke-linecap="round" stroke-miterlimit="10" d="M146.873,67.347
	c0,0-2.667,0.833-2.5,16.417c0,0,1.333,27,3.583,43.5c0,0-2.432,4.75-3.591,6"/>
<path fill="none" stroke="#000000" stroke-linecap="round" stroke-miterlimit="10" d="M181.312,127.263c0,0-13.355,1.5-33.355-1.5"
	/>
<path fill="none" stroke="#000000" stroke-width="3" stroke-linecap="round" stroke-miterlimit="10" d="M155.207,133.263"/>
<path fill="none" stroke="#000000" stroke-width="3" stroke-linecap="round" stroke-miterlimit="10" d="M146.161,123.513
	c0,0,2.045-2.75-11.705-3.75c0,0-48-8.75-60.5-15.25c0,0-10.753-0.535-20.25,0c0,0-10.5-4.25-13.5,26.5c0,0-5.5,70.5,15.5,76.25"/>
<path fill="none" stroke="#000000" stroke-width="3" stroke-linecap="round" stroke-miterlimit="10" d="M32.207,202.263v-48
	c0,0,0.35-6.25,7.35-15.75"/>
<path fill="none" stroke="#000000" stroke-linecap="round" stroke-miterlimit="10" d="M88.707,141.263c0,0,6,28.5,13.5,39"/>
<path fill="none" stroke="#000000" stroke-linecap="round" stroke-miterlimit="10" d="M138.207,143.763c0,0-5.75,5.75-11,20
	c0,0-3.5,9.25-13,16.5"/>
<path fill="none" stroke="#000000" stroke-linecap="round" stroke-miterlimit="10" d="M77.457,199.013c0,0,17.75-7,24.75-17.25h16
	c0,0,25.818,2,26.159,36.75"/>
<path fill="none" stroke="#000000" stroke-width="3" stroke-linecap="round" stroke-miterlimit="10" d="M176.207,187.013
	c0,0-21.75,10-28.25,29c0,0-5.5,6.75-8,9.25l-17.5,21.25"/>
<path fill="none" stroke="#000000" stroke-linecap="round" stroke-miterlimit="10" d="M138.207,225.513c0,0-19.25-12-40,5.5"/>
<line fill="none" stroke="#000000" stroke-linecap="round" stroke-miterlimit="10" x1="92.913" y1="232.349" x2="134.122" y2="232.349"/>
<path fill="none" stroke="#000000" stroke-width="3" stroke-linecap="round" stroke-miterlimit="10" d="M147.957,250.013
	c0,0-15,8-45.75-11c0,0-21.5-15.25-26-22.25c0,0-7.5-7-15.25-7.5c0,0-10.8-1.75-21.4-7"/>
<path fill="none" stroke="#000000" stroke-width="3" stroke-linecap="round" stroke-miterlimit="10" d="M39.557,202.263h-10.35
	c0,0-5.25,0.75-17.25,16.25l-8.75,12.5c0,0-6,5.5,4.5,25.25c0,0,9.5,15,17.25,20.25c0,0,26.25,15.25,45.25,45.25
	c0,0,8.25,11.75,13.5,30.5l32.75,54.25c0,0,13.5,10.75,20.5,28c0,0,19,19.5,32.5,30.25c0,0,18.75,25.5,31,51.75"/>
</svg>
