<?xml version="1.0" encoding="utf-8"?>
<!-- Generator: Adobe Illustrator 16.0.0, SVG Export Plug-In . SVG Version: 6.00 Build 0)  -->
<!DOCTYPE svg PUBLIC "-//W3C//DTD SVG 1.1//EN" "http://www.w3.org/Graphics/SVG/1.1/DTD/svg11.dtd">
<svg version="1.1" xmlns="http://www.w3.org/2000/svg" xmlns:xlink="http://www.w3.org/1999/xlink" x="0px" y="0px" width="362px"
	 height="478.64px" viewBox="0 0 362 478.64" enable-background="new 0 0 362 478.64" xml:space="preserve">
<g id="Calque_1" display="none">
	<image display="inline" overflow="visible" width="362" height="478" xlink:href="y.jpg" >
	</image>
</g>
<g id="Calque_2">
	<path fill="none" stroke="#000000" stroke-width="3" stroke-linecap="round" stroke-miterlimit="10" d="M348,478
		c0,0-46.332-98.334-59.666-167c0,0-11.084-22.25,1.666-44.25s18.25-40.25,18.25-41s15.5-43.75,19.5-47.5s3-28.5,3-30
		s3.75-39,14.75-55l12-31.75c0,0,4.25-12.75-11.25-15.75s-37,13.5-38.5,20.25c0,0-7.422,8.905-10.157,25.934
		c-0.234,1.462-0.435,2.985-0.593,4.566c-2,20-15.25,36-18,39s-16,11.5-30.75-4"/>
	<path fill="none" stroke="#000000" stroke-linecap="round" stroke-miterlimit="10" d="M322.25,99c0,0-6.006-10.228-24.503-7.989"/>
	<path fill="none" stroke="#000000" stroke-linecap="round" stroke-miterlimit="10" d="M299,151.5c0,0-10.75-11.251-24.25-13"/>
	<path fill="none" stroke="#000000" stroke-linecap="round" stroke-miterlimit="10" d="M77.5,68.5c0,0-5.75,10.5-22.75,9.75"/>
	<path fill="none" stroke="#000000" stroke-linecap="round" stroke-miterlimit="10" d="M86,102.5c0,0-4.75,13.25-23.5,17.5"/>
	<path fill="none" stroke="#000000" stroke-width="3" stroke-linecap="round" stroke-miterlimit="10" d="M96.25,135.5
		c6,7.75,18.75,5.5,18.75,5.5"/>
	<path fill="none" stroke="#000000" stroke-width="3" stroke-linecap="round" stroke-miterlimit="10" d="M85,151.5
		c0,0,12.5-5.25,11.25-15S82,73.394,82,73.394S67.5,21.5,64,18.5S57.5,2.25,40,8c0,0-12.25,1.5-6,22.75S44.25,68.5,44.25,68.5
		s2.75,20.75,3,24.5s6.25,29.75,7.5,33s2.25,19.5,2.75,31.5s3.25,35.25,14.5,55.75S102.25,269,102.25,269s28.25,38.5,32.25,41.5
		s34.5,53,38.5,78.75S192.75,478,192.75,478"/>
	<path fill="none" stroke="#000000" stroke-width="3" stroke-linecap="round" stroke-miterlimit="10" d="M108.667,121.333
		c0,0,4.667,7.333,24.667,32.667s16,26.333,19.667,31l15.667,20.667c0,0,5.666,8.334,22.333,2.667c0,0,13.334-9.333,9.667-19.333
		S186,168,186,168s-7.333-24.667-10.333-29.5S143,85.333,143,85.333s-12.36-17.091-30.513-7.045s-19.125,43.624-19.132,43.593"/>
	<path fill="none" stroke="#000000" stroke-width="3" stroke-linecap="round" stroke-miterlimit="10" d="M201.305,200
		c0,0,25.695,7.667,25.362-19.667L225.334,167c0,0-6.001-19.001-8.334-28.5s-22.666-70-22.666-70s-22.343-31.353-54.505,13.407"/>
	<path fill="none" stroke="#000000" stroke-width="3" stroke-linecap="round" stroke-miterlimit="10" d="M226.67,164
		c0,0,19.163,5.941,21.58-22.696s0-50.613,0-50.613S244,77.583,242,75.125S241.001,61.667,240.334,60S228,34.333,203,40.667
		c0,0-10.867,3.071-17.267,20.369"/>
	<path fill="none" stroke="#000000" stroke-linecap="round" stroke-miterlimit="10" d="M201.305,177.167c0,0,11.028-20,20.028,1.167
		"/>
	<path fill="none" stroke="#000000" stroke-linecap="round" stroke-miterlimit="10" d="M242.333,146.5c0,0,0.834-13-10.666-12
		s-9.58,12.759-10.334,14.833"/>
	<path fill="none" stroke="#000000" stroke-linecap="round" stroke-miterlimit="10" d="M225.167,159.5c0,0,12.193,5.5,17.18-7.333"
		/>
	<path fill="none" stroke="#000000" stroke-linecap="round" stroke-miterlimit="10" d="M223.5,185.167c0,0-4,15.5-19,12.167"/>
	<path fill="none" stroke="#000000" stroke-linecap="round" stroke-miterlimit="10" d="M179.167,202.333c0,0,16.833,2.667,19.333-8"
		/>
	<path fill="none" stroke="#000000" stroke-linecap="round" stroke-miterlimit="10" d="M185.733,171c0,0-3.067-4.106-6.567-2.386
		c-14.691,7.22-7.833,23.72-7.833,23.72"/>
	
		<line fill="none" stroke="#000000" stroke-linecap="round" stroke-miterlimit="10" x1="197.5" y1="187.5" x2="185.733" y2="170.333"/>
	<path fill="none" stroke="#000000" stroke-linecap="round" stroke-miterlimit="10" d="M157.5,160.671
		c0,0,10.478-10.33,16.333-11.338"/>
	<path fill="none" stroke="#000000" stroke-linecap="round" stroke-miterlimit="10" d="M196,147.667c0,0,3.5-7.333,13-11"/>
	
		<line fill="none" stroke="#000000" stroke-linecap="round" stroke-miterlimit="10" x1="225.167" y1="119.167" x2="233.757" y2="115.833"/>
	<path fill="none" stroke="#000000" stroke-linecap="round" stroke-miterlimit="10" d="M252.5,279.25c0,0-37.75-7.25-57,24"/>
	<path fill="none" stroke="#000000" stroke-linecap="round" stroke-miterlimit="10" d="M167.25,314.75c0,0,15.29,0.729,28.25-12.5"
		/>
	<path fill="none" stroke="#000000" stroke-linecap="round" stroke-miterlimit="10" d="M139.829,168.614
		C139,169,131.75,173.084,126.5,178.917s-19.776,4.345-18.5,4.292c6.25-0.263-21.5,2.148-34.75,14.595"/>
	<path fill="none" stroke="#000000" stroke-width="3" stroke-linecap="round" stroke-miterlimit="10" d="M112,180"/>
	<path fill="#FFFFFF" stroke="#000000" stroke-linecap="round" stroke-miterlimit="10" d="M122.462,160.671"/>
	<path fill="#FFFFFF" stroke="#000000" stroke-linecap="round" stroke-miterlimit="10" d="M462.945,308.504"/>
</g>
</svg>
