<?xml version="1.0" encoding="utf-8"?>
<!-- Generator: Adobe Illustrator 16.0.0, SVG Export Plug-In . SVG Version: 6.00 Build 0)  -->
<!DOCTYPE svg PUBLIC "-//W3C//DTD SVG 1.1//EN" "http://www.w3.org/Graphics/SVG/1.1/DTD/svg11.dtd">
<svg version="1.1" id="Calque_1" xmlns="http://www.w3.org/2000/svg" xmlns:xlink="http://www.w3.org/1999/xlink" x="0px" y="0px"
	 width="80.738px" height="142.039px" viewBox="0 0 80.738 142.039" enable-background="new 0 0 80.738 142.039"
	 xml:space="preserve">
<path fill="none" stroke="#000000" stroke-linecap="round" stroke-miterlimit="10" d="M55.813,141.039c0,0,2.5-17.721,12.25-31.221
	c0,0,10.5-19.375,11.375-23.75c0,0,1.375-4.375-1.75-10.375l-9.912-18.125"/>
<path fill="none" stroke="#000000" stroke-linecap="round" stroke-miterlimit="10" d="M67.775,57.569c0,0-0.377-3.502-6.252-2.002
	l-5.711,2.502"/>
<path fill="none" stroke="#000000" stroke-linecap="round" stroke-miterlimit="10" d="M54.313,52.569c0,0,1.875-1,1.5-6.5
	c0,0,0.75-8,1.375-10.125c0,0,2.75-13.75,2.375-16.25c0,0-1.5-17.5,4.125-18.5c0,0,5.25-1.75,7.75,5.25c0,0,1.875,23,1.625,24.625
	c0,0-1.75,18.5-2.75,21.5c0,0-1.857,6.241,0.104,9.83"/>
<path fill="none" stroke="#000000" stroke-linecap="round" stroke-miterlimit="10" d="M15.688,141.039c0,0,5-16.596-3.375-39.471
	c0,0-1.375-4.625,0-10.75c0,0-0.6-7-0.611-10.75"/>
<path fill="none" stroke="#000000" stroke-linecap="round" stroke-miterlimit="10" d="M11.701,80.068c0,0,0.611-7.654,3.486-10.328
	c0,0,4.125-6.172,10.625-2.547c0,0,5.455,1.099,11.634,11.623c0.073,0.125,0.146,0.25,0.221,0.377c0,0,1.912,3.191,1.771,9
	c0,0-0.193,1.992-0.625,3.625c0,0-0.125,4.25-4.375,3.5c0,0-3.125-0.25-5.375-3.5c0,0-5.25-7.125-6.75-8.375
	c0,0-1.538-3.375-5.146-3.375"/>
<path fill="none" stroke="#000000" stroke-linecap="round" stroke-miterlimit="10" d="M39.878,90.193c0,0,3.937,5.375,8.312,4
	c0,0,6.375-2.375,4-7"/>
<path fill="none" stroke="#000000" stroke-linecap="round" stroke-miterlimit="10" d="M21.563,65.444c0,0,4-14.75,12.375-13.5
	c0,0,6-1,8.625,16.25c0,0,2.128,13.947,6.727,17.935c0.131,0.113,0.266,0.221,0.398,0.314c0,0,6.875,3.25,8.75-5.125
	c0,0-1.625-22.274-4.625-29.449c0,0-1-12.175-10-10.8c0,0-7.5-1.125-8.5,10.125"/>
<path fill="none" stroke="#000000" stroke-width="0.5" stroke-linecap="round" stroke-miterlimit="10" d="M63.699,20.944
	c0,0,2.414-1.25,4.076,0"/>
<path fill="none" stroke="#000000" stroke-width="0.5" stroke-linecap="round" stroke-miterlimit="10" d="M60.813,35.569
	c0,0,5.25,1.75,8,0"/>
<path fill="none" stroke="#000000" stroke-width="0.5" stroke-linecap="round" stroke-miterlimit="10" d="M58.438,71.693
	c0,0,3-1.5,3.875-6.25"/>
<path fill="none" stroke="#000000" stroke-width="0.5" stroke-linecap="round" stroke-miterlimit="10" d="M59.313,77.318
	c0,0,4.875,0.5,7.625-5.625"/>
<path fill="none" stroke="#000000" stroke-width="0.5" stroke-linecap="round" stroke-miterlimit="10" d="M59.313,78.818
	c0,0,3.625,2.875,6.125,6.125"/>
<path fill="none" stroke="#000000" stroke-width="0.5" stroke-linecap="round" stroke-miterlimit="10" d="M13.813,83.818
	c0,0,4.5,2.875,7.75,0"/>
<path fill="none" stroke="#000000" stroke-width="0.5" stroke-linecap="round" stroke-miterlimit="10" d="M19.188,95.408
	c0,0,3-3.738,8.25-4.602"/>
<path fill="none" stroke="#000000" stroke-width="0.5" stroke-linecap="round" stroke-miterlimit="10" d="M38.938,106.568
	c0,0-2-6.801,0-12.148"/>
<path fill="none" stroke="#000000" stroke-width="0.5" stroke-linecap="round" stroke-miterlimit="10" d="M44.313,104.943
	c0,0-2.875-5.924-3-11.836"/>
<line fill="none" stroke="#000000" stroke-linecap="round" stroke-miterlimit="10" x1="59.438" y1="51.569" x2="64.699" y2="54.444"/>
<path fill="none" stroke="#000000" stroke-linecap="round" stroke-miterlimit="10" d="M38.049,89.361"/>
<path fill="none" stroke="#000000" stroke-linecap="round" stroke-miterlimit="10" d="M32.313,89.361"/>
<path fill="none" stroke="#000000" stroke-width="0.5" stroke-linecap="round" stroke-miterlimit="10" d="M33.813,94.027
	c0,0-0.018-4.408,3.854-3.221"/>
<path fill="none" stroke="#000000" stroke-width="0.5" stroke-linecap="round" stroke-miterlimit="10" d="M54.979,75.693
	c0,0-3.084-2.063-7.167,1.637c0,0-0.416,3.809,1.084,7.129"/>
<path fill="none" stroke="#000000" stroke-width="0.5" stroke-linecap="round" stroke-miterlimit="10" d="M50.146,85.098
	c0,0,3.834,0.791,6.25-0.64"/>
<path fill="none" stroke="#000000" stroke-width="0.5" stroke-linecap="round" stroke-miterlimit="10" d="M55.813,76.527
	c0,0,1.834,3.668,1.417,6.5"/>
<path fill="none" stroke="#000000" stroke-width="0.5" stroke-linecap="round" stroke-miterlimit="10" d="M46.729,83.818v0.641
	c0,0-5.218,1.223-5.083,4.484c0,0,2.216,3.771,5.083,4.164"/>
<path fill="none" stroke="#000000" stroke-width="0.5" stroke-linecap="round" stroke-miterlimit="10" d="M47.313,93.107
	c0,0,3.332-0.529,4.417-4.164"/>
<polygon opacity="0.49" fill="#BFBFBF" stroke="#000000" stroke-linecap="round" stroke-miterlimit="10" enable-background="new    " points="
	13.063,1.944 65.063,1.944 65.063,14.569 29.688,14.569 67.688,57.569 67.688,70.089 24.125,69.741 24.125,77.33 1,64.013 
	23.813,49.694 23.938,57.569 51.063,57.569 13.125,14.444 "/>
<path fill="#ED8888" stroke="#000000" stroke-width="3" stroke-linecap="round" stroke-miterlimit="10" d="M76.063,46.444"/>
</svg>
