<?xml version="1.0" encoding="UTF-8"?>
<svg version="1.1" viewBox="0 0 87.923 74.769" xmlns="http://www.w3.org/2000/svg">
 <g transform="translate(-331.04 -494.97)">
  <path d="m331.66 496.17c1.569-0.3957 3.1472-0.77143 4.7348-1.1272 4.76 5.9618 10.181 11.32 15.352 16.917 1.1235-1.243 2.2625-2.4705 3.4377-3.6582 1.8986-0.069 3.8078-0.0879 5.7229-0.0849 2.5884-3.8724 7.3892-5.2033 11.753-3.8787 2.1218-3.2446 6.0222-4.6053 9.7711-3.7742 6.2447 4.0798 9.0242 11.481 11.52 18.184 4.1418-4.288 7.2738-9.5858 12.092-13.183 3.4903-2.6361 8.0852-2.5221 12.1-1.3194 0.0674 1.5318 1.4334 3.3216 0.35086 4.7377-2.2628 1.5431-5.3054 2.3821-6.4175 5.1555-2.9798 6.57-6.8117 12.751-8.9926 19.67-3.5604 6.2324-8.2856 11.783-13.314 16.896-3.8413 3.0666 0.88759 8.9543-2.7916 12.071-3.7342 3.6002-8.1026 7.3773-13.677 6.8496 0.0942-1.4532 0.28286-4.3597 0.37716-5.813-0.9434 1.7966-1.1473 3.712-0.61154 5.7462-4.8546-0.43655-9.6496-1.5389-13.946-3.887-1.0331-3.9529-0.75402-8.403-3.1676-11.854-6.5979-9.6667-7.5256-21.7-11.355-32.487-4.9591-7.8712-16.15-14.403-12.938-25.159z" fill="none" stroke="#171717" stroke-miterlimit="10" stroke-width=".125"/>
  <path d="m331.66 496.17c1.569-0.3957 3.1472-0.77143 4.7348-1.1272 4.76 5.9618 10.181 11.32 15.352 16.917 1.1235-1.243 2.2625-2.4705 3.4377-3.6582 1.8986-0.069 3.8078-0.0879 5.7229-0.0849 2.5884-3.8724 7.3892-5.2033 11.753-3.8787 2.1218-3.2446 6.0222-4.6053 9.7711-3.7742 6.2447 4.0798 9.0242 11.481 11.52 18.184 4.1418-4.288 7.2738-9.5858 12.092-13.183 3.4903-2.6361 8.0852-2.5221 12.1-1.3194 0.0674 1.5318 1.4334 3.3216 0.35086 4.7377-2.2628 1.5431-5.3054 2.3821-6.4175 5.1555-2.9798 6.57-6.8117 12.751-8.9926 19.67-3.5604 6.2324-8.2856 11.783-13.314 16.896-3.8413 3.0666 0.88759 8.9543-2.7916 12.071-3.7342 3.6002-8.1026 7.3773-13.677 6.8496 0.0942-1.4532 0.28286-4.3597 0.37716-5.813-0.9434 1.7966-1.1473 3.712-0.61154 5.7462-4.8546-0.43655-9.6496-1.5389-13.946-3.887-1.0331-3.9529-0.75402-8.403-3.1676-11.854-6.5979-9.6667-7.5256-21.7-11.355-32.487-4.9591-7.8712-16.15-14.403-12.938-25.159z" fill="#171717"/>
  <path d="m332.86 497.31c5.3183-1.4743 7.477 4.7317 9.1025 8.5724-1.4601 1.0422-2.9089 2.1002-4.3636 3.1513-3.4185-2.9082-5.9531-7.0976-4.7388-11.724z" fill="none" stroke="#fff" stroke-miterlimit="10" stroke-width=".125"/>
  <path d="m332.86 497.31c5.3183-1.4743 7.477 4.7317 9.1025 8.5724-1.4601 1.0422-2.9089 2.1002-4.3636 3.1513-3.4185-2.9082-5.9531-7.0976-4.7388-11.724z" fill="#fff"/>
  <path d="m374.8 503.41c3.6212-2.3115 8.6242-1.4773 10.513 2.5966-0.44288 7.0003-0.18235 14.095-1.6524 21-2.165-2.9719-7.0705-1.3644-8.1342-5.2075 1.9646-0.94044 3.9539-1.8376 5.9031-2.8179-2.1057 0.0282-4.2049 0.0899-6.2948 0.10875-0.0521-5.2342-0.63643-10.453-0.33463-15.68z" fill="none" stroke="#fff" stroke-miterlimit="10" stroke-width=".125"/>
  <path d="m374.8 503.41c3.6212-2.3115 8.6242-1.4773 10.513 2.5966-0.44288 7.0003-0.18235 14.095-1.6524 21-2.165-2.9719-7.0705-1.3644-8.1342-5.2075 1.9646-0.94044 3.9539-1.8376 5.9031-2.8179-2.1057 0.0282-4.2049 0.0899-6.2948 0.10875-0.0521-5.2342-0.63643-10.453-0.33463-15.68z" fill="#fff"/>
  <path d="m338.67 509.9c1.5277-1.4624 3.0618-2.923 4.768-4.1751 0.39595 0.65899 1.1878 1.977 1.5838 2.636-1.4065 1.862-2.9348 3.6333-4.6058 5.2695-0.59479-1.2512-1.1768-2.4947-1.746-3.7304z" fill="none" stroke="#fff" stroke-miterlimit="10" stroke-width=".125"/>
  <path d="m338.67 509.9c1.5277-1.4624 3.0618-2.923 4.768-4.1751 0.39595 0.65899 1.1878 1.977 1.5838 2.636-1.4065 1.862-2.9348 3.6333-4.6058 5.2695-0.59479-1.2512-1.1768-2.4947-1.746-3.7304z" fill="#fff"/>
  <path d="m363.26 508.8c1.2882-3.4554 6.1034-4.0632 9.2931-3.1885 0.14567 6.1861 0.11712 12.402 1.3892 18.498-2.029 0.74087-4.3018 1.2031-5.641 3.0717 2.3124-0.223 4.5861-0.75555 6.8531-1.2839 0.42182 1.0142 0.84955 2.0399 1.2832 3.0772-2.112 0.25107-4.1846 0.68887-6.2128 1.2953-5.276-5.8092-6.2926-13.985-6.9647-21.47z" fill="none" stroke="#fff" stroke-miterlimit="10" stroke-width=".125"/>
  <path d="m363.26 508.8c1.2882-3.4554 6.1034-4.0632 9.2931-3.1885 0.14567 6.1861 0.11712 12.402 1.3892 18.498-2.029 0.74087-4.3018 1.2031-5.641 3.0717 2.3124-0.223 4.5861-0.75555 6.8531-1.2839 0.42182 1.0142 0.84955 2.0399 1.2832 3.0772-2.112 0.25107-4.1846 0.68887-6.2128 1.2953-5.276-5.8092-6.2926-13.985-6.9647-21.47z" fill="#fff"/>
  <path d="m400.99 513.44c3.6783-5.1436 9.3513-9.3897 16.06-7.9406-0.51442 1.7709-2.0686 2.867-3.2992 4.124-3.3661 3.0138-4.7867 7.4835-7.7595 10.825-2.0838 4.7497-3.325 9.8438-5.4799 14.557-3.5608 4.7028-7.113 9.5484-11.627 13.398-4.0061 3.3944-9.5984 2.098-14.378 1.9316-1.1329-1.8309-2.2787-3.6482-3.1926-5.579-1.6805-2.4729 0.17246-5.3061 1.3527-7.543 3.2879-3.1716 7.7932-4.6562 11.558-7.134 1.6295-1.6288 3.2472-3.3131 5.3662-4.3081 0.4562 1.781 0.89655 3.5916 1.4103 5.3842 0.4244-2.5771 0.72111-5.1654 1.2023-7.7168 1.8236 2.7883 3.4882 5.7842 6.164 7.8902-1.5632-2.96-3.1088-5.9248-4.343-9.0273 1.494-2.1474 3.0743-4.2308 4.7945-6.197 1.4572 1.1159 2.9487 2.1816 4.5892 3.0718-0.65921-1.9907-1.5641-3.8553-2.4177-5.7358z" fill="none" stroke="#fff" stroke-miterlimit="10" stroke-width=".125"/>
  <path d="m400.99 513.44c3.6783-5.1436 9.3513-9.3897 16.06-7.9406-0.51442 1.7709-2.0686 2.867-3.2992 4.124-3.3661 3.0138-4.7867 7.4835-7.7595 10.825-2.0838 4.7497-3.325 9.8438-5.4799 14.557-3.5608 4.7028-7.113 9.5484-11.627 13.398-4.0061 3.3944-9.5984 2.098-14.378 1.9316-1.1329-1.8309-2.2787-3.6482-3.1926-5.579-1.6805-2.4729 0.17246-5.3061 1.3527-7.543 3.2879-3.1716 7.7932-4.6562 11.558-7.134 1.6295-1.6288 3.2472-3.3131 5.3662-4.3081 0.4562 1.781 0.89655 3.5916 1.4103 5.3842 0.4244-2.5771 0.72111-5.1654 1.2023-7.7168 1.8236 2.7883 3.4882 5.7842 6.164 7.8902-1.5632-2.96-3.1088-5.9248-4.343-9.0273 1.494-2.1474 3.0743-4.2308 4.7945-6.197 1.4572 1.1159 2.9487 2.1816 4.5892 3.0718-0.65921-1.9907-1.5641-3.8553-2.4177-5.7358z" fill="#fff"/>
  <path d="m386.49 508.57c4.14 0.21102-1.9334 3.7268 0 0z" fill="none" stroke="#8f8f8f" stroke-miterlimit="10" stroke-width=".125"/>
  <path d="m386.49 508.57c4.14 0.21102-1.9334 3.7268 0 0z" fill="#8f8f8f"/>
  <path d="m342.26 515.61c1.2478-2.2039 2.6689-4.2976 4.0915-6.3826 1.3942 1.7391 2.7432 3.5277 4.0768 5.3366-1.3765 1.5194-2.7529 3.0412-4.1366 4.5612-1.351-1.1825-2.6915-2.3593-4.0316-3.5153z" fill="none" stroke="#fff" stroke-miterlimit="10" stroke-width=".125"/>
  <path d="m342.26 515.61c1.2478-2.2039 2.6689-4.2976 4.0915-6.3826 1.3942 1.7391 2.7432 3.5277 4.0768 5.3366-1.3765 1.5194-2.7529 3.0412-4.1366 4.5612-1.351-1.1825-2.6915-2.3593-4.0316-3.5153z" fill="#fff"/>
  <path d="m353.54 514.68c-0.73721-4.3491 4.0249-5.5857 7.369-4.7829 1.6272 5.6246 2.769 11.383 4.5697 16.968-1.9336 0.93908-3.8806 1.8484-5.7651 2.8782 2.5073 0.1995 4.927-0.5113 7.3036-1.2349-0.9213 1.5448-1.844 3.0967-2.7131 4.6853-7.9552-2.2733-8.8034-11.788-10.764-18.514z" fill="none" stroke="#fff" stroke-miterlimit="10" stroke-width=".125"/>
  <path d="m353.54 514.68c-0.73721-4.3491 4.0249-5.5857 7.369-4.7829 1.6272 5.6246 2.769 11.383 4.5697 16.968-1.9336 0.93908-3.8806 1.8484-5.7651 2.8782 2.5073 0.1995 4.927-0.5113 7.3036-1.2349-0.9213 1.5448-1.844 3.0967-2.7131 4.6853-7.9552-2.2733-8.8034-11.788-10.764-18.514z" fill="#fff"/>
  <path d="m389.3 513.74c2.3262 0.97363-0.81943 4.8228-2.6284 4.2002-0.53463-1.682 1.0558-3.6937 2.6284-4.2002z" fill="none" stroke="#c7c7c7" stroke-miterlimit="10" stroke-width=".125"/>
  <path d="m389.3 513.74c2.3262 0.97363-0.81943 4.8228-2.6284 4.2002-0.53463-1.682 1.0558-3.6937 2.6284-4.2002z" fill="#c7c7c7"/>
  <path d="m346.59 520.66c1.6508-1.3068 3.3791-2.5164 5.2337-3.5176 0.37068 2.8956 1.0165 5.7499 1.8597 8.555-1.845-0.0964-4.0993 1.372-5.6368-0.0645-0.54988-1.6512-1.0354-3.3089-1.4566-4.9729z" fill="none" stroke="#fff" stroke-miterlimit="10" stroke-width=".125"/>
  <path d="m346.59 520.66c1.6508-1.3068 3.3791-2.5164 5.2337-3.5176 0.37068 2.8956 1.0165 5.7499 1.8597 8.555-1.845-0.0964-4.0993 1.372-5.6368-0.0645-0.54988-1.6512-1.0354-3.3089-1.4566-4.9729z" fill="#fff"/>
  <path d="m386.22 522.12c1.213-2.182 3.1827-3.7174 5.1422-5.1824 0.13117 1.7631 0.22349 3.5391 0.27693 5.3281-1.8165 0.034-3.6229-0.0146-5.4191-0.14572z" fill="none" stroke="#fff" stroke-miterlimit="10" stroke-width=".125"/>
  <path d="m386.22 522.12c1.213-2.182 3.1827-3.7174 5.1422-5.1824 0.13117 1.7631 0.22349 3.5391 0.27693 5.3281-1.8165 0.034-3.6229-0.0146-5.4191-0.14572z" fill="#fff"/>
  <path d="m348.69 528.32c2.035-0.99627 4.7473-1.901 6.7371-0.30494 2.3121 2.727 4.5399 5.754 8.0006 7.1248 2.4976 1.4081 5.3344-0.14816 7.9552-0.35701-1.3123 3.1135-2.8185 6.2829-2.7212 9.7592 0.44557 2.4662 1.8171 4.6509 2.6873 6.9976-3.9678 1.0405-7.7727 4.3946-12.043 2.8955-2.7474-1.6344-3.9992-4.8519-5.0496-7.7075-1.902-6.1248-3.8362-12.238-5.5661-18.408z" fill="none" stroke="#fff" stroke-miterlimit="10" stroke-width=".125"/>
  <path d="m348.69 528.32c2.035-0.99627 4.7473-1.901 6.7371-0.30494 2.3121 2.727 4.5399 5.754 8.0006 7.1248 2.4976 1.4081 5.3344-0.14816 7.9552-0.35701-1.3123 3.1135-2.8185 6.2829-2.7212 9.7592 0.44557 2.4662 1.8171 4.6509 2.6873 6.9976-3.9678 1.0405-7.7727 4.3946-12.043 2.8955-2.7474-1.6344-3.9992-4.8519-5.0496-7.7075-1.902-6.1248-3.8362-12.238-5.5661-18.408z" fill="#fff"/>
  <path d="m378.18 527.54c1.0565-1.2098 4.0112-1.2911 4.1584 0.73764-0.27952 2.625-5.5332 1.9176-4.1584-0.73764z" fill="none" stroke="#fff" stroke-miterlimit="10" stroke-width=".125"/>
  <path d="m378.18 527.54c1.0565-1.2098 4.0112-1.2911 4.1584 0.73764-0.27952 2.625-5.5332 1.9176-4.1584-0.73764z" fill="#fff"/>
  <path d="m372.94 531.47c0.93125-1.5141 4.58-0.62013 2.9396 1.3175-0.94183 1.5045-4.5701 0.59417-2.9396-1.3175z" fill="none" stroke="#c7c7c7" stroke-miterlimit="10" stroke-width=".125"/>
  <path d="m372.94 531.47c0.93125-1.5141 4.58-0.62013 2.9396 1.3175-0.94183 1.5045-4.5701 0.59417-2.9396-1.3175z" fill="#c7c7c7"/>
  <path d="m366.57 532.25c3.7787-1.8866 0.0211 4.1282 0 0z" fill="none" stroke="#fff" stroke-miterlimit="10" stroke-width=".125"/>
  <path d="m366.57 532.25c3.7787-1.8866 0.0211 4.1282 0 0z" fill="#fff"/>
  <path d="m373.46 553.24c2.4458 1.2287 5.1192 1.8194 7.8703 1.6862 0.33629 2.1638 0.69899 4.3342 1.0475 6.5181 0.97467 3.8003-3.8617 5.5443-6.884 5.6621-1.4359-4.491-1.7387-9.204-2.0338-13.866z" fill="none" stroke="#fff" stroke-miterlimit="10" stroke-width=".125"/>
  <path d="m373.46 553.24c2.4458 1.2287 5.1192 1.8194 7.8703 1.6862 0.33629 2.1638 0.69899 4.3342 1.0475 6.5181 0.97467 3.8003-3.8617 5.5443-6.884 5.6621-1.4359-4.491-1.7387-9.204-2.0338-13.866z" fill="#fff"/>
  <path d="m381.33 554.93c1.1411-0.46335 2.2902-0.91442 3.4475-1.3532-0.4881 2.6715 0.93818 6.7215-2.4 7.8713-0.34848-2.1839-0.71118-4.3542-1.0475-6.5181z" fill="none" stroke="#8f8f8f" stroke-miterlimit="10" stroke-width=".125"/>
  <path d="m381.33 554.93c1.1411-0.46335 2.2902-0.91442 3.4475-1.3532-0.4881 2.6715 0.93818 6.7215-2.4 7.8713-0.34848-2.1839-0.71118-4.3542-1.0475-6.5181z" fill="#8f8f8f"/>
  <path d="m359.87 558.78c2.9353-0.8205 6.2232-1.1539 8.5716-3.2995 0.83992 3.7718 1.3034 7.6129 1.4951 11.486-2.9163-0.7787-5.8141-1.5541-8.706-2.363-0.47772-1.9467-0.93602-3.8874-1.3607-5.8236z" fill="none" stroke="#fff" stroke-miterlimit="10" stroke-width=".125"/>
  <path d="m359.87 558.78c2.9353-0.8205 6.2232-1.1539 8.5716-3.2995 0.83992 3.7718 1.3034 7.6129 1.4951 11.486-2.9163-0.7787-5.8141-1.5541-8.706-2.363-0.47772-1.9467-0.93602-3.8874-1.3607-5.8236z" fill="#fff"/>
 </g>
</svg>
