<?xml version="1.0" encoding="utf-8"?>
<!-- Generator: Adobe Illustrator 16.0.0, SVG Export Plug-In . SVG Version: 6.00 Build 0)  -->
<!DOCTYPE svg PUBLIC "-//W3C//DTD SVG 1.1//EN" "http://www.w3.org/Graphics/SVG/1.1/DTD/svg11.dtd">
<svg version="1.1" id="Calque_1" xmlns="http://www.w3.org/2000/svg" xmlns:xlink="http://www.w3.org/1999/xlink" x="0px" y="0px"
	 width="841.891px" height="595.279px" viewBox="0 0 841.891 595.279" enable-background="new 0 0 841.891 595.279"
	 xml:space="preserve">
<path stroke="#FFFFFF" stroke-miterlimit="10" d="M360.93,219.5"/>
<path stroke="#FFFFFF" stroke-miterlimit="10" d="M335.58,216.42"/>
<path stroke="#000000" stroke-width="2" stroke-miterlimit="10" d="M348.71,232.84"/>
<path stroke="#000000" stroke-width="2" stroke-miterlimit="10" d="M353.64,256.54"/>
<path stroke="#000000" stroke-width="2" stroke-miterlimit="10" d="M367.41,240.2"/>
<path fill="none" stroke="#FFFFFF" stroke-width="13" stroke-linecap="round" stroke-miterlimit="10" d="M340.2,303.13
	c-4.88,35.52-28.88,64.279-56.87,85.04c-8.09,6-16.88,10.79-25.359,16.189c-8.681,5.521-15.631,11.601-21,20.45
	c-9.53,15.69-11.851,35.5-25.221,48.8c-19.51,19.41-48.16,7.11-64.649-9.91"/>
<path fill="none" stroke="#FFFFFF" stroke-width="13" stroke-linecap="round" stroke-miterlimit="10" d="M123.47,261.71
	c10.579-35.021,38.34-65.26,72.59-78.3c18.359-6.99,38.739-8.881,57.84-3.86c19.42,5.09,35.89,17.27,49.79,31.4
	c9.64,9.81,18.189,20.689,24.66,32.869"/>
<g>
	<path fill="#FFFFFF" d="M143.81,318.539c0.149-3.56,1.199-7.63,3.14-12.199c1.94-4.57,4.84-8.98,8.72-13.25
		c3.87-4.26,8.79-8.13,14.761-11.62c5.96-3.49,13.05-5.93,21.27-7.32c8.21-1.39,17.55-1.47,28.01-0.229s22.12,4.34,34.98,9.3
		c0-0.15-0.08-1.16-0.23-3.02c-0.16-1.86-0.229-2.87-0.229-3.021c0-5.42-1.55-10.88-4.65-16.39c-3.1-5.5-7.05-10.5-11.85-14.99
		s-10.03-8.13-15.69-10.92S211,230.7,205.89,230.7c-2.17,0-4.03,0.35-5.58,1.05c-1.551,0.7-3.021,1.47-4.42,2.319
		c-1.391,0.851-2.75,1.631-4.07,2.32c-1.32,0.7-2.91,1.05-4.76,1.05c-0.311,0-0.54-0.08-0.7-0.229c-0.16-0.15-0.39-0.311-0.7-0.46
		c-0.46-0.311-1.05-0.811-1.74-1.511c-0.689-0.699-1.05-1.119-1.05-1.279c0-3.721,0.7-6.931,2.09-9.65
		c1.391-2.71,3.25-4.92,5.58-6.62c2.32-1.699,5-2.979,8.021-3.83c3.02-0.85,6.239-1.279,9.649-1.279
		c8.37,0.93,16.271,3.489,23.71,7.67c7.44,4.18,14.29,9.49,20.57,15.92s11.81,13.79,16.62,22.08c4.8,8.29,8.79,16.93,11.97,25.92
		c3.17,8.99,5.351,18.09,6.51,27.31c1.16,9.22,1.2,18.01,0.12,26.38c-0.16,0-0.779-0.04-1.859-0.12
		c-1.09-0.08-2.21-0.149-3.37-0.229s-2.75-0.271-4.76-0.58c-4.341-9.76-9.181-17.66-14.53-23.71
		c-5.351-6.05-10.66-10.73-15.92-14.061c-5.271-3.329-10.19-5.689-14.76-7.09c-4.57-1.39-8.25-2.399-11.04-3.02
		c-3.101,0-6.78,0.23-11.04,0.7c-4.261,0.46-8.681,1.2-13.25,2.21c-4.57,1.01-9.141,2.359-13.71,4.07
		c-4.57,1.71-8.681,3.799-12.32,6.27c-3.64,2.479-6.59,5.46-8.83,8.95c-2.25,3.489-3.37,7.479-3.37,11.97
		c0,4.96,2.01,9.14,6.04,12.55s8.79,6.16,14.29,8.25s11.16,3.6,16.97,4.53c5.811,0.93,10.5,1.39,14.061,1.39
		c5.729,0,11.39-0.31,16.97-0.93s11.08-1.351,16.5-2.21c5.42-0.851,10.84-1.59,16.27-2.21c5.421-0.62,10.841-0.931,16.271-0.931
		c0.46,0,1.2,0,2.21,0s2.05,0.04,3.14,0.12c1.08,0.08,2.13,0.12,3.141,0.12c1.01,0,1.66,0,1.979,0c1.7,0.62,2.67,1.55,2.91,2.79
		c0.23,1.24,0.351,2.48,0.351,3.72c0,1.24-1.32,2.601-3.95,4.07c-2.641,1.47-6.011,2.95-10.11,4.42
		c-4.11,1.471-8.68,2.95-13.71,4.42c-5.04,1.471-9.92,2.75-14.64,3.83c-4.73,1.09-9.061,1.98-13.021,2.67
		c-3.96,0.69-6.859,1.04-8.72,1.04c-8.68,0-17.82-0.729-27.43-2.21c-9.61-1.47-18.48-4.1-26.61-7.899
		c-8.13-3.79-14.84-9.101-20.1-15.92C146.44,337.98,143.81,329.23,143.81,318.539z"/>
	<path fill="#FFFFFF" d="M355.32,364.789c0-0.31,0-0.96,0-1.97s-0.04-2.09-0.12-3.25s-0.12-2.24-0.12-3.25s0-1.66,0-1.979
		c0-2.011,0.12-5,0.351-8.95c0.229-3.95,0.54-8.33,0.93-13.13c0.38-4.8,0.77-9.88,1.16-15.221c0.38-5.35,0.77-10.46,1.16-15.34
		c0.38-4.88,0.699-9.26,0.93-13.13c0.229-3.869,0.35-6.89,0.35-9.06c0-1.24,0-2.48,0-3.72c0-1.24-0.16-2.4-0.46-3.49
		c-0.31-1.08-0.89-2.09-1.739-3.021c-0.851-0.93-2.131-1.63-3.83-2.09c-0.931,0.78-2.4,2.4-4.42,4.88
		c-2.021,2.48-4.301,5.271-6.86,8.37c-2.561,3.101-5.35,6.36-8.37,9.761c-3.02,3.409-5.97,6.51-8.83,9.299
		c-2.87,2.79-5.62,5.11-8.25,6.971c-2.64,1.859-4.88,2.79-6.74,2.79c-4.96,0-7.439-2.63-7.439-7.9v-1.63
		c0.31-0.46,0.729-1.12,1.28-1.979c0.54-0.851,1.119-1.74,1.739-2.67c0.62-0.931,1.2-1.78,1.74-2.561c0.54-0.77,0.97-1.31,1.28-1.63
		l56.71-59.5c1.7-1.7,3.06-4.1,4.069-7.21c1.011-3.1,1.86-6.43,2.561-9.99c0.7-3.56,1.39-7.17,2.09-10.81
		c0.7-3.641,1.51-6.93,2.44-9.88c0.93-2.94,2.13-5.351,3.6-7.21c1.47-1.86,3.37-2.79,5.7-2.79c1.24,0,2.399,0.12,3.49,0.35
		c1.08,0.23,1.939,1.13,2.56,2.67c0,0.46,0,1.2,0,2.21s0.04,2.061,0.12,3.141c0.08,1.09,0.12,2.13,0.12,3.14s0,1.67,0,1.979
		c0,0.931-0.271,4.11-0.811,9.53c-0.54,5.43-1.279,12.28-2.21,20.57c-0.93,8.29-2.02,17.63-3.25,28.01
		c-1.239,10.38-2.6,20.92-4.069,31.61c-1.471,10.689-2.98,21.069-4.53,31.14s-3.1,19.06-4.65,26.96
		c-1.55,7.9-3.06,14.26-4.529,19.06c-1.471,4.801-2.83,7.21-4.07,7.21c-2.17,0-3.92-0.42-5.23-1.279
		C357.83,368.94,356.55,367.27,355.32,364.789z"/>
	<path fill="#FFFFFF" d="M456.421,364.789c0-0.31,0-0.96,0-1.97s-0.04-2.09-0.12-3.25s-0.12-2.24-0.12-3.25s0-1.66,0-1.979
		c0-2.011,0.12-5,0.35-8.95c0.23-3.95,0.54-8.33,0.931-13.13c0.38-4.8,0.77-9.88,1.159-15.221c0.381-5.35,0.771-10.46,1.16-15.34
		c0.38-4.88,0.7-9.26,0.931-13.13c0.229-3.869,0.35-6.89,0.35-9.06c0-1.24,0-2.48,0-3.72c0-1.24-0.16-2.4-0.46-3.49
		c-0.31-1.08-0.89-2.09-1.74-3.021c-0.85-0.93-2.13-1.63-3.83-2.09c-0.93,0.78-2.399,2.4-4.42,4.88c-2.02,2.48-4.3,5.271-6.859,8.37
		c-2.561,3.101-5.351,6.36-8.37,9.761c-3.021,3.409-5.971,6.51-8.83,9.299c-2.87,2.79-5.62,5.11-8.25,6.971
		c-2.641,1.859-4.881,2.79-6.74,2.79c-4.96,0-7.44-2.63-7.44-7.9v-1.63c0.311-0.46,0.73-1.12,1.28-1.979
		c0.54-0.851,1.12-1.74,1.74-2.67c0.62-0.931,1.2-1.78,1.739-2.561c0.54-0.77,0.971-1.31,1.28-1.63l56.71-59.5
		c1.7-1.7,3.061-4.1,4.07-7.21c1.01-3.1,1.86-6.43,2.561-9.99c0.699-3.56,1.39-7.17,2.09-10.81c0.7-3.641,1.51-6.93,2.439-9.88
		c0.931-2.94,2.13-5.351,3.601-7.21c1.47-1.86,3.37-2.79,5.689-2.79c1.24,0,2.4,0.12,3.49,0.35c1.08,0.23,1.94,1.13,2.56,2.67
		c0,0.46,0,1.2,0,2.21s0.04,2.061,0.12,3.141c0.08,1.09,0.12,2.13,0.12,3.14s0,1.67,0,1.979c0,0.931-0.27,4.11-0.81,9.53
		c-0.54,5.43-1.28,12.28-2.21,20.57c-0.931,8.29-2.021,17.63-3.25,28.01c-1.24,10.38-2.601,20.92-4.07,31.61
		c-1.47,10.689-2.99,21.069-4.53,31.14c-1.55,10.07-3.1,19.06-4.649,26.96s-3.061,14.26-4.53,19.06c-1.47,4.801-2.83,7.21-4.07,7.21
		c-2.17,0-3.92-0.42-5.229-1.279C458.94,368.94,457.66,367.27,456.421,364.789z"/>
	<path fill="#FFFFFF" d="M506.62,287.86c0-10.689,1.591-20.949,4.761-30.8c3.17-9.84,7.819-18.479,13.949-25.92
		c6.12-7.439,13.601-13.36,22.431-17.78s18.979-6.62,30.45-6.62c6.819,0.931,12.739,2.79,17.779,5.58
		c5.03,2.79,9.181,6.32,12.431,10.58c3.25,4.261,5.609,9.141,7.09,14.641c1.47,5.5,2.13,11.35,1.979,17.55
		c0,7.439-2.21,14.14-6.62,20.1c-4.42,5.971-9.92,10.96-16.5,14.99c-6.59,4.03-13.71,7.13-21.38,9.3s-14.84,3.25-21.5,3.25
		c-2.479,0-5-0.04-7.55-0.12c-2.56-0.08-4.84-0.5-6.86-1.28c-2.02-0.77-3.64-2.01-4.88-3.72c-1.239-1.699-1.859-4.18-1.859-7.439
		c0-1.08,0.149-1.98,0.46-2.67c0.31-0.7,1.16-1.2,2.56-1.511c1.391-0.31,3.49-0.35,6.28-0.119c2.79,0.229,6.74,0.81,11.85,1.739
		c2.79,0,6.971-0.97,12.551-2.91c5.58-1.939,11.189-4.449,16.85-7.55c5.65-3.1,10.58-6.62,14.76-10.58s6.28-7.939,6.28-11.97
		s-0.7-8.05-2.09-12.09c-1.391-4.03-3.41-7.59-6.04-10.69c-2.641-3.1-5.771-5.58-9.41-7.439c-3.64-1.86-7.71-2.63-12.2-2.32
		c-7.29,0.62-13.87,2.601-19.76,5.93c-5.89,3.33-10.92,7.591-15.11,12.78c-4.18,5.19-7.399,11.04-9.649,17.55
		c-2.25,6.511-3.37,13.17-3.37,19.99c0,5.271,0.12,10.66,0.35,16.15c0.23,5.499,1.01,10.85,2.32,16.039
		c1.31,5.19,3.49,10.11,6.51,14.761c3.021,4.649,7.36,8.8,13.021,12.439c5.649,3.641,12.819,6.66,21.5,9.061
		c8.68,2.399,19.439,3.91,32.31,4.529l55.32-3.72c-3.41,4.5-7.59,8.21-12.55,11.16s-10.271,5.31-15.921,7.09
		c-5.659,1.78-11.31,3.061-16.97,3.83c-5.66,0.78-10.89,1.16-15.689,1.16c-11.931,0-23.21-1.94-33.82-5.811
		c-10.62-3.869-19.91-9.409-27.89-16.619c-7.98-7.21-14.33-15.921-19.061-26.15C508.98,312.03,506.62,300.56,506.62,287.86z"/>
</g>
<path d="M315.58,252.42"/>
<g>
	<path fill="#FFFFFF" d="M557.427,182.861c0-4.354,1.67-8.52,5.019-12.486c3.344-3.969,7.312-7.703,11.902-11.203
		c4.588-3.502,9.336-6.806,14.238-9.92c4.9-3.11,8.985-5.988,12.253-8.636c4.354,2.181,6.262,4.708,5.718,7.585
		c-0.547,2.882-2.764,6.303-6.651,10.27c-3.892,3.969-8.949,8.56-15.171,13.771c-12.509,10.479-8.521,6.975-19.605,18.088
		c-3.114,0-5.175-0.503-6.186-1.518C557.929,187.802,557.427,185.819,557.427,182.861z"/>
</g>
</svg>
