<?xml version="1.0" encoding="UTF-8"?>
<svg width="10.694in" height="6.4in" clip-rule="evenodd" fill-rule="evenodd" image-rendering="optimizeQuality" shape-rendering="geometricPrecision" text-rendering="geometricPrecision" version="1.1" viewBox="0 0 17294 10350" xmlns="http://www.w3.org/2000/svg">
 <defs>
  <style type="text/css">.fil2 {fill:#ED3237} .fil4 {fill:#00A859} .fil0 {fill:#0C1B26} .fil1 {fill:#394E60} .fil3 {fill:#FFFFFB}</style>
 </defs>
 <path class="fil0" d="m16030 10323c210 90 479-52 602-317l600-1294c123-265 58-561-148-664l-9714-4866c-330-165-729-24-887 317l-775 1670c-158 341-7 736 332 881l9990 4273z"/>
 <path class="fil1" d="m6245 4390l382-824c59-127 162-221 291-266 126-44 261-36 381 25l9714 4865c126 63 160 271 75 455l-295 636-10548-4891z"/>
 <path class="fil0" d="m3425 5829c877 406 1918 25 2325-852l636-1371c407-878 25-1918-852-2325l-2410-1118c-878-407-1918-26-2325 851l-636 1372c-407 877-26 1918 851 2324l2411 1119z"/>
 <path class="fil1" d="m1201 4519c-789-366-1132-1302-766-2091l572-1233c366-789 1302-1132 2091-766l2168 1005c-4010-1019-4065 3085-4065 3085z"/>
 <path class="fil2" d="m9042 8758c316 147 692 10 839-307l1826-3936c146-317 9-693-308-840l-3584-1662c-317-147-693-9-840 308l-1825 3936c-147 317-9 692 308 839l3584 1662z"/>
 <path class="fil3" d="m7415 7315c1069 496 2337 31 2833-1038s31-2337-1038-2833-2337-31-2833 1038-31 2337 1038 2833z"/>
 <path class="fil4" d="m7930 6237l-304-143-6-3c-8-3-13-7-17-12s-5-10-2-16c4-8 8-11 14-11 6 1 13 4 22 8l247 116 439 204c-104 66-212 139-326 219-95 67-200 143-317 230l319 149c5 2 8 6 11 12s3 11 1 16c-4 7-12 10-24 9l-701-328c79-52 163-108 251-170 74-52 157-111 248-175l145-105zm78-458l426 199 133-284c4-10 9-17 13-23 4-5 10-6 18-2 8 3 12 8 12 13 0 6-3 17-11 34l-272 580-678-317 262-562c5-10 11-12 19-9l6 3c7 3 11 7 11 10s-2 10-7 19l-117 252 155 72 121-259c7-15 13-25 17-28 5-4 10-4 17-1 9 4 10 13 4 27l-6 12-123 264zm713-1166c-37-39-82-87-135-144-54-58-98-104-133-139-12-13-20-22-22-28-2-5-2-11 1-19 8-16 17-21 28-16 13 6 37 31 74 75 17 22 35 44 53 66l445 507-161 6-127 7-99 6-119 11 18 26 87 115 71 97c27 37 48 64 61 82 23 29 45 57 66 84-41-3-88-6-141-9-35-3-82-5-141-7-97-5-194-10-292-15-107-5-204-6-292-3l145-311h20c67 4 134 8 201 11s134 6 200 8c-25-36-56-79-92-127-32-42-63-84-95-126-44-58-75-101-95-128l30-1 148-5c94-4 193-11 296-23zm505-715c60 28 96 78 108 150s-2 152-44 241c-37 80-94 138-171 177-30 14-50 18-61 13-12-5-16-14-11-25 41-15 79-37 115-63 41-30 72-65 91-107 18-38 14-63-10-74-26-12-76-6-150 20-120 40-192 63-215 69-87 20-157 18-210-7-60-28-98-77-113-147-16-71-5-145 32-224 33-70 76-122 129-155 31-19 52-25 64-20 11 5 14 13 9 24-31 15-61 34-89 57-32 27-55 55-70 86-18 38-13 64 14 76 26 12 78 5 156-21 130-43 204-66 221-71 89-22 158-21 205 1z"/>
</svg>
