<?xml version='1.0' encoding='utf-8'?>
<svg xmlns="http://www.w3.org/2000/svg" width="210mm" height="297mm" viewBox="0 0 210 297" version="1.1" id="svg8"> <defs id="defs2"/> <metadata id="metadata5"> </metadata> <g id="layer1"> <g id="g1347" transform="translate(-0.56126601,-18.708867)"> <g id="g1213" transform="matrix(0.38591089,0,0,0.38591089,6.3338054,91.100301)" style="opacity:0.28000004;stroke-width:2.59127188"> <path id="path1177" transform="scale(0.26458333)" d="M 128.74609,624.47656 39,644.03711 v 42 a 127,66.684197 0 0 0 89.74609,-19.5625 z" style="fill:#e2ff6c;fill-opacity:1;stroke:none;stroke-width:2.59127164px;stroke-linecap:butt;stroke-linejoin:miter;stroke-opacity:1"/> <path id="path1179" d="m 10.31875,107.86209 a 33.602083,17.643527 0 0 0 -23.745837,5.17524 l 23.745837,12.46829 z" style="opacity:1;fill:#ff0000;fill-opacity:1;stroke:none;stroke-width:2.05682182;stroke-linecap:round;stroke-linejoin:round;stroke-miterlimit:4;stroke-dasharray:none;stroke-dashoffset:0;stroke-opacity:0.98989898"/> <path id="path1181" d="m 10.31875,116.59334 v 17.64353 L 34.064069,121.76885 A 33.602083,17.643527 0 0 0 10.31875,116.59334 Z" style="opacity:1;fill:#9955ff;fill-opacity:1;stroke:none;stroke-width:2.05682182;stroke-linecap:round;stroke-linejoin:round;stroke-miterlimit:4;stroke-dasharray:none;stroke-dashoffset:0;stroke-opacity:0.98989898"/> <path id="path1183" d="M 34.064069,128.64802 10.31875,141.11604 h 33.602083 a 33.602083,17.643527 0 0 0 -9.856764,-12.46802 z" style="opacity:1;fill:#ffd42a;fill-opacity:1;stroke:none;stroke-width:2.05682182;stroke-linecap:round;stroke-linejoin:round;stroke-miterlimit:4;stroke-dasharray:none;stroke-dashoffset:0;stroke-opacity:0.98989898"/> <path style="fill:#6fe2ff;fill-opacity:1;stroke:none;stroke-width:0.68560731px;stroke-linecap:butt;stroke-linejoin:miter;stroke-opacity:1" d="m 43.920315,147.46632 5.01e-4,16.40378 c -0.0078,4.67771 -3.553023,9.16234 -9.856246,12.46797 l -5.01e-4,-16.40429 z" id="path1185"/> <path id="path1187" d="m 10.31875,147.46604 23.745838,12.46801 a 33.602083,17.643527 0 0 0 9.856245,-12.46801 z" style="opacity:1;fill:#2ad4ff;fill-opacity:1;stroke:none;stroke-width:2.05682182;stroke-linecap:round;stroke-linejoin:round;stroke-miterlimit:4;stroke-dasharray:none;stroke-dashoffset:0;stroke-opacity:0.98989898"/> <path id="path1189" d="m 10.31875,152.75771 v 17.64352 a 33.602083,17.643527 0 0 0 23.745838,-5.17551 z" style="opacity:1;fill:#ccff00;fill-opacity:1;stroke:none;stroke-width:2.05682182;stroke-linecap:round;stroke-linejoin:round;stroke-miterlimit:4;stroke-dasharray:none;stroke-dashoffset:0;stroke-opacity:0.98989898"/> <path id="path1191" transform="scale(0.26458333)" d="m -50.746094,643.47461 -0.002,23 A 127,66.684197 0 0 0 39,686.03711 v -23.00195 z" style="fill:#ad0000;fill-opacity:1;stroke:none;stroke-width:2.59127164px;stroke-linecap:butt;stroke-linejoin:miter;stroke-opacity:1"/> <path id="path1193" d="m 10.31875,157.78479 -23.745321,12.46774 a 33.602083,17.643527 0 0 0 23.745321,5.17578 z" style="opacity:1;fill:#ff0000;fill-opacity:1;stroke:none;stroke-width:2.05682182;stroke-linecap:round;stroke-linejoin:round;stroke-miterlimit:4;stroke-dasharray:none;stroke-dashoffset:0;stroke-opacity:0.98989898"/> <path id="path1195" transform="scale(0.26458333)" d="m -88,520.35156 v 99 a 127,66.684196 0 0 0 37.251953,47.12305 v -99.00195 z" style="fill:#6fe2ff;fill-opacity:1;stroke:none;stroke-width:2.59127164px;stroke-linecap:butt;stroke-linejoin:miter;stroke-opacity:1"/> <path id="path1197" d="m -23.283333,137.67646 a 33.602083,17.643527 0 0 0 9.856762,12.46774 L 10.31875,137.67646 Z" style="opacity:1;fill:#2ad4ff;fill-opacity:1;stroke:none;stroke-width:2.05682182;stroke-linecap:round;stroke-linejoin:round;stroke-miterlimit:4;stroke-dasharray:none;stroke-dashoffset:0;stroke-opacity:0.98989898"/> <path id="path1199" d="m -13.436293,118.329 a 33.602083,17.643527 0 0 0 -9.856246,12.46829 h 33.602083 z" style="opacity:1;fill:#ccff00;fill-opacity:1;stroke:none;stroke-width:2.05682182;stroke-linecap:round;stroke-linejoin:round;stroke-miterlimit:4;stroke-dasharray:none;stroke-dashoffset:0;stroke-opacity:0.98989898"/> <path id="path1201" d="m -13.427087,150.14393 5.29e-4,20.1086 23.745308,-12.46774 v -20.10833 z" style="fill:#00b5e3;fill-opacity:1;stroke:none;stroke-width:0.68560731px;stroke-linecap:butt;stroke-linejoin:miter;stroke-opacity:1"/> <path id="path1203" d="m -23.292539,130.79729 0.0093,6.87917 h 33.601995 l -0.0092,-6.87917 z" style="fill:#86a700;fill-opacity:1;stroke:none;stroke-width:0.68560731px;stroke-linecap:butt;stroke-linejoin:miter;stroke-opacity:1"/> <path id="path1205" d="m 10.31875,125.50562 -0.0092,5.29167 -23.736631,-12.46346 v -5.2965 z" style="fill:#ad0000;fill-opacity:1;stroke:none;stroke-width:0.68560731px;stroke-linecap:butt;stroke-linejoin:miter;stroke-opacity:1"/> <path id="path1207" d="m 34.064072,165.22599 -3e-6,-5.29221 -23.745319,-12.46774 v 5.29167 z" style="fill:#009cc4;fill-opacity:1;stroke:none;stroke-width:0.68560731px;stroke-linecap:butt;stroke-linejoin:miter;stroke-opacity:1"/> <path id="path1209" d="m 43.920833,147.46612 v -6.35016 l -33.602083,8e-5 v 6.35 z" style="fill:#e09c00;fill-opacity:1;stroke:none;stroke-width:0.68560731px;stroke-linecap:butt;stroke-linejoin:miter;stroke-opacity:1"/> <path id="path1211" d="m 10.31875,141.11604 v -6.87917 l 23.745319,-12.46802 v 6.87917 z" style="fill:#6400fa;fill-opacity:1;stroke:none;stroke-width:0.68560731px;stroke-linecap:butt;stroke-linejoin:miter;stroke-opacity:1"/> </g> <g style="stroke-width:2.59127188" transform="matrix(0.38591089,0,0,0.38591089,6.3338054,88.851343)" id="g1175"> <path style="fill:#e2ff6c;fill-opacity:1;stroke:none;stroke-width:2.59127164px;stroke-linecap:butt;stroke-linejoin:miter;stroke-opacity:1" d="M 128.74609,624.47656 39,644.03711 v 42 a 127,66.684197 0 0 0 89.74609,-19.5625 z" transform="scale(0.26458333)" id="path1144"/> <path style="opacity:1;fill:#ff0000;fill-opacity:1;stroke:none;stroke-width:2.05682182;stroke-linecap:round;stroke-linejoin:round;stroke-miterlimit:4;stroke-dasharray:none;stroke-dashoffset:0;stroke-opacity:0.98989898" d="m 10.31875,107.86209 a 33.602083,17.643527 0 0 0 -23.745837,5.17524 l 23.745837,12.46829 z" id="rect1064"/> <path style="opacity:1;fill:#9955ff;fill-opacity:1;stroke:none;stroke-width:2.05682182;stroke-linecap:round;stroke-linejoin:round;stroke-miterlimit:4;stroke-dasharray:none;stroke-dashoffset:0;stroke-opacity:0.98989898" d="m 10.31875,116.59334 v 17.64353 L 34.064069,121.76885 A 33.602083,17.643527 0 0 0 10.31875,116.59334 Z" id="path1070"/> <path style="opacity:1;fill:#ffd42a;fill-opacity:1;stroke:none;stroke-width:2.05682182;stroke-linecap:round;stroke-linejoin:round;stroke-miterlimit:4;stroke-dasharray:none;stroke-dashoffset:0;stroke-opacity:0.98989898" d="M 34.064069,128.64802 10.31875,141.11604 h 33.602083 a 33.602083,17.643527 0 0 0 -9.856764,-12.46802 z" id="path1072"/> <path id="path1149" d="m 43.920315,147.46632 5.01e-4,16.40378 c -0.0078,4.67771 -3.553023,9.16234 -9.856246,12.46797 l -5.01e-4,-16.40429 z" style="fill:#6fe2ff;fill-opacity:1;stroke:none;stroke-width:0.68560731px;stroke-linecap:butt;stroke-linejoin:miter;stroke-opacity:1"/> <path style="opacity:1;fill:#2ad4ff;fill-opacity:1;stroke:none;stroke-width:2.05682182;stroke-linecap:round;stroke-linejoin:round;stroke-miterlimit:4;stroke-dasharray:none;stroke-dashoffset:0;stroke-opacity:0.98989898" d="m 10.31875,147.46604 23.745838,12.46801 a 33.602083,17.643527 0 0 0 9.856245,-12.46801 z" id="path1074"/> <path style="opacity:1;fill:#ccff00;fill-opacity:1;stroke:none;stroke-width:2.05682182;stroke-linecap:round;stroke-linejoin:round;stroke-miterlimit:4;stroke-dasharray:none;stroke-dashoffset:0;stroke-opacity:0.98989898" d="m 10.31875,152.75771 v 17.64352 a 33.602083,17.643527 0 0 0 23.745838,-5.17551 z" id="path1076"/> <path style="fill:#ad0000;fill-opacity:1;stroke:none;stroke-width:2.59127164px;stroke-linecap:butt;stroke-linejoin:miter;stroke-opacity:1" d="m -50.746094,643.47461 -0.002,23 A 127,66.684197 0 0 0 39,686.03711 v -23.00195 z" transform="scale(0.26458333)" id="path1139"/> <path style="opacity:1;fill:#ff0000;fill-opacity:1;stroke:none;stroke-width:2.05682182;stroke-linecap:round;stroke-linejoin:round;stroke-miterlimit:4;stroke-dasharray:none;stroke-dashoffset:0;stroke-opacity:0.98989898" d="m 10.31875,157.78479 -23.745321,12.46774 a 33.602083,17.643527 0 0 0 23.745321,5.17578 z" id="path1078"/> <path style="fill:#6fe2ff;fill-opacity:1;stroke:none;stroke-width:2.59127164px;stroke-linecap:butt;stroke-linejoin:miter;stroke-opacity:1" d="m -88,520.35156 v 99 a 127,66.684196 0 0 0 37.251953,47.12305 v -99.00195 z" transform="scale(0.26458333)" id="path1125"/> <path style="opacity:1;fill:#2ad4ff;fill-opacity:1;stroke:none;stroke-width:2.05682182;stroke-linecap:round;stroke-linejoin:round;stroke-miterlimit:4;stroke-dasharray:none;stroke-dashoffset:0;stroke-opacity:0.98989898" d="m -23.283333,137.67646 a 33.602083,17.643527 0 0 0 9.856762,12.46774 L 10.31875,137.67646 Z" id="path1080"/> <path style="opacity:1;fill:#ccff00;fill-opacity:1;stroke:none;stroke-width:2.05682182;stroke-linecap:round;stroke-linejoin:round;stroke-miterlimit:4;stroke-dasharray:none;stroke-dashoffset:0;stroke-opacity:0.98989898" d="m -13.436293,118.329 a 33.602083,17.643527 0 0 0 -9.856246,12.46829 h 33.602083 z" id="path1082"/> <path style="fill:#00b5e3;fill-opacity:1;stroke:none;stroke-width:0.68560731px;stroke-linecap:butt;stroke-linejoin:miter;stroke-opacity:1" d="m -13.427087,150.14393 5.29e-4,20.1086 23.745308,-12.46774 v -20.10833 z" id="path1133"/> <path style="fill:#86a700;fill-opacity:1;stroke:none;stroke-width:0.68560731px;stroke-linecap:butt;stroke-linejoin:miter;stroke-opacity:1" d="m -23.292539,130.79729 0.0093,6.87917 h 33.601995 l -0.0092,-6.87917 z" id="path1135"/> <path style="fill:#ad0000;fill-opacity:1;stroke:none;stroke-width:0.68560731px;stroke-linecap:butt;stroke-linejoin:miter;stroke-opacity:1" d="m 10.31875,125.50562 -0.0092,5.29167 -23.736631,-12.46346 v -5.2965 z" id="path1137"/> <path style="fill:#009cc4;fill-opacity:1;stroke:none;stroke-width:0.68560731px;stroke-linecap:butt;stroke-linejoin:miter;stroke-opacity:1" d="m 34.064072,165.22599 -3e-6,-5.29221 -23.745319,-12.46774 v 5.29167 z" id="path1151"/> <path style="fill:#e09c00;fill-opacity:1;stroke:none;stroke-width:0.68560731px;stroke-linecap:butt;stroke-linejoin:miter;stroke-opacity:1" d="m 43.920833,147.46612 v -6.35016 l -33.602083,8e-5 v 6.35 z" id="path1153"/> <path style="fill:#6400fa;fill-opacity:1;stroke:none;stroke-width:0.68560731px;stroke-linecap:butt;stroke-linejoin:miter;stroke-opacity:1" d="m 10.31875,141.11604 v -6.87917 l 23.745319,-12.46802 v 6.87917 z" id="path1155"/> </g> </g> </g> </svg>